**ABCDEFGHIJKLMNOPQRSTUVWXYZabcdefghijklmnopqrstuvwxyz**************************
**PARASOLID !"#$%&'()*+,-./:;<=>?@[\]^_`{|}~0123456789**************************
**PART1;
MC=AMD64;
MC_MODEL=Intel64 Family 6 Model 78 Stepping 3, GenuineIntel;
MC_ID=unknown;
OS=Windows_NT;
OS_RELEASE=unknown;
FRU=Parasolid Version 31.1, build 290,  3- 9-2020;
APPL=SOLIDWORKS 2020-2020128;
SITE=;
USER=unknown;
FORMAT=text;
GUISE=transmit;
KEY=pinion screw guide;
FILE=pinion screw guide.x_t;
DATE=Sun Nov 29 00:09:07 2020;
**PART2;
SCH=SCH_3101290_31100;
USFLD_SIZE=0;
**PART3;
**END_OF_HEADER*****************************************************************
T51 : TRANSMIT FILE created by modeller version 310129023 SCH_3101290_31100_1300
6222 0 12 34 CCCCCCI4 mesh1006 0 I8 polyline1008 0 CCCCCCCDI5 owner1040 0 CCCCCC
I13 boundary_mesh1006 0 I17 boundary_polyline1008 0 CCCA16 index_map_offset0 0 1
 dA9 index_map82 0 A17 node_id_index_map82 0 A20 schema_embedding_map82 0 A5 chi
ld12 0 A14 lowest_node_id0 0 1 dA16 mesh_offset_data206 0 Z1 1122 2 3 0 0 0 0 0
 0 1e3 1e-8 0 4 0 1 0 1 1 5 6 7 8 0 0 9 10 11 0 0 0 0 0 0 0 81 255 2 2 1102 12 1
 13 0 0 0 0 14 70 11 CI9 list_type0 0 1 uI10 notransmit0 0 1 lCCCDCCDI12 finger_
index0 0 1 dI12 finger_block1012 0 CZ3 0 4 T1 0 0 10 20 1 15 15 13 255 5 94 0 1
 0 16 0 0 17 0 50 255 6 89 0 16 18 0 0 +-.015 .009 -.005 1 0 0 0 0 -1 30 255 7 4
44 0 19 20 0 0 +0 .005 .018 1 0 0 29 255 8 429 0 11 21 0 -.0065 .005 .035 19 8 C
CCCCCCA5 owner12 0 Z9 28 0 1 17 0 22 V0 16 255 10 713 0 ?23 0 19 24 0 0 1 18 255
 11 427 0 25 0 26 8 ?1 17 255 25 0 27 28 29 11 23 10 0 30 -18 26 279 0 31 11 32
 21 ?1 17 31 0 33 34 35 26 36 37 0 38 +18 32 142 0 39 26 40 41 ?1 29 21 281 0 26
 41 8 -.015 .005 .005 29 41 144 0 32 42 21 -.007 -.0045 .005 29 42 70 0 43 44 41
 -.015 -.009 -.005 18 43 61 0 45 46 47 42 ?1 29 44 71 0 47 48 42 .015 -.009 -.00
5 18 47 62 0 49 43 50 44 ?1 29 48 72 0 50 51 44 .015 -.009 .005 18 50 63 0 52 47
 53 48 ?1 29 51 73 0 53 54 48 -.015 -.009 .005 18 53 64 0 55 50 56 51 ?1 29 54 2
7 0 40 57 51 -.015 .009 -.005 18 40 25 0 58 32 46 54 ?1 29 57 24 0 46 59 54 .015
 .009 -.005 18 46 22 0 60 40 43 57 ?1 29 59 245 0 61 62 57 -.015 .00089356315649
8927 3e-4 18 61 198 0 63 64 65 59 ?1 29 62 246 0 65 66 59 -.015 .0045 .005 18 65
 200 0 67 61 68 62 ?1 29 66 247 0 68 69 62 -.015 -.0045 .005 18 68 202 0 70 65 7
1 66 ?1 29 69 248 0 71 72 66 -.015 -.000893563156498924 3e-4 18 71 196 0 73 68 7
4 69 ?1 29 72 249 0 56 75 69 -.007 .000893563156498927 3e-4 18 56 195 0 76 53 77
 72 ?1 29 75 250 0 77 78 72 -.007 .0045 .005 18 77 197 0 79 56 64 75 ?1 29 78 25
2 0 64 80 75 -.007 -.000893563156498924 3e-4 18 64 201 0 81 77 61 78 ?1 29 80 38
2 0 82 83 78 .015 .005 .005 18 82 325 0 84 85 86 80 ?1 29 83 385 0 74 87 80 .015
 .009 .035 18 74 330 0 88 71 85 83 ?1 29 87 386 0 85 89 83 .015 .005 .035 18 85
 329 0 28 74 82 87 ?1 29 89 601 0 86 90 87 -.015 .005 .018 18 86 520 0 91 82 92
 89 ?1 29 90 603 0 92 93 89 -.0065 .005 .018 18 92 521 0 94 86 95 90 ?1 29 93 60
5 0 95 96 90 -.015 .009 .018 18 95 530 0 97 92 98 93 ?1 29 96 611 0 98 99 93 -.0
065 -.005 .018 18 98 522 0 100 95 101 96 ?1 29 99 612 0 101 102 96 -.0175 -.005
 .018 18 101 526 0 103 98 104 99 ?1 29 102 613 0 104 105 99 -.0175 .009 .018 18
 104 527 0 106 101 107 102 ?1 29 105 837 0 108 109 102 -.0065 .009 .035 18 108 7
66 0 29 110 0 105 ?1 29 109 838 0 107 111 105 -.0065 -.005 .045 18 107 773 0 112
 104 113 109 ?1 29 111 839 0 113 114 109 -.0175 -.005 .045 18 113 772 0 115 107
 116 111 ?1 29 114 840 0 116 117 111 -.0175 .009 .045 18 116 771 0 118 113 110 1
14 ?1 29 117 841 0 110 0 114 -.0065 .009 .045 18 110 768 0 119 116 108 117 ?1 17
 119 0 120 121 118 110 122 123 0 124 -15 255 120 3 0 118 125 0 17 121 0 120 126
 119 108 127 128 0 0 +17 118 0 120 119 129 116 106 130 0 122 +17 122 0 131 132 1
24 116 119 123 0 133 +16 123 754 0 ?122 134 135 136 0 0 1 17 124 0 131 122 137 1
10 138 135 0 127 +15 131 804 0 124 139 0 17 137 0 131 124 132 107 140 141 0 138
 +17 138 0 142 143 127 107 124 135 0 0 -16 135 750 0 ?124 123 144 145 0 0 1 17 1
27 0 142 138 23 110 121 128 0 0 -15 142 545 0 146 147 0 17 23 0 142 127 30 108 2
5 10 0 121 +16 128 733 0 ?121 148 141 149 0 0 1 16 148 672 0 ?150 151 128 152 0
 0 1 16 141 762 0 ?137 128 134 153 0 0 1 30 149 819 0 128 24 152 0 +-.0065 .009
 .045 0 0 -1 30 24 826 0 10 153 149 0 +-.0065 805407328132089e-33 .035 123908819
712629e-30 1 0 31 255 152 694 0 148 149 154 0 --.01175 -433680868994202e-31 .018
 0 0 1 1 0 0 95e-5 30 154 600 0 151 152 155 0 +-.0065 805407328132089e-33 .018 -
123908819712629e-30 -1 0 16 151 476 0 ?100 156 148 154 0 0 1 30 155 599 0 156 15
4 157 0 +0 .009 .018 1 0 0 16 156 470 0 ?97 158 151 155 0 0 1 30 157 598 0 158 1
55 159 0 +-.0175 0 .018 0 -1 0 16 158 503 0 ?160 161 156 157 0 0 1 30 159 597 0
 161 157 162 0 +-3942553354492745e-34 -.005 .018 1 -788510670898549e-31 0 16 161
 499 0 ?163 130 158 159 0 0 1 30 162 592 0 164 159 165 0 +-.0065 -.005 .018 0 0
 1 16 164 502 0 ?112 166 167 162 0 0 1 30 165 591 0 167 162 168 0 +-.0175 -.005
 .018 0 0 1 16 167 506 0 ?115 164 130 165 0 0 1 30 168 590 0 130 165 169 0 +-.01
75 .009 .018 0 0 1 16 130 494 0 ?118 167 161 168 0 0 1 30 169 587 0 166 168 170
 0 +-.0065 .005 .035 0 0 1 16 166 485 0 ?30 171 164 169 0 0 1 30 170 584 0 171 1
69 172 0 +-.015 .009 .018 0 -1 0 16 171 474 0 ?91 173 166 170 0 0 1 30 172 378 0
 174 170 175 0 +0 .005 .035 1 0 0 16 174 428 0 ?28 176 173 172 0 0 1 30 175 377
 0 176 172 177 0 +.015 0 .035 0 1 0 16 176 317 0 ?178 179 174 175 0 0 1 30 177 3
76 0 179 175 180 0 +0 .009 .035 -1 0 0 16 179 321 0 ?29 181 176 177 0 0 1 30 180
 374 0 173 177 182 0 +0 .005 .005 1 0 0 16 173 296 0 ?34 174 171 180 0 0 1 30 18
2 369 0 181 180 183 0 +.015 .005 .035 0 0 -1 16 181 304 0 ?184 37 179 182 0 0 1
 30 183 368 0 37 182 185 0 +-.015 .005 .035 0 0 -1 16 37 439 0 ?31 186 181 183 0
 0 1 30 185 244 0 187 183 188 0 +-.007 .000893563156498927 3e-4 0 -1 -3640040990
723665e-31 16 187 167 0 ?189 190 191 185 0 0 1 30 188 243 0 190 185 192 0 +-.007
 -.0045 .005 0 -.608761429008717 .793353340291238 16 190 179 0 ?39 193 187 188 0
 0 1 30 192 242 0 193 188 194 0 +-.007 .0045 .005 0 1 0 16 193 175 0 ?79 195 190
 192 0 0 1 30 194 241 0 195 192 196 0 +-.007 .0045 .005 0 -.608761429008716 -.79
3353340291238 16 195 171 0 ?197 198 193 194 0 0 1 30 196 240 0 186 194 199 0 +-.
015 .000893563156498927 3e-4 0 -1 -3640040990723665e-31 16 186 183 0 ?200 201 37
 196 0 0 1 30 199 239 0 201 196 202 0 +-.015 -.0045 .005 0 -.608761429008717 .79
3353340291238 16 201 186 0 ?70 191 186 199 0 0 1 30 202 237 0 191 199 203 0 +-.0
15 .0045 .005 0 -.608761429008716 -.793353340291238 16 191 192 0 ?204 187 201 20
2 0 0 1 30 203 236 0 205 202 206 0 +-.007 .000893563156498927 3e-4 -1 0 0 16 205
 174 0 ?63 207 208 203 0 0 1 30 206 235 0 208 203 209 0 +-.007 .0045 .005 -1 0 0
 16 208 178 0 ?210 205 211 206 0 0 1 30 209 234 0 211 206 212 0 +-.007 -.0045 .0
05 -1 0 0 16 211 182 0 ?213 208 198 209 0 0 1 30 212 233 0 198 209 214 0 +-.007
 -.000893563156498924 3e-4 -1 0 0 16 198 170 0 ?73 211 195 212 0 0 1 30 214 5 0
 215 212 216 0 +-.015 .009 -.005 0 0 1 16 215 4 0 ?217 218 219 214 0 0 1 30 216
 11 0 218 214 220 0 +.015 .009 -.005 0 0 -1 16 218 10 0 ?60 221 215 216 0 0 1 30
 220 14 0 221 216 222 0 +.015 .009 -.005 -1 0 1156482317317872e-31 16 221 13 0 ?
58 223 218 220 0 0 1 30 222 69 0 207 220 224 0 +-.015 -.009 -.005 0 0 1 16 207 5
7 0 ?225 226 205 222 0 0 1 30 224 68 0 226 222 227 0 +.015 -.009 .005 1 0 -86736
1737988404e-31 16 226 53 0 ?228 229 207 224 0 0 1 30 227 67 0 229 224 230 0 +.01
5 -.009 -.005 0 0 -1 16 229 49 0 ?49 219 226 227 0 0 1 30 230 66 0 219 227 231 0
 +.015 -.009 -.005 -1 0 1156482317317872e-31 16 219 45 0 ?45 215 229 230 0 0 1 3
0 231 90 0 223 230 232 0 +-.015 .009 -.005 0 -1 0 16 223 74 0 ?233 234 221 231 0
 0 1 30 232 91 0 234 231 235 0 +.015 .009 -.005 0 -1 0 16 234 75 0 ?236 237 223
 232 0 0 1 30 235 92 0 237 232 20 0 +.015 .009 .005 0 -1 0 16 237 283 0 ?52 238
 234 235 0 0 1 30 20 93 0 239 235 7 0 +-.015 .009 .005 0 -1 0 16 239 280 0 ?67 1
9 238 20 238 238 1 17 67 0 240 241 38 65 242 239 0 210 +16 19 442 0 ?94 10 239 7
 0 0 1 16 238 137 0 ?55 239 237 20 239 239 1 17 55 0 240 228 213 53 243 238 0 24
4 +15 240 286 0 38 245 0 17 228 0 240 84 55 50 244 226 0 246 +17 213 0 240 55 24
7 68 248 211 0 243 +17 243 0 249 250 225 68 55 238 0 0 -17 244 0 251 252 246 53
 228 226 0 225 -15 251 44 0 252 253 0 17 252 0 251 254 244 43 225 207 0 0 -17 24
6 0 251 244 254 50 49 229 0 0 -17 225 0 249 243 233 53 252 207 0 0 +15 249 464 0
 255 16 0 17 233 0 249 225 256 43 257 223 0 252 +17 256 0 249 233 255 40 217 215
 0 0 -17 257 0 258 259 45 40 233 223 0 256 -15 258 78 0 45 260 0 17 259 0 258 23
6 257 46 58 221 0 0 -17 45 0 258 257 236 43 254 219 0 233 +17 236 0 258 45 259 4
7 261 234 0 254 +17 254 0 251 246 252 47 45 219 0 0 -17 261 0 262 88 49 46 236 2
34 0 259 -15 262 80 0 49 263 0 17 88 0 262 264 261 74 60 218 0 178 -17 49 0 262
 261 52 47 246 229 0 236 +17 52 0 262 49 184 50 84 237 0 228 +17 184 0 262 52 26
4 82 265 181 0 0 +17 84 0 240 38 228 82 52 237 0 34 -17 38 0 240 67 84 26 34 173
 0 242 -17 34 0 33 265 31 82 38 173 0 184 +15 33 446 0 266 267 0 17 265 0 33 268
 34 85 184 181 0 264 -17 268 0 33 266 265 11 28 174 0 0 -17 264 0 262 184 88 85
 178 176 0 0 -17 178 0 27 29 28 74 264 176 0 126 +15 27 714 0 25 269 0 17 29 0 2
7 25 178 108 126 179 0 23 +17 28 0 27 178 25 85 268 174 0 265 +17 126 0 120 60 1
21 74 29 179 0 0 -17 60 0 120 58 126 46 88 218 0 261 +17 58 0 120 217 60 40 259
 221 0 257 +17 217 0 120 129 58 95 256 215 0 0 +17 129 0 120 118 217 104 97 156
 0 270 -17 97 0 271 91 270 95 129 156 0 255 +17 270 0 271 97 272 104 160 158 0 0
 -15 271 537 0 97 273 0 17 272 0 271 270 100 101 163 161 0 0 -17 160 0 274 115 1
06 101 270 158 0 272 +15 274 562 0 115 275 0 17 115 0 274 133 160 113 103 167 0
 132 +17 106 0 274 160 133 104 118 130 0 129 -17 133 0 274 106 115 116 132 134 0
 0 -17 132 0 131 137 122 113 133 134 0 140 +16 134 758 0 ?132 141 123 276 0 0 1
 30 276 829 0 134 136 153 0 +-.0175 0 .045 0 -1 0 30 136 830 0 123 145 276 0 +0
 .009 .045 -1 0 0 30 153 828 0 141 276 24 0 +-3942553354492745e-34 -.005 .045 1
 -788510670898549e-31 0 30 145 831 0 135 277 136 0 +-.0065 805407328132089e-33 .
045 123908819712629e-30 1 0 31 277 832 0 144 278 145 0 --.01175 -433680868994202
e-31 .045 0 0 1 1 0 0 95e-5 16 144 747 0 ?279 135 280 277 0 0 1 31 278 974 0 281
 282 277 0 -.003 .009 .03 0 -1 0 0 0 -1 .0015 16 281 952 0 ?283 284 285 278 0 0
 1 31 282 975 0 285 286 278 0 +.003 .005 .03 0 -1 0 0 0 -1 .0015 16 285 949 0 ?2
87 281 0 282 0 0 1 31 286 976 0 280 288 282 0 -.003 .009 .013 0 -1 0 0 0 -1 .001
5 16 280 936 0 ?289 144 284 286 0 0 1 31 288 977 0 284 0 286 0 +.003 .005 .013 0
 -1 0 0 0 -1 .0015 16 284 933 0 ?290 280 281 288 0 0 1 17 290 0 291 290 290 0 29
2 284 0 0 +15 291 940 0 290 293 294 17 292 0 295 292 292 0 290 284 0 0 -15 295 9
27 0 292 267 296 14 255 267 447 297 ?245 16 295 5 298 -0 0 245 16 22 15 296 921
 0 299 267 33 17 299 0 296 299 299 0 287 285 0 0 -17 287 0 300 287 287 0 299 285
 0 0 +15 300 956 0 287 301 302 14 301 953 303 ?293 139 300 5 304 -0 0 293 139 22
 15 302 957 0 283 301 0 17 283 0 302 283 283 0 305 281 0 0 +17 305 0 306 305 305
 0 283 281 0 0 -15 306 897 0 305 125 120 14 125 1 307 ?253 260 308 5 309 -0 0 25
3 260 22 81 1 307 1105 310 125 311 0 303 312 313 14 253 43 312 ?314 125 251 5 31
5 +0 0 314 125 22 14 260 79 316 ?125 263 258 5 317 -0 0 125 263 22 15 308 909 0
 318 125 306 50 309 2 0 125 319 315 0 +0 .009 0 0 -1 0 0 0 -1 13 22 29 0 0 0 0 0
 0 9 16 14 16 465 320 ?267 0 249 5 6 -0 0 267 0 22 81 1 320 1108 310 16 321 0 31
6 322 323 80 255 1 310 324 325 9000 1 1 1 1 1 1 1 1 0 FFFFTFTFFFFFFF1 81 1 321 1
021 326 16 0 320 0 327 328 81 1 316 1107 310 260 329 0 312 320 330 81 1 322 1109
 310 245 331 0 320 332 333 82 255 1 323 -974192318 14 245 287 322 ?263 267 240 5
 18 -0 0 263 267 22 81 1 331 1023 326 245 0 322 327 334 335 81 1 332 1110 310 26
3 334 0 322 336 337 82 1 333 -1143340736 14 263 81 332 ?260 245 262 5 338 -0 0 2
60 245 22 81 1 334 1024 326 263 0 332 331 329 339 81 1 336 1111 310 314 340 0 33
2 341 342 82 1 337 630128960 14 314 203 336 ?343 253 344 5 319 -0 0 343 253 22 8
1 1 340 1028 326 314 0 336 345 346 347 81 1 341 1112 310 343 346 0 336 348 349 8
2 1 342 -1319370434 14 343 207 341 ?350 314 351 5 352 -0 0 350 314 22 81 1 346 1
029 326 343 0 341 340 353 354 81 1 348 1113 310 350 353 0 341 355 356 82 1 349 -
1319763650 14 350 215 348 ?357 343 358 5 359 -0 0 357 343 22 81 1 353 1030 326 3
50 0 348 346 360 361 81 1 355 1114 310 357 360 0 348 362 363 82 1 356 -131950150
6 14 357 219 355 ?269 350 364 5 365 -0 0 269 350 22 81 1 360 1031 326 357 0 355
 353 366 367 81 1 362 1115 310 269 366 0 355 368 369 82 1 363 -1326317250 14 269
 352 362 ?273 357 27 5 370 +0 0 273 357 22 81 1 366 1032 326 269 0 362 360 371 3
72 81 1 368 1116 310 273 371 0 362 373 374 82 1 369 -1156579002 14 273 534 368 ?
147 269 375 5 376 -0 0 147 269 22 81 1 371 1033 326 273 0 368 366 377 378 81 1 3
73 1117 310 147 377 0 368 379 380 82 1 374 -975961788 14 147 542 373 ?381 273 14
2 5 382 -0 0 381 273 22 81 1 377 1034 326 147 0 373 371 383 384 81 1 379 1118 31
0 381 383 0 373 385 386 82 1 380 -978845370 14 381 555 379 ?275 147 387 5 388 +0
 0 275 147 22 81 1 383 1035 326 381 0 379 377 389 390 81 1 385 1119 310 275 389
 0 379 391 392 82 1 386 -988085946 14 275 559 385 ?393 381 274 5 394 +0 0 393 38
1 22 81 1 389 1036 326 275 0 385 383 395 396 81 1 391 1120 310 393 395 0 385 397
 398 82 1 392 -987954874 14 393 683 391 ?139 275 399 5 400 -0 0 139 275 22 81 1
 395 1037 326 393 0 391 389 401 402 81 1 397 1121 310 139 401 0 391 403 404 82 1
 398 -814350010 14 139 800 397 ?301 393 405 5 406 +0 0 301 393 22 81 1 401 1038
 326 139 0 397 395 407 408 81 1 403 1122 310 293 409 0 397 0 410 82 1 404 -67469
2794 14 293 937 403 ?0 301 291 5 411 -0 0 0 301 22 81 1 409 1040 326 293 0 403 4
07 0 412 82 1 410 -604110520 80 1 326 0 413 8001 0 0 0 0 3 5 0 0 0 FFFFTFTFFFFFF
F2 81 1 407 1039 326 301 0 303 401 409 414 83 255 3 412 .796078431372549 1 .4745
09803921569 81 1 303 1104 310 301 407 0 297 307 415 83 3 414 .796078431372549 1
 .474509803921569 81 1 297 1103 310 267 327 0 0 303 416 82 1 415 -569245368 81 1
 327 1022 326 267 0 297 321 331 417 82 1 416 -977665720 83 3 417 .79607843137254
9 1 .474509803921569 79 255 15 413 SDL/TYSA_COLOUR51 255 411 971 0 293 0 304 0 +
.003 .009001 .013 0 -1 0 .0015 0 0 -1 51 304 968 0 301 411 406 0 +.003 .009001 .
03 0 -1 0 .0015 0 0 -1 50 406 818 0 139 304 400 0 +0 0 .045 0 0 1 1 0 0 51 400 6
90 0 393 406 376 0 +-.01175 -433680868994202e-31 -.005001 0 0 1 95e-5 1 0 0 50 3
76 583 0 273 400 388 0 +0 0 .018 0 0 1 1 0 0 50 388 581 0 381 376 394 0 +-394255
3354492745e-34 -.005 .018 -788510670898549e-31 -1 0 1 -788510670898549e-31 0 50
 394 580 0 275 388 382 0 +-.0175 0 .018 -1 0 0 0 0 1 50 382 578 0 147 394 370 0
 +-.0065 805407328132089e-33 .018 -1 123908819712629e-30 0 -123908819712629e-30
 -1 0 50 370 367 0 269 382 298 0 +0 0 .035 0 0 1 1 0 0 50 298 363 0 267 370 365
 0 +0 .005 .035 0 1 0 0 0 1 50 365 232 0 357 298 352 0 +-.007 0 0 1 0 0 0 0 -1 5
0 352 230 0 343 365 359 0 +-.007 .0045 .005 0 .793353340291239 -.608761429008716
 0 .608761429008716 .793353340291239 50 359 228 0 350 352 319 0 +-.007 -.0045 .0
05 0 -.793353340291238 -.608761429008717 0 .608761429008717 -.793353340291238 50
 319 227 0 314 359 309 0 +-.007 .000893563156498927 3e-4 0 3640040990723665e-31
 -1 0 1 3640040990723665e-31 83 3 408 .796078431372549 1 .474509803921569 15 405
 803 0 279 139 131 17 279 0 405 279 279 0 418 144 0 0 +17 418 0 419 418 418 0 27
9 144 0 0 -15 419 793 0 418 393 0 83 3 402 .796078431372549 1 .474509803921569 1
5 399 687 0 150 393 419 17 150 0 399 150 150 0 420 148 0 0 +17 420 0 375 420 420
 0 150 148 0 0 -15 375 657 0 420 273 271 83 3 396 .796078431372549 1 .4745098039
21569 83 3 390 .796078431372549 1 .474509803921569 15 387 558 0 112 381 0 17 112
 0 387 140 163 107 143 164 0 137 +17 140 0 387 103 112 113 137 141 0 0 -17 163 0
 387 112 103 98 272 161 0 0 +17 143 0 142 146 138 98 112 164 0 163 -17 146 0 142
 30 143 92 100 151 0 266 -17 30 0 142 23 146 11 266 166 0 268 +17 100 0 271 272
 94 98 146 151 0 143 +17 266 0 33 35 268 92 30 166 0 0 -17 35 0 33 31 266 86 94
 19 0 36 -17 94 0 271 100 91 92 35 19 0 146 +17 36 0 249 255 242 86 31 37 0 0 -1
7 255 0 249 256 36 95 91 171 0 217 -17 242 0 249 36 421 26 67 239 0 0 -17 421 0
 249 242 422 65 204 191 0 0 -17 422 0 249 421 250 61 200 186 0 0 -17 204 0 351 7
6 210 61 421 191 0 422 +15 351 210 0 204 343 0 17 76 0 351 423 204 56 63 205 0 4
24 -17 210 0 351 204 423 65 241 208 0 421 +17 423 0 351 210 76 77 197 195 0 241
 -17 241 0 240 247 67 77 210 208 0 0 -17 247 0 240 213 241 32 79 193 0 0 -17 79
 0 364 197 39 77 247 193 0 423 +15 364 221 0 189 357 0 17 197 0 364 189 79 56 42
3 195 0 0 +17 39 0 364 79 189 32 425 190 0 248 +17 189 0 364 39 197 64 424 187 0
 0 +17 425 0 358 73 248 64 39 190 0 189 -17 248 0 358 425 70 32 213 211 0 247 -1
5 358 218 0 70 350 0 17 70 0 358 248 73 68 250 201 0 213 +17 73 0 358 70 425 71
 81 198 0 200 +17 250 0 249 422 243 71 70 201 0 0 -17 81 0 344 424 200 64 73 198
 0 425 -17 200 0 344 81 63 71 422 186 0 250 +15 344 206 0 200 314 0 17 63 0 344
 200 424 61 76 205 0 204 +17 424 0 344 63 81 56 189 187 0 197 -17 91 0 271 94 97
 86 255 171 0 35 +17 103 0 387 163 140 101 115 167 0 160 -83 3 384 .796078431372
549 1 .474509803921569 83 3 378 .796078431372549 1 .474509803921569 83 3 372 .79
6078431372549 1 .474509803921569 83 3 367 .796078431372549 1 .474509803921569 83
 3 361 .796078431372549 1 .474509803921569 83 3 354 .796078431372549 1 .47450980
3921569 81 1 345 1027 326 253 0 312 311 340 426 83 3 347 .796078431372549 1 .474
509803921569 81 1 312 1106 310 253 345 0 307 316 427 81 1 311 1026 326 125 0 307
 329 345 428 83 3 426 .796078431372549 1 .474509803921569 81 1 329 1025 326 260
 0 316 334 311 429 83 3 428 .796078431372549 1 .474509803921569 83 3 429 .796078
431372549 1 .474509803921569 82 1 427 -2065694490 83 3 339 .796078431372549 1 .4
74509803921569 50 338 87 0 263 317 18 0 +.015 .009 -.005 -1 0 0 0 0 1 50 317 86
 0 260 315 338 0 +.015 .009 -.005 1156482317317872e-31 0 1 1 0 -1156482317317872
e-31 50 18 88 0 245 338 6 0 +.015 .009 .005 -867361737988404e-31 0 -1 -1 0 86736
1737988404e-31 50 315 65 0 253 309 317 0 +0 -.009 0 0 -1 0 0 0 -1 83 3 335 .7960
78431372549 1 .474509803921569 82 1 330 -2064776986 83 3 328 .796078431372549 1
 .474509803921569 79 14 325 SWEntUnchanged17 318 0 308 318 318 0 289 280 0 0 -17
 289 0 294 289 289 0 318 280 0 0 +15 294 941 0 289 293 0 82 1 313 629080392 19 1
7 95 0 1 0 9 5 S0 74 4 CI16 index_map_offset0 0 1 dCCZ20 15 10 0 0 403 430 431 4
32 433 434 435 13 409 2 0 0 0 0 0 0 0 0 0 0 81 5 430 289 436 1 0 431 0 0 437 0 0
 0 0 81 2 431 867 438 1 430 432 0 0 0 439 81 2 432 879 440 1 431 433 0 0 0 441 8
1 1 433 991 442 1 432 434 0 0 443 81 2 434 1015 444 1 433 435 0 0 0 445 81 2 435
 1018 446 1 434 13 0 0 0 0 81 3 13 1020 447 1 435 2 0 0 448 449 450 80 3 447 451
 452 9000 0 1 0 0 1 1 1 1 0 FFTFFFFFFFFFFF1 1 1 82 1 448 583 82 1 449 297 82 3 4
50 899 838 907 79 13 452 TempAxisFaces80 2 446 453 454 9000 0 0 0 0 3 5 0 0 0 FF
TFFFFFFFFFFF9 1 79 16 454 BODY_RECIPE_200180 2 444 455 456 9000 0 0 0 0 3 5 0 0
 0 FFTFFFFFFFFFFF9 1 82 1 445 1 79 24 456 BODY_IN_LIGHTWEIGHT_PERM80 1 442 457 4
58 9000 1 1 1 1 1 1 1 1 0 FFTFFFFFFFFFFF1 82 1 443 9339 79 10 458 BODY_MATCH80 2
 440 459 460 9000 0 0 0 0 3 5 0 0 0 FFTFFFFFFFFFFF9 1 82 1 441 460 79 30 460 LAS
T_BODY_MODIFYING_FEATURE_ID80 2 438 461 462 9000 0 0 0 0 3 5 0 0 0 FFTFFFFFFFFFF
T9 1 82 1 439 297 79 19 462 ENT_TIME_STAMP_200180 5 436 463 464 9000 0 0 0 0 3 6
 0 0 0 FFTTTTTTFTTFTT2 2 2 2 2 83 1 437 1 79 19 464 BODY_SCALING_FACTOR80 2 12 4
65 466 9000 0 0 0 0 3 5 0 0 0 FFTFFFFFFFFFFF9 1 82 1 14 116 79 12 466 ATOM_ID_20
011 0 
