**ABCDEFGHIJKLMNOPQRSTUVWXYZabcdefghijklmnopqrstuvwxyz**************************
**PARASOLID !"#$%&'()*+,-./:;<=>?@[\]^_`{|}~0123456789**************************
**PART1;
MC=AMD64;
MC_MODEL=Intel64 Family 6 Model 78 Stepping 3, GenuineIntel;
MC_ID=unknown;
OS=Windows_NT;
OS_RELEASE=unknown;
FRU=Parasolid Version 31.1, build 290,  3- 9-2020;
APPL=SOLIDWORKS 2020-2020128;
SITE=;
USER=unknown;
FORMAT=text;
GUISE=transmit;
KEY=Pulley clip;
FILE=Pulley clip.x_t;
DATE=Thu Dec  3 21:32:53 2020;
**PART2;
SCH=SCH_3101290_31100;
USFLD_SIZE=0;
**PART3;
**END_OF_HEADER*****************************************************************
T51 : TRANSMIT FILE created by modeller version 310129023 SCH_3101290_31100_1300
6222 0 12 34 CCCCCCI4 mesh1006 0 I8 polyline1008 0 CCCCCCCDI5 owner1040 0 CCCCCC
I13 boundary_mesh1006 0 I17 boundary_polyline1008 0 CCCA16 index_map_offset0 0 1
 dA9 index_map82 0 A17 node_id_index_map82 0 A20 schema_embedding_map82 0 A5 chi
ld12 0 A14 lowest_node_id0 0 1 dA16 mesh_offset_data206 0 Z1 2545 2 3 0 0 0 0 0
 0 1e3 1e-8 0 4 0 1 0 1 1 5 6 7 8 0 0 9 10 11 0 0 0 0 0 0 0 81 255 2 2 2511 12 1
 13 0 0 0 0 14 70 11 CI9 list_type0 0 1 uI10 notransmit0 0 1 lCCCDCCDI12 finger_
index0 0 1 dI12 finger_block1012 0 CZ3 0 4 T1 0 0 9 20 1 15 15 13 255 5 94 0 1 0
 16 0 0 17 0 51 255 6 2361 18 16 19 0 0 +-.0552194384255901 .01444225120825942 .
0057 -.223250116010951 -.974761194191222 0 8e-4 .974761194191222 -.2232501160109
51 0 31 255 7 2331 0 10 20 0 0 +-.0560008138316284 .01103058702859014 .0057 -.22
3250116010952 -.974761194191222 0 .974761194191222 -.223250116010952 0 8e-4 29 2
55 8 2222 0 11 21 0 -.0552210048762754 .01085198693578138 .0057 19 8 CCCCCCCA5 o
wner12 0 Z9 28 0 1 17 0 22 V0 16 255 10 2303 0 ?23 0 24 7 0 0 1 18 255 11 2220 0
 25 0 26 8 ?1 17 255 25 0 27 28 29 11 23 10 0 30 -18 26 2217 0 31 11 32 21 ?1 17
 31 0 33 30 34 26 35 24 0 36 +18 32 2208 0 35 26 37 38 ?1 29 21 2219 0 26 38 8 -
.0544396294702371 .01426365111545066 .0057 29 38 2210 0 32 39 21 -.0559992473809
43 .01462085130106818 .0057 29 39 2207 0 37 40 38 -.0567806227869814 .0112091871
213989 .0057 18 37 2205 0 23 32 41 39 ?1 29 40 2098 0 41 42 39 -.056061334238888
9 .01463507108979364 .000203819634031265 18 41 2096 0 43 37 44 40 ?1 29 42 2095
 0 44 45 40 -.055999247380943 .01462085130106818 .00179872407968905 18 44 2093 0
 46 41 47 42 ?1 29 45 2087 0 47 48 42 -.0543775426122912 .0142494313267252 .0002
03819634031193 18 47 2085 0 49 44 50 45 ?1 29 48 2066 0 50 51 45 -.0567806227869
814 .0112091871213989 .00179872407968909 18 50 2064 0 52 47 53 48 ?1 29 51 2063
 0 53 54 48 -.0568427096449272 .01122340691012436 .000203819634031306 18 53 2061
 0 55 50 56 51 ?1 29 54 2060 0 56 57 51 -.0551589180183295 .01083776714705592 .0
002038196340311515 18 56 2058 0 58 53 59 54 ?1 29 57 2051 0 59 60 54 -.055221004
8762754 .01085198693578138 .001798724079688935 18 59 2049 0 61 56 62 57 ?1 29 60
 2048 0 62 63 57 -.0544396294702371 .01426365111545066 .00179872407968898 18 62
 2046 0 64 59 65 60 ?1 29 63 1504 0 65 66 60 -.0537467115014231 .010514328677603
56 -.004 18 65 1502 0 67 62 68 63 ?1 29 66 1482 0 68 69 63 -.0574735407557953 .0
14958509559246 -.004 18 68 1480 0 70 65 71 66 ?1 29 69 1085 0 71 72 66 -.0538702
302343042 .01054261824391942 .0065 18 71 1083 0 73 68 74 69 ?1 29 72 656 0 74 75
 69 -.0513263333273613 .01080273888736876 .0067 18 74 654 0 76 71 77 72 ?1 29 75
 635 0 77 78 72 -.0598939189298571 .0146700993494808 .0067 18 77 633 0 79 74 80
 75 ?1 29 78 423 0 80 81 75 -.0599895691943479 .01210110847276652 .0075 18 80 42
1 0 82 77 83 78 ?1 29 81 420 0 83 84 78 -.0603085029731673 .0128599303588861 .00
75 18 83 418 0 85 80 86 81 ?1 29 84 417 0 86 87 81 -.0598939189298571 .014670099
3494808 .0075 18 86 415 0 88 83 89 84 ?1 29 87 414 0 89 90 84 -.0592765139782281
 .01521447103852255 .0075 18 89 412 0 91 86 92 87 ?1 29 90 411 0 92 93 87 -.0512
306830628705 .01337172976408302 .0075 18 92 409 0 94 89 95 90 ?1 29 93 408 0 95
 96 90 -.0519437382789903 .01025836719832704 .0075 18 95 406 0 97 92 98 93 ?1 29
 96 389 0 98 99 93 -.0509117492840511 .01261290787796344 .0075 18 98 387 0 100 9
5 101 96 ?1 29 99 386 0 101 102 96 -.0513263333273613 .01080273888736876 .0075 1
8 101 384 0 103 98 104 99 ?1 29 102 175 0 104 105 99 -.0589840171076301 .0153044
548254183 .0075 18 104 173 0 106 101 107 102 ?1 29 105 172 0 107 108 102 -.05145
485974355 .01358004759110052 .0075 18 107 170 0 109 104 110 105 ?1 29 108 141 0
 110 111 105 -.0522362351495884 .01016838341143126 .0075 18 110 139 0 112 107 11
3 108 ?1 29 111 138 0 113 114 108 -.0597653925136684 .01189279064574902 .0075 18
 113 136 0 115 110 116 111 ?1 29 114 885 0 116 117 111 -.0514548597435434 .01358
004759109434 .00653435534570448 18 116 788 0 118 113 119 114 ?1 29 117 886 0 119
 120 114 -.0512306830628705 .01337172976408304 .00658318943638119 18 119 789 0 1
21 116 122 117 ?1 29 120 887 0 122 123 117 -.0522362351495884 .01016838341143124
 .0065343553457034 18 122 797 0 124 119 125 120 ?1 29 123 888 0 125 126 120 -.05
19437382789901 .01025836719832708 .00658318943638121 18 125 798 0 127 122 128 12
3 ?1 29 126 889 0 128 129 123 -.0597653925136618 .01189279064574286 .00653435534
570232 18 128 793 0 130 125 131 126 ?1 29 129 890 0 131 132 126 -.05998956919434
79 .0121011084727665 .00658318943638118 18 131 794 0 133 128 134 129 ?1 29 132 8
91 0 134 135 129 -.0589840171076301 .0153044548254183 .0065343553457034 18 134 8
10 0 136 131 137 132 ?1 29 135 892 0 137 138 132 -.0592765139782283 .01521447103
85225 .00658318943638121 18 137 811 0 139 134 140 135 ?1 29 138 894 0 140 141 13
5 -.0509117492840511 .01261290787796344 .0067 18 140 790 0 142 137 143 138 ?1 29
 141 896 0 143 144 138 -.0603085029731673 .0128599303588861 .0067 18 143 795 0 1
45 140 146 141 ?1 29 144 905 0 146 147 141 -.059398174739422 .0118086865480579 .
0065 18 146 809 0 148 143 149 144 ?1 29 147 906 0 149 150 144 -.0526034529238348
 .0102524875091224 .0065 18 149 792 0 151 146 152 147 ?1 29 150 907 0 152 153 14
7 -.0518220775177965 .01366415168879168 .0065 18 152 796 0 154 149 155 150 ?1 29
 153 908 0 155 156 150 -.0586167993333836 .01522035072772715 .0065 18 155 791 0
 157 152 158 153 ?1 29 156 1069 0 159 160 153 -.0581313974289526 .01151855581326
084 .0065 18 159 1022 0 161 162 163 156 ?1 29 160 1072 0 163 164 156 -.057350022
0229143 .01493021999293012 .0065 18 163 1026 0 165 159 166 160 ?1 29 164 1073 0
 158 167 160 -.0581313974289526 .01151855581326084 -.0024 18 158 1025 0 168 155
 162 164 ?1 29 167 1076 0 162 169 164 -.0573500220229143 .01493021999293012 -.00
24 18 162 1020 0 170 158 159 167 ?1 29 169 1185 0 171 172 167 -.0530888548282658
 .0139542824235887 .0065 18 171 1133 0 173 174 175 169 ?1 29 172 1188 0 166 176
 169 -.0538702302343042 .01054261824391942 -.0024 18 166 1138 0 177 163 174 172
 ?1 29 176 1189 0 174 178 172 -.0530888548282658 .0139542824235887 -.0024 18 174
 1137 0 179 166 171 176 ?1 29 178 1319 0 175 180 176 -.0524947209845252 .0102275
8457062874 -.0024 18 175 1264 0 181 171 182 178 ?1 29 180 1320 0 182 183 178 -.0
517133455784869 .013639248750298 -.0024 18 182 1262 0 184 175 185 180 ?1 29 183
 1431 0 185 186 180 -.0587255312726932 .01524525366622085 -.0024 18 185 1375 0 1
87 182 188 183 ?1 29 186 1432 0 188 189 183 -.0595069066787316 .0118335894865515
6 -.0024 18 188 1373 0 190 185 191 186 ?1 29 189 1647 0 191 192 186 -.0595069066
787316 .01183358948655156 -.0029 18 191 1588 0 193 188 194 189 ?1 29 192 1648 0
 194 195 189 -.0524947209845252 .01022758457062872 -.0029 18 194 1587 0 196 191
 197 192 ?1 29 195 1649 0 197 198 192 -.0517133455784869 .013639248750298 -.0029
 18 197 1586 0 199 194 200 195 ?1 29 198 1650 0 200 201 195 -.0587255312726932 .
01524525366622085 -.0029 18 200 1585 0 202 197 203 198 ?1 29 201 1651 0 203 204
 198 -.0582549161618336 .01154684537957674 -.004 18 203 1583 0 205 200 206 201 ?
1 29 204 1653 0 206 207 201 -.0529653360953848 .01392599285727282 -.004 18 206 1
579 0 208 203 209 204 ?1 29 207 1999 0 209 210 204 -.0563891518586195 .014710151
34747256 -.004 18 209 1903 0 211 206 212 207 ?1 29 210 2000 0 212 213 207 -.0571
705272646579 .0112984871678033 -.004 18 212 1908 0 214 209 215 210 ?1 29 213 200
7 0 215 216 210 -.0540497249925606 .01417435106904628 -.004 18 215 1820 0 217 21
2 218 213 ?1 29 216 2008 0 218 0 213 -.0548311003985989 .010762686889377 -.004 1
8 218 1816 0 219 215 0 216 ?1 17 219 0 220 221 217 218 222 223 0 224 -15 255 220
 1854 0 221 225 0 17 221 0 220 49 219 56 224 226 0 227 +17 217 0 220 219 49 215
 228 229 0 222 +17 222 0 230 208 231 215 219 223 0 232 +16 223 1800 0 ?222 233 0
 234 0 0 1 17 224 0 27 235 58 218 221 226 0 231 -15 27 2366 0 25 236 0 17 235 0
 27 237 224 65 231 238 0 0 -17 58 0 27 224 28 56 61 239 0 221 +16 226 1795 0 ?22
1 229 233 240 0 0 1 17 231 0 230 222 241 218 235 238 0 0 +15 230 1291 0 231 242
 0 17 241 0 230 231 208 65 243 244 0 235 +16 238 1503 0 ?231 245 246 247 0 0 1 1
6 245 1511 0 ?181 248 238 249 0 0 1 16 246 1746 0 ?208 238 250 251 0 0 1 30 255
 247 1312 0 238 251 252 0 +-.0552210048762754 .01085198693578138 -.004 -.9747611
94191222 .223250116010952 0 30 251 1314 0 246 253 247 0 +-.0544396294702371 .014
26365111545066 -.004 .974761194191221 -.223250116010953 0 30 252 1310 0 254 247
 255 0 +-.0544396294702371 .01426365111545066 -.0024 .974761194191221 -.22325011
6010953 0 16 254 1233 0 ?256 257 258 252 0 0 1 31 255 1309 0 257 252 259 0 +-.05
56101261286092 .01273641911842478 -.0024 0 0 -1 1 0 0 .004 16 257 1237 0 ?260 25
0 254 255 0 0 1 30 259 1308 0 250 255 249 0 +-.0552210048762754 .010851986935781
38 -.0024 -.974761194191222 .223250116010952 0 16 250 1241 0 ?261 246 257 259 0
 0 1 30 249 1306 0 245 259 262 0 +-.0524947209845252 .01022758457062874 -.004 0
 0 1 30 262 1305 0 248 249 263 0 +-.0517133455784869 .013639248750298 -.004 0 0
 1 16 248 1514 0 ?184 264 245 262 0 0 1 31 263 1180 0 265 262 266 0 +-.055610126
1286092 .01273641911842478 -.0024 0 0 -1 -1 0 0 .0028 16 265 1127 0 ?267 268 264
 263 0 0 1 31 266 1176 0 264 263 269 0 +-.0556101261286092 .01273641911842478 .0
065 0 0 -1 -1 0 0 .0028 16 264 1113 0 ?270 265 248 266 0 0 1 30 269 1174 0 268 2
66 271 0 +-.0552210048762754 .01085198693578138 -.0024 0 0 1 16 268 2050 0 ?272
 273 265 269 0 0 1 30 271 1173 0 273 269 274 0 +-.0538702302343042 .010542618243
91942 -.0024 0 0 1 16 273 1120 0 ?73 275 268 271 0 0 1 30 274 1172 0 275 271 276
 0 +-.0530888548282658 .0139542824235887 -.0024 0 0 1 16 275 1116 0 ?173 277 273
 274 0 0 1 30 276 1171 0 277 274 278 0 +-.0544396294702371 .01426365111545066 -.
0024 0 0 1 16 277 2047 0 ?279 280 275 276 0 0 1 31 278 1068 0 281 276 282 0 +-.0
556101261286092 .01273641911842478 -.0024 0 0 -1 -1 0 0 .0028 16 281 1007 0 ?283
 284 280 278 0 0 1 31 282 1064 0 280 278 285 0 +-.0556101261286092 .012736419118
42478 .0065 0 0 -1 -1 0 0 .0028 16 280 991 0 ?286 281 277 282 0 0 1 30 285 1060
 0 284 282 287 0 +-.0581313974289526 .01151855581326084 -.0024 0 0 1 16 284 994
 0 ?161 288 281 285 0 0 1 30 287 1059 0 288 285 289 0 +-.0567806227869814 .01120
91871213989 -.0024 0 0 1 16 288 2065 0 ?29 290 284 287 0 0 1 30 289 1058 0 290 2
87 291 0 +-.055999247380943 .01462085130106818 -.0024 0 0 1 16 290 2094 0 ?292 2
93 288 289 0 0 1 30 291 1057 0 293 289 294 0 +-.0573500220229143 .01493021999293
012 -.0024 0 0 1 16 293 998 0 ?165 295 290 291 0 0 1 31 294 884 0 295 291 296 0
 +-.0556101261286092 .01273641911842478 .0065 0 0 -1 -1 0 0 .0039 16 295 784 0 ?
297 298 293 294 298 298 1 31 296 882 0 299 294 300 0 +-.0556101261286092 .012736
41911842478 .0067 0 0 -1 -1 0 0 .0047 16 299 785 0 ?79 301 302 296 302 302 1 38
 12 CCCCCCCCCCCA17 intersection_data204 0 Z300 867 0 301 296 303 0 +304 305 306
 307 308 309 16 301 753 0 ?136 310 299 300 0 0 1 38 303 866 0 310 300 311 0 +312
 305 313 314 315 316 50 255 304 354 0 317 318 319 320 --.0589840171076301 .01530
44548254183 .0065 .2940403252323005 -.955793014798331 0 0 0 1 54 255 305 854 0 3
21 322 323 324 --.0556101261286092 .01273641911842478 .0082 0 0 -1 .0039 .001700
00000000003 -1 0 0 40 255 2 306 0 1 2 1329211023183022e-20 .0827879089644785 ??-
.0592767139782281 .0152144095104886 .00658323208417222 -.0589838171076301 .01530
451635345225 .00653433046946989 41 3 CI8 term_use0 0 1 cCZ1 307 L?-.059276713978
2281 .0152144095104886 .00658323208417222 41 1 308 L?-.0589838171076301 .0153045
1635345225 .00653433046946989 204 2 17 INTERSECTION_DATA17 Intersection data7 uv
_type0 0 1 u6 values0 1 1 fT8 309 4 83232084172216e-18 .000306234578058556 .5943
19710043551 1.256583457776022 3433046946989085e-20 -2092503260667025e-22 .650638
852852458 1.369486957183118 14 255 321 843 325 ?326 327 328 5 305 -326 326 326 3
27 22 51 322 1051 0 329 330 305 0 --.0556101261286092 .01273641911842478 -.0024
 0 0 1 .0028 1 0 0 50 323 2 0 331 305 332 0 +-.0556101261286092 .012736419118424
78 .0065 0 0 1 1 0 0 141 255 324 333 334 335 305 38 333 638 0 336 337 338 0 +339
 305 340 341 342 343 141 334 344 345 324 305 141 335 300 324 346 305 141 346 303
 335 347 305 141 347 311 346 348 305 38 311 865 0 349 303 350 0 +351 305 352 353
 354 355 141 348 350 347 356 305 38 350 864 0 357 311 358 0 +318 305 359 360 361
 362 141 356 358 348 363 305 38 358 863 0 364 350 365 0 +366 305 367 368 369 370
 141 363 365 356 371 305 38 365 862 0 372 358 373 0 +374 305 375 376 377 378 141
 371 373 363 379 305 38 373 861 0 380 365 381 0 +382 305 383 384 385 386 141 379
 381 371 387 305 38 381 860 0 388 373 389 0 +366 305 390 391 392 393 141 387 389
 379 345 305 38 389 859 0 394 381 395 0 +319 305 396 397 398 399 141 345 395 387
 334 305 38 395 858 0 400 389 344 0 +401 305 402 403 404 405 16 400 750 0 ?121 4
06 394 395 0 0 1 38 344 857 0 406 395 407 0 +312 305 408 409 410 411 50 401 312
 0 412 382 318 413 --.0509231406869651 .01308594375248616 .0065 -.68072086895891
9 -.732542898787378 0 0 0 1 40 2 402 0 1 2 133033762106876e-19 .0828224492659251
 ??-.05145505974355 .01358023344256946 .00653432289030102 -.0512304830628705 .01
33715439126141 .00658324508426273 41 1 403 L?-.05145505974355 .01358023344256946
 .00653432289030102 41 1 404 L?-.0512304830628705 .0133715439126141 .00658324508
426273 204 8 405 4 3432289030102025e-20 .000726126834981946 2.94123652129529 1.3
69509255377872 832450842627288e-19 .0004195554641430615 2.99757911332685 1.25655
8716225012 14 412 300 414 ?415 416 417 5 401 +0 0 415 416 22 50 382 291 0 416 41
8 401 419 --.0522362351495884 .01016838341143124 .0065 -.2940403252322985 .95579
3014798332 0 0 0 1 50 318 333 0 415 401 304 420 --.0602971115702534 .01238689448
43634 .0065 .680720868958912 .732542898787384 0 0 0 1 141 413 395 413 413 401 14
 415 321 421 ?317 412 422 5 318 +0 0 317 412 22 141 420 350 420 420 318 81 1 421
 2514 423 415 424 0 414 425 426 14 317 342 425 ?427 415 428 5 304 +0 0 427 415 2
2 15 422 682 0 429 415 0 13 22 29 0 0 0 0 0 0 9 16 14 16 2236 430 ?242 0 33 5 6
 -0 0 242 0 22 81 1 430 2516 423 16 431 0 425 432 433 14 242 1508 432 ?434 16 23
0 5 435 -0 0 434 16 22 15 33 2212 0 34 16 0 17 34 0 33 31 23 32 436 437 0 292 -1
7 23 0 33 34 30 37 25 10 0 436 +17 436 0 438 439 292 37 34 437 0 29 +16 437 2211
 0 ?436 440 441 442 0 0 1 17 292 0 438 436 443 32 444 290 0 0 +15 438 1038 0 292
 445 0 17 443 0 438 292 439 44 446 447 0 444 +17 444 0 448 43 35 44 292 290 0 0
 -15 448 2365 0 35 449 0 17 43 0 448 450 444 41 46 451 0 452 +17 35 0 448 444 27
9 32 31 24 0 34 -17 279 0 448 35 64 26 453 277 0 0 +16 24 2242 0 ?31 10 440 20 0
 0 1 16 440 2223 0 ?36 24 437 454 0 0 1 31 20 2270 0 24 454 7 0 +-.0552194384255
901 .01444225120825942 .0057 .223250116010952 .974761194191222 0 -.9747611941912
22 .223250116010952 0 8e-4 30 454 2225 0 440 442 20 0 +-.0544396294702371 .01426
365111545066 .0057 .223250116010951 .974761194191222 0 30 442 2213 0 437 455 454
 0 --.055999247380943 .01462085130106818 .0057 .223250116010951 .974761194191222
 0 30 455 2125 0 441 456 442 0 --.0572450536446065 .00946668075646878 .000203819
6340313275 .223250116010951 .974761194191222 -1183379595150336e-29 16 441 2123 0
 ?55 437 447 455 0 0 1 30 456 2119 0 447 457 455 0 +-.0567806227869813 .01120918
712139894 .00179872407968909 .223250116010951 .974761194191222 -1183141066723618
e-29 16 447 2117 0 ?443 441 458 456 0 0 1 31 457 2110 0 458 459 456 0 +-.0349444
0558641265 .00979864879523162 .00179872407968898 .223250116010952 .9747611941912
22 0 -.974761194191222 .223250116010952 0 .02 16 458 2108 0 ?64 447 451 457 0 0
 1 31 459 2101 0 451 460 457 0 +-.0754944712647675 .0190858536212872 .0017987240
7968905 .223250116010952 .974761194191222 0 -.974761194191222 .223250116010952 0
 .02 16 451 2099 0 ?43 458 461 459 0 0 1 30 460 2090 0 461 462 459 0 --.05556126
20180089 .00908104099340025 .0002038196340311305 -.223250116010951 -.97476119419
1222 -1183725434923314e-29 16 461 2088 0 ?49 451 239 460 0 0 1 31 462 2078 0 239
 463 460 0 +-.03572578099245095 .00638698461556234 .001798724079688935 -.2232501
16010952 -.974761194191222 0 .974761194191222 -.223250116010952 0 .02 16 239 207
6 0 ?58 461 464 462 0 0 1 31 463 2069 0 464 465 462 0 +-.0762758466708058 .01567
418944161795 .00179872407968909 -.223250116010952 -.974761194191222 0 .974761194
191222 -.223250116010952 0 .02 16 464 2067 0 ?52 239 466 463 0 0 1 30 465 2054 0
 466 338 463 0 +-.0544396294702371 .0142636511154506 .00179872407968898 -.223250
116010951 -.974761194191222 -1183141066723616e-29 16 466 2052 0 ?467 464 468 465
 0 0 1 31 338 1485 0 468 333 465 0 --.0556101261286092 .01273641911842478 -.004
 0 0 -1 -1 0 0 .0029 16 468 1483 0 ?469 466 336 338 0 0 1 17 469 0 470 193 70 20
3 471 468 0 472 +16 336 636 0 ?139 468 473 333 0 0 1 17 139 0 328 136 79 137 474
 336 0 475 +16 473 631 0 ?91 336 476 337 0 0 1 17 91 0 428 477 475 89 478 473 0
 479 +16 476 502 0 ?480 473 481 482 0 0 1 30 337 509 0 473 482 333 0 --.05927651
39782281 .01521447103852255 .0065 0 0 -1 30 482 504 0 476 483 337 0 +-.059989569
1943479 .01210110847276652 .0065 0 0 -1 30 483 499 0 481 484 482 0 +-.0603085029
731673 .0128599303588861 .0065 0 0 1 16 481 645 0 ?85 476 485 483 0 0 1 30 484 4
94 0 485 486 483 0 --.0598939189298571 .0146700993494808 .0065 0 0 1 16 485 492
 0 ?487 481 488 484 0 0 1 30 486 489 0 488 489 484 0 --.0519437382789903 .010258
36719832704 .0065 0 0 -1 16 488 652 0 ?97 485 490 486 0 0 1 30 489 449 0 490 491
 486 0 +-.0512306830628705 .01337172976408302 .0065 0 0 -1 16 490 447 0 ?492 488
 493 489 0 0 1 31 491 441 0 493 494 489 0 +-.0519114039318294 .01263918686529564
 .0075 0 0 1 1 0 0 .001 16 493 439 0 ?94 490 495 491 0 0 1 31 494 436 0 495 496
 491 0 +-.0522377786042226 .01121416021312536 .0075 0 0 1 1 0 0 .001 16 495 434
 0 ?103 493 497 494 0 0 1 31 496 431 0 497 498 494 0 +-.059308848325389 .0128336
513715539 .0075 0 0 1 1 0 0 .001 16 497 429 0 ?82 495 499 496 0 0 1 31 498 426 0
 499 500 496 0 +-.0589824736529958 .0142586780237242 .0075 0 0 1 1 0 0 .001 16 4
99 424 0 ?88 497 501 498 0 0 1 30 500 403 0 501 502 498 0 +-.0509117492840511 .0
1261290787796344 .0065 0 0 1 16 501 665 0 ?100 499 503 500 0 0 1 30 502 398 0 50
3 504 500 0 --.0513263333273613 .01080273888736876 .0065 0 0 1 16 503 396 0 ?505
 501 506 502 0 0 1 30 504 251 0 506 507 502 0 +-.05145485974355 .013580047591100
52 .0065 0 0 -1 16 506 249 0 ?508 503 509 504 0 0 1 30 507 246 0 509 510 504 0 +
-.0589840171076301 .0153044548254183 .0065 0 0 1 16 509 672 0 ?106 506 511 507 0
 0 1 30 510 193 0 511 512 507 0 --.0545966953910171 .0094422110222827 .0075 -.95
5793014798332 -.2940403252322985 0 16 511 191 0 ?513 509 514 510 0 0 1 30 512 18
8 0 514 515 510 0 --.0532639736007939 .01526117993022665 .0075 .732542898787378
 -.680720868958919 0 16 514 410 0 ?109 511 516 512 0 0 1 30 515 183 0 516 517 51
2 0 --.0579562786564245 .01021165830662292 .0075 -.732542898787384 .680720868958
912 0 16 516 422 0 ?115 514 518 515 0 0 1 30 517 178 0 518 519 515 0 --.05662355
68662014 .01603062721456685 .0075 .955793014798331 .2940403252323005 0 16 518 17
6 0 ?479 516 520 517 0 0 1 30 519 155 0 520 521 517 0 +-.0522362351495884 .01016
838341143126 .0065 0 0 1 16 520 693 0 ?112 518 522 519 0 0 1 30 521 150 0 522 52
3 519 0 +-.0597653925136684 .01189279064574902 .0065 0 0 -1 16 522 148 0 ?524 52
0 525 521 0 0 1 30 523 66 0 526 527 521 0 +-.0594713977047257 .0154160798834238
 .0075 -.974761194191222 .223250116010952 0 16 526 171 0 ?528 529 530 523 0 0 1
 31 527 67 0 530 531 523 0 +-.0556101261286092 .01273641911842478 .0075 0 0 1 1
 0 0 .0047 16 530 385 0 ?532 526 533 527 0 0 1 30 531 68 0 533 534 527 0 +-.0602
52773110764 .0120044157037545 .0075 .974761194191222 -.223250116010952 0 16 533
 137 0 ?535 530 536 531 0 0 1 31 534 69 0 536 537 531 0 +-.0556101261286092 .012
73641911842478 .0075 0 0 1 1 0 0 .0047 16 536 416 0 ?538 533 406 534 0 0 1 30 53
7 14 0 525 407 534 0 +-.0594713977047257 .0154160798834238 .0065 -.9747611941912
22 .223250116010952 0 16 525 706 0 ?539 522 540 537 540 540 1 30 407 8 0 541 344
 537 0 +-.060252773110764 .0120044157037545 .0065 .974761194191222 -.22325011601
0952 0 16 541 700 0 ?542 540 529 407 529 529 1 17 542 0 27 168 543 159 544 541 0
 0 +16 540 976 0 ?157 525 541 537 525 525 1 16 529 1084 0 ?151 541 526 407 541 5
41 1 17 151 0 27 545 73 149 546 529 0 547 +17 545 0 27 112 151 122 547 388 0 548
 -17 73 0 27 151 261 71 177 273 0 270 +17 546 0 549 550 551 71 151 529 0 0 -17 5
47 0 552 154 124 149 545 388 0 551 +15 552 824 0 118 326 0 17 154 0 552 118 547
 152 551 298 0 553 -17 124 0 552 547 127 122 554 380 0 545 +16 388 756 0 ?547 39
4 380 381 0 0 1 17 551 0 549 546 555 149 154 298 0 0 +15 549 1093 0 550 556 0 17
 555 0 549 551 550 152 539 525 0 0 -16 298 762 0 ?551 302 295 294 295 295 1 16 3
02 765 0 ?76 299 298 296 299 299 1 17 76 0 552 127 142 74 557 302 0 558 +17 127
 0 552 124 76 125 558 372 0 554 +17 142 0 552 76 121 140 559 394 0 557 +17 557 0
 560 100 505 140 76 302 0 561 -17 558 0 562 563 564 74 127 372 0 505 -15 562 658
 0 558 565 0 17 563 0 562 566 558 101 505 503 0 0 -17 564 0 562 558 566 125 97 4
88 0 0 -16 372 761 0 ?127 380 364 365 0 0 1 17 505 0 560 557 567 74 563 503 0 0
 +15 560 729 0 557 568 0 17 567 0 560 505 100 101 532 530 0 563 -17 100 0 560 56
7 557 98 561 501 0 569 +17 532 0 570 94 103 98 567 530 0 0 +15 570 44 0 532 571
 0 17 94 0 570 109 532 92 569 493 0 572 +17 103 0 570 532 513 101 566 495 0 567
 +17 513 0 570 103 535 95 573 511 0 566 +17 566 0 562 564 563 95 103 495 0 0 -17
 535 0 570 513 115 110 574 533 0 0 +17 573 0 575 548 97 110 513 511 0 535 -15 57
5 696 0 554 416 0 17 548 0 575 554 573 122 112 520 0 0 -17 97 0 575 573 554 95 5
64 488 0 513 +17 554 0 575 97 548 125 124 380 0 564 -16 380 755 0 ?124 388 372 3
73 0 0 1 17 112 0 27 574 545 110 548 520 0 573 +17 574 0 27 524 112 113 535 533
 0 576 -17 524 0 27 543 574 128 576 522 0 0 +17 576 0 422 577 429 113 524 522 0
 0 -17 577 0 422 480 576 80 115 516 0 578 -17 429 0 422 576 480 128 133 357 0 52
4 -17 480 0 422 429 577 131 578 476 0 0 +17 133 0 328 145 130 131 429 357 0 579
 +16 357 759 0 ?133 364 349 350 0 0 1 16 364 758 0 ?130 372 357 358 0 0 1 16 349
 760 0 ?145 357 310 311 0 0 1 17 145 0 328 79 133 143 579 349 0 580 +16 310 754
 0 ?581 349 301 303 0 0 1 17 581 0 328 148 136 155 582 310 0 297 +15 328 845 0 1
30 321 0 17 148 0 328 130 581 146 297 295 0 543 -17 136 0 328 581 139 134 475 30
1 0 582 +17 582 0 448 106 157 134 581 310 0 583 -17 297 0 584 585 544 155 148 29
5 0 0 +15 584 985 0 586 331 0 17 585 0 584 586 297 163 157 540 0 0 -17 544 0 584
 297 586 146 542 541 0 0 -17 586 0 584 544 585 159 286 280 0 542 -17 286 0 587 1
70 161 163 586 280 0 585 +15 587 1030 0 286 329 0 17 170 0 587 588 286 162 165 2
93 0 283 -17 161 0 587 286 588 159 168 284 0 586 +17 588 0 587 161 170 158 283 2
81 0 589 -17 168 0 27 590 542 158 161 284 0 588 -17 590 0 27 591 168 188 589 592
 0 593 +17 591 0 27 472 590 191 190 258 0 0 -17 589 0 594 283 593 158 590 592 0
 0 -16 592 1345 0 ?590 595 596 597 0 0 1 17 593 0 594 589 598 188 599 595 0 0 -1
5 594 1384 0 589 600 0 17 598 0 594 593 283 185 601 602 0 0 -17 599 0 603 604 19
0 185 593 595 0 598 +16 595 1349 0 ?599 602 592 605 0 0 1 16 602 1353 0 ?601 606
 595 607 0 0 1 31 605 1421 0 595 597 607 0 +-.0556101261286092 .0127364191184247
8 -.0024 0 0 -1 -1 0 0 .004 30 597 1422 0 592 608 605 0 +-.0567806227869814 .011
2091871213989 -.0024 -.974761194191221 .223250116010955 0 30 607 1420 0 602 605
 609 0 +-.055999247380943 .01462085130106818 -.0024 .974761194191221 -.223250116
0109555 0 30 609 1418 0 610 607 253 0 +-.0587255312726932 .01524525366622085 -.0
04 0 0 1 16 610 1489 0 ?187 258 611 609 0 0 1 30 253 1417 0 258 609 251 0 +-.059
5069066787316 .01183358948655156 -.004 0 0 1 16 258 1492 0 ?190 254 610 253 0 0
 1 17 190 0 603 599 612 188 591 258 0 590 +15 603 1396 0 604 613 0 17 612 0 603
 190 604 191 202 614 0 591 -17 604 0 603 612 599 200 187 610 0 0 -17 202 0 470 7
0 193 200 612 614 0 615 +16 614 1576 0 ?202 616 617 618 616 616 1 16 616 1565 0
 ?196 244 614 618 614 614 1 16 617 1880 0 ?452 614 619 620 0 0 1 31 618 1642 0 6
14 620 621 0 +-.0556101261286092 .01273641911842478 -.0029 0 0 -1 -1 0 0 .004 30
 620 1973 0 617 622 618 0 +-.0555951603744129 .01452830302193688 .00618187183868
936 .0777325481035135 -.01780313012597415 .996815278536125 31 621 1641 0 244 618
 623 0 +-.0556101261286092 .01273641911842478 -.004 0 0 -1 -1 0 0 .0029 16 244 1
578 0 ?241 624 616 621 0 0 1 38 623 1639 0 624 621 625 0 +366 626 627 628 629 63
0 16 624 1575 0 ?193 631 244 623 631 631 1 38 625 1638 0 632 623 633 0 +312 626
 634 635 636 637 50 366 88 0 236 638 418 639 +-.060252773110764 .012004415703754
5 .0065 -.223250116010952 -.974761194191222 0 .974761194191222 -.223250116010952
 0 52 255 626 1631 0 640 641 642 643 --.0556101261286092 .01273641911842478 -.00
29 0 0 1 .004 .707106781186547 .707106781186548 1 0 0 40 7 627 0 1 7 .0031062995
0174303 .372786715174661 ??-.0478016379839901 .00915272507626015 .00169158600565
134 -.0551848271599345 .01084370113263468 -.00496008747968135 -.055826571994447
 .01099068032057128 -.00514089432859501 -.0564952528051509 .0111438286706016 -.0
0507796993218459 -.0573603535904948 .0113419632002075 -.00466218779246568 -.0607
737578041432 .0121237371272272 -.001700146992181835 -.0641999896792667 .01290844
898092014 .00169158600565133 41 1 628 L?-.0478016379839901 .00915272507626015 .0
0169158600565134 41 1 629 L?-.0641999896792667 .01290844898092014 .0016915860056
5133 204 28 630 4 .0127735236086259 -.00480841399434866 5.85291476073309 .004591
58600565134 .00519916670978524 -.01146008747968134 4.93342049414066 -.0020600874
79681345 .00454080562777179 -.011640894328595 4.58903324619961 -.002240894328595
005 .00385481113528608 -.0115779699321846 4.20512053843356 -.002177969932184585
 .002967310903948225 -.01116218779246568 3.81433552921302 -.00176218779246568 -.
000534474183506501 -.00820014699218184 3.259693796154635 .001199853007818162 -.0
0404941907005003 -.00480841399434867 3.12156825302175 .00459158600565133 14 640
 1624 644 ?225 645 646 5 626 -645 645 225 645 22 50 641 1958 0 647 648 626 0 +-.
0575728712643372 .00954176101414766 -.004 -.971656851293928 .2225391265746795 .0
797452222828892 -.223250116010952 -.974761194191222 0 50 642 1414 0 434 626 649
 0 +-.0556101261286092 .01273641911842478 -.004 0 0 -1 -1 0 0 141 643 623 650 65
0 626 141 650 625 643 643 626 14 434 1486 651 ?556 242 652 5 642 +0 0 556 242 22
 50 649 1413 0 600 642 653 0 +-.0556101261286092 .01273641911842478 -.0024 0 0 -
1 -1 0 0 14 600 1382 654 ?613 655 594 5 649 -0 0 613 655 22 51 653 1411 0 613 64
9 435 0 --.0556101261286092 .01273641911842478 -.004 0 0 1 .004 1 0 0 14 613 139
3 656 ?645 600 603 5 653 -0 0 645 600 22 50 435 1302 0 242 653 657 0 +-.05561012
61286092 .01273641911842478 -.004 0 0 1 1 0 0 50 657 1301 0 655 435 658 0 +-.055
6101261286092 .01273641911842478 -.0024 0 0 1 1 0 0 14 655 1292 659 ?600 660 661
 5 657 +0 0 600 660 22 51 658 1299 0 660 657 662 0 --.0556101261286092 .01273641
911842478 -.004 0 0 1 .004 1 0 0 14 660 1281 663 ?655 664 665 5 658 -0 0 655 664
 22 51 662 1167 0 664 658 666 0 --.0556101261286092 .01273641911842478 -.0024 0
 0 1 .0028 1 0 0 14 664 1149 667 ?660 668 669 5 662 -0 0 660 668 22 50 666 1165
 0 668 662 330 0 +-.0544396294702371 .01426365111545066 -.0024 .974761194191222
 -.223250116010951 0 .223250116010951 .974761194191222 0 14 668 1141 670 ?664 44
5 671 5 666 -0 0 664 445 22 50 330 1053 0 445 666 322 0 +-.0567806227869814 .011
2091871213989 -.0024 -.974761194191222 .223250116010951 0 -.223250116010951 -.97
4761194191222 0 14 445 1035 672 ?668 329 438 5 330 -0 0 668 329 22 81 1 672 2526
 423 445 673 0 670 674 675 14 329 1027 674 ?445 326 587 5 322 -0 0 445 326 22 81
 1 674 2527 423 329 676 0 672 677 678 14 326 822 677 ?329 321 552 5 305 -321 321
 329 321 22 81 1 677 2528 423 326 679 0 674 680 681 80 255 1 423 682 683 9000 1
 1 1 1 1 1 1 1 0 FFFFTFTFFFFFFF1 81 1 679 2417 684 326 0 677 685 676 686 81 1 68
0 2529 423 327 687 0 677 688 689 82 255 1 681 -40566629 14 327 590 680 ?321 690
 691 5 339 +0 0 321 690 22 81 1 687 2415 684 327 0 680 692 685 693 81 1 688 2530
 423 690 692 0 680 694 695 82 1 689 -2019032933 14 690 569 688 ?327 565 696 5 35
1 +0 0 327 565 22 81 1 692 2414 684 690 0 688 697 687 698 81 1 694 2531 423 565
 697 0 688 699 700 82 1 695 -2020999013 14 565 548 694 ?690 427 562 5 374 +0 0 6
90 427 22 81 1 697 2413 684 565 0 694 701 692 702 81 1 699 2532 423 427 701 0 69
4 703 704 82 1 700 -2022965093 14 427 527 699 ?565 317 705 5 319 +0 0 565 317 22
 81 1 701 2412 684 427 0 699 706 697 707 81 1 703 2533 423 416 708 0 699 709 710
 82 1 704 -2024931173 14 416 279 703 ?412 571 575 5 382 +0 0 412 571 22 81 1 708
 2408 684 416 0 703 711 712 713 81 1 709 2534 423 568 714 0 703 715 716 82 1 710
 -505544549 14 568 81 709 ?236 449 560 5 638 +0 0 236 449 22 81 1 714 2405 684 5
68 0 709 717 718 719 81 1 715 2535 423 720 721 0 709 722 723 82 1 716 1785462939
 14 720 85 715 ?449 331 724 5 418 +0 0 449 331 22 81 1 721 2403 684 720 0 715 72
5 717 726 81 1 722 2536 423 571 711 0 715 727 728 82 1 723 1785725083 14 571 43
 722 ?416 236 570 5 332 +0 0 416 236 22 81 1 711 2407 684 571 0 722 718 708 729
 81 1 727 2537 423 236 718 0 722 730 731 82 1 728 1784414349 14 236 83 727 ?571
 568 27 5 366 +0 0 571 568 22 81 1 718 2406 684 236 0 727 714 711 732 81 1 730 2
538 423 645 733 0 727 734 735 82 1 731 1744437466 14 645 1612 730 ?640 613 470 5
 626 -640 640 640 613 22 81 1 733 2426 684 645 0 730 736 737 738 81 1 734 2539 4
23 225 739 0 730 740 741 82 1 735 -154992426 14 225 1851 734 ?647 640 220 5 648
 -0 0 647 640 22 81 1 739 2428 684 225 0 734 737 742 743 81 1 740 2540 423 647 7
42 0 734 744 745 82 1 741 -97517351 14 647 1943 740 ?746 225 747 5 641 -0 0 746
 225 22 81 1 742 2429 684 647 0 740 739 748 749 81 1 744 2541 423 746 748 0 740
 750 751 82 1 745 -106364711 14 746 2153 744 ?752 647 753 5 754 +0 0 752 647 22
 81 1 748 2430 684 746 0 744 742 755 756 81 1 750 2542 423 752 755 0 744 757 758
 82 1 751 -40763175 14 752 2174 750 ?0 746 759 5 19 +0 0 0 746 22 81 1 755 2431
 684 752 0 750 748 0 760 81 1 757 2543 423 556 761 0 750 762 763 82 1 758 -38797
095 14 556 1095 757 ?331 434 549 5 323 -331 331 331 434 22 81 1 761 2401 684 556
 0 757 764 725 765 81 1 762 2544 423 331 725 0 757 766 767 82 1 763 -239206191 1
4 331 987 762 ?720 556 584 5 323 -556 556 720 556 22 81 1 725 2402 684 331 0 762
 761 721 768 81 1 766 2545 423 449 717 0 762 0 769 82 1 767 -241368879 14 449 79
 766 ?568 720 448 5 312 +0 0 568 720 22 81 1 717 2404 684 449 0 766 721 714 770
 82 1 769 1748893914 80 1 684 0 771 8001 0 0 0 0 3 5 0 0 0 FFFFTFTFFFFFFF2 83 25
5 3 770 .501960784313726 1 1 79 255 15 771 SDL/TYSA_COLOUR50 312 86 0 449 332 63
8 772 +-.0594713977047257 .0154160798834238 .0065 .223250116010952 .974761194191
222 0 -.974761194191222 .223250116010952 0 50 332 65 0 571 323 312 0 +-.05561012
61286092 .01273641911842478 .0075 0 0 1 1 0 0 51 638 87 0 568 312 366 0 +-.05561
01261286092 .01273641911842478 .0065 0 0 1 .0047 1 0 0 141 772 303 773 774 312 1
41 773 625 774 772 312 141 774 344 772 773 312 83 3 768 .501960784313726 1 1 81
 1 764 2400 684 434 0 651 775 761 776 83 3 765 .501960784313726 1 1 81 1 651 251
9 423 434 764 0 644 654 777 81 1 775 2399 684 242 0 432 431 764 778 83 3 776 .50
1960784313726 1 1 81 1 432 2517 423 242 775 0 430 644 779 81 1 431 2398 684 16 0
 430 0 775 780 83 3 778 .501960784313726 1 1 83 3 780 .501960784313726 1 1 81 1
 644 2518 423 640 737 0 432 651 781 82 1 779 -148111144 81 1 737 2427 684 640 0
 644 733 739 782 82 1 781 -162463530 83 3 782 .501960784313726 1 1 81 1 654 2520
 423 600 783 0 651 656 784 82 1 777 -158334760 81 1 783 2424 684 600 0 654 785 7
36 786 81 1 656 2521 423 613 736 0 654 659 787 82 1 784 -184745772 81 1 736 2425
 684 613 0 656 783 733 788 81 1 659 2522 423 655 785 0 656 663 789 82 1 787 -192
085802 81 1 785 2423 684 655 0 659 790 783 791 81 1 663 2523 423 660 790 0 659 6
67 792 82 1 789 -204996396 81 1 790 2422 684 660 0 663 793 785 794 81 1 667 2524
 423 664 793 0 663 670 795 82 1 792 -203816746 81 1 793 2421 684 664 0 667 796 7
90 797 81 1 670 2525 423 668 796 0 667 672 798 82 1 795 -247856940 81 1 796 2420
 684 668 0 670 673 793 799 82 1 798 -247332646 81 1 673 2419 684 445 0 672 676 7
96 800 83 3 799 .501960784313726 1 1 81 1 676 2418 684 329 0 674 679 673 801 83
 3 800 .501960784313726 1 1 83 3 801 .501960784313726 1 1 83 3 797 .501960784313
726 1 1 83 3 794 .501960784313726 1 1 83 3 791 .501960784313726 1 1 83 3 788 .50
1960784313726 1 1 83 3 786 .501960784313726 1 1 83 3 760 .501960784313726 1 1 15
 759 2175 0 802 752 0 51 19 2186 0 752 754 6 0 +-.0762758466708058 .015674189441
61795 .00179872407968909 .223250116010951 .974761194191222 -1183141066723616e-29
 .02 -.974761194191222 .223250116010951 0 51 754 2165 0 746 339 19 0 +-.03494440
558641265 .00979864879523159 .00179872407968898 -.223250116010951 -.974761194191
222 -1183141066723616e-29 .02 .974761194191222 -.223250116010951 0 51 339 602 0
 327 351 754 803 +-.0589824736529958 .0142586780237242 .0065 0 0 1 .001 1 0 0 51
 351 581 0 690 374 339 804 +-.059308848325389 .0128336513715539 .0065 0 0 1 .001
 1 0 0 141 803 333 803 803 339 51 374 560 0 565 319 351 805 +-.0522377786042226
 .01121416021312536 .0065 0 0 1 .001 1 0 0 141 804 311 804 804 351 51 319 539 0
 427 304 374 806 +-.0519114039318294 .01263918686529564 .0065 0 0 1 .001 1 0 0 1
41 805 365 805 805 374 141 806 389 806 806 319 17 802 0 759 807 446 53 52 464 0
 0 -17 807 0 759 46 802 41 55 441 0 0 -17 446 0 759 802 46 50 443 447 0 0 -17 52
 0 27 29 808 50 802 464 0 439 +17 29 0 27 25 52 37 439 288 0 0 +17 808 0 27 52 8
09 53 214 619 0 802 -17 439 0 438 443 436 50 29 288 0 446 -17 809 0 27 808 472 2
12 205 606 0 0 -17 214 0 747 211 55 212 808 619 0 810 +16 619 2062 0 ?214 617 22
9 622 0 0 1 16 229 2086 0 ?217 619 226 811 0 0 1 30 622 1974 0 619 811 620 0 +-.
0563765357804512 .0111166388422676 .00618187183868936 -.0777325481035135 .017803
13012597415 -.996815278536125 30 811 1977 0 229 240 622 0 +-.0548977954501107 .0
1436858513289884 .00687536186560317 .0777325481035136 -.0178031301259742 -.99681
5278536125 30 240 1978 0 226 812 811 0 +-.0556791708561491 .01095692095322956 .0
0687536186560317 -.0777325481035136 .0178031301259742 .996815278536125 30 812 19
79 0 233 234 240 0 +-.0575728712643372 .00954176101414766 -.004 .223250116010952
 .974761194191222 0 16 233 1887 0 ?211 226 223 812 0 0 1 30 234 1990 0 223 0 812
 0 +-.0552334443982782 .00900596073572137 -.004 .223250116010952 .97476119419122
2 0 17 211 0 747 452 214 209 810 233 0 450 +15 747 1946 0 452 647 0 17 452 0 747
 55 211 41 450 617 0 807 +17 810 0 652 205 813 212 211 233 0 809 -17 450 0 448 8
14 43 209 452 617 0 813 -17 814 0 448 615 450 68 813 611 0 0 -17 813 0 652 810 4
71 209 814 611 0 0 +15 652 1768 0 810 434 0 17 471 0 652 813 205 68 469 468 0 81
4 -16 611 1481 0 ?813 610 606 608 0 0 1 16 606 1724 0 ?205 611 602 633 0 0 1 30
 608 1424 0 611 633 597 0 +-.055999247380943 .01462085130106818 -.004 .974761194
191221 -.2232501160109555 0 30 633 1426 0 606 625 608 0 +-.0567806227869814 .011
2091871213989 -.004 -.974761194191221 .223250116010955 0 17 205 0 652 471 810 20
3 809 606 0 469 +17 615 0 448 187 814 200 70 596 0 604 -17 187 0 448 601 615 185
 604 610 0 599 +17 70 0 470 469 202 68 615 596 0 471 +16 596 1569 0 ?70 592 632
 625 632 632 1 16 632 1571 0 ?199 596 631 625 596 596 1 17 199 0 646 196 243 197
 815 632 0 816 +16 631 1573 0 ?67 632 624 623 624 624 1 17 67 0 646 243 196 65 2
37 631 0 241 +15 646 1626 0 199 640 0 17 243 0 646 199 67 206 241 244 0 815 -17
 196 0 646 67 199 194 816 616 0 237 +17 237 0 27 181 235 194 67 631 0 817 -17 18
1 0 27 261 237 175 817 245 0 260 +17 817 0 665 816 260 194 181 245 0 0 -15 665 1
284 0 817 660 0 17 816 0 665 184 817 197 196 616 0 818 -17 260 0 665 817 184 175
 819 257 0 820 +17 184 0 665 260 816 182 818 248 0 256 +17 819 0 661 821 820 182
 260 257 0 0 -17 820 0 661 819 267 175 261 250 0 0 -15 661 1294 0 267 655 0 17 2
67 0 661 820 821 166 822 265 0 261 +17 261 0 27 73 181 166 820 250 0 0 +17 821 0
 661 267 819 174 256 254 0 0 -17 822 0 669 173 177 174 267 265 0 821 -15 669 115
2 0 270 664 0 17 173 0 669 270 822 171 179 275 0 550 +17 177 0 669 822 270 166 7
3 273 0 267 -17 270 0 669 177 173 71 550 264 0 546 +17 550 0 549 555 546 171 270
 264 0 539 -17 539 0 448 179 553 171 555 525 0 0 +17 179 0 448 256 539 174 173 2
75 0 822 -17 553 0 448 539 508 152 118 406 0 555 -17 508 0 448 553 823 116 824 5
06 0 0 +17 118 0 552 121 154 116 553 406 0 825 +16 406 749 0 ?118 536 400 344 0
 0 1 17 121 0 552 142 118 119 825 400 0 559 +17 825 0 417 824 492 116 121 400 0
 508 -15 417 689 0 825 412 0 17 824 0 417 572 825 107 508 506 0 0 -17 492 0 417
 825 572 119 826 490 0 0 +17 572 0 417 492 824 92 109 514 0 826 -17 826 0 705 56
9 559 92 492 490 0 0 -15 705 668 0 559 427 0 17 569 0 705 561 826 98 94 493 0 53
2 -17 559 0 705 826 561 119 142 394 0 492 -17 561 0 705 559 569 140 100 501 0 0
 -16 394 751 0 ?142 400 388 389 0 0 1 17 109 0 570 528 94 107 572 514 0 823 +17
 528 0 570 479 109 104 823 526 0 0 +17 823 0 448 508 106 107 528 526 0 824 -17 1
06 0 448 823 582 104 583 509 0 477 +17 583 0 428 475 477 134 106 509 0 0 -17 477
 0 428 583 91 104 479 518 0 528 -15 428 675 0 475 317 0 17 479 0 570 88 528 89 4
77 518 0 827 +17 88 0 570 538 479 86 827 499 0 828 +17 827 0 691 478 829 89 88 4
99 0 0 -15 691 637 0 474 327 0 17 478 0 691 474 827 137 91 473 0 0 -17 829 0 691
 827 474 86 487 485 0 0 -17 474 0 691 829 478 77 139 336 0 487 -17 487 0 724 580
 828 77 829 485 0 0 +15 724 742 0 580 720 0 17 580 0 724 85 487 143 79 299 0 830
 -17 828 0 724 487 85 86 538 536 0 829 -17 85 0 724 828 580 83 830 481 0 831 +17
 538 0 570 82 88 83 828 536 0 0 +17 82 0 570 115 538 80 831 497 0 577 +17 115 0
 570 535 82 113 577 516 0 574 +17 831 0 696 830 578 83 82 497 0 538 -15 696 648
 0 579 690 0 17 830 0 696 579 831 143 85 481 0 0 -17 578 0 696 831 579 80 480 47
6 0 0 -17 579 0 696 578 830 131 145 349 0 480 -17 79 0 328 139 145 77 580 299 0
 474 +17 475 0 428 91 583 137 136 301 0 478 -17 256 0 448 818 179 182 821 254 0
 819 +17 818 0 448 815 256 197 184 248 0 0 -17 815 0 448 232 818 206 199 632 0 0
 -17 232 0 448 228 815 215 208 246 0 0 -17 228 0 448 64 232 47 217 229 0 832 -17
 208 0 230 241 222 206 232 246 0 243 +17 64 0 448 279 228 62 832 458 0 453 +17 8
32 0 753 227 833 47 64 458 0 0 -15 753 2154 0 832 746 0 17 227 0 753 61 832 56 4
9 461 0 0 -17 833 0 753 832 61 62 467 466 0 0 -17 61 0 753 833 227 59 58 239 0 4
67 -17 467 0 671 272 453 59 833 466 0 28 +15 671 1144 0 272 668 0 17 272 0 671 3
6 467 11 28 268 0 0 +17 453 0 671 467 36 62 279 277 0 833 -17 28 0 27 58 25 59 2
72 268 0 0 -17 36 0 671 453 272 26 30 440 0 279 +17 30 0 33 23 31 11 36 440 0 27
2 -17 49 0 220 217 221 47 227 461 0 228 +15 470 1614 0 70 645 0 17 601 0 448 165
 187 162 598 602 0 0 +17 165 0 448 157 601 163 170 293 0 286 +17 157 0 448 582 1
65 155 585 540 0 581 +17 55 0 747 214 452 53 807 441 0 808 +17 472 0 27 809 591
 203 193 624 0 0 -17 193 0 470 202 469 191 472 624 0 612 +17 46 0 759 446 807 44
 43 451 0 443 -83 3 756 .501960784313726 1 1 83 3 749 .501960784313726 1 1 83 3
 743 .501960784313726 1 1 50 648 1964 0 225 0 641 0 +-.0552334443982782 .0090059
6073572137 -.004 .971656851293928 -.2225391265746795 .0797452222828893 .22325011
6010952 .974761194191222 0 83 3 738 .501960784313726 1 1 83 3 732 .5019607843137
26 1 1 83 3 729 .501960784313726 1 1 83 3 726 .501960784313726 1 1 51 418 89 0 7
20 366 382 0 +-.0556101261286092 .01273641911842478 .0065 0 0 1 .0047 1 0 0 83 3
 719 .501960784313726 1 1 81 1 712 2409 684 412 0 414 708 424 834 83 3 713 .5019
60784313726 1 1 81 1 414 2513 423 412 712 0 325 421 835 81 1 424 2410 684 415 0
 421 712 706 836 83 3 834 .501960784313726 1 1 81 1 706 2411 684 317 0 425 424 7
01 837 83 3 836 .501960784313726 1 1 81 1 425 2515 423 317 706 0 421 430 838 83
 3 837 .501960784313726 1 1 82 1 838 -499646309 81 1 325 2512 423 321 685 0 0 41
4 839 82 1 835 -503578469 81 1 685 2416 684 321 0 325 687 679 840 82 1 839 -5570
5445 83 3 840 .501960784313726 1 1 83 3 707 .501960784313726 1 1 83 3 702 .50196
0784313726 1 1 83 3 698 .501960784313726 1 1 83 3 693 .501960784313726 1 1 83 3
 686 .501960784313726 1 1 79 14 683 SWEntUnchanged82 1 678 -259063596 82 1 675 -
259587878 141 639 358 841 842 366 141 841 623 842 639 366 141 842 381 639 841 36
6 40 7 634 0 1 7 .003106299501742755 .3727867151746925 ??-.0634186142732292 .016
3201131605896 .00169158600565218 -.0560354250972841 .01462913710421492 -.0049600
8747968126 -.0553936802627716 .01448215791627832 -.00514089432859499 -.054724999
4520676 .014329009566248 -.00507796993218462 -.0538598986667239 .014130875036642
1 -.00466218779246583 -.0504464944530761 .01334910110962256 -.0017001469921827 -
.0470202625779509 .01256438925592922 .00169158600565217 41 1 635 L?-.06341861427
32292 .0163201131605896 .00169158600565218 41 1 636 L?-.0470202625779509 .012564
38925592922 .00169158600565217 204 28 637 4 .00404941907005089 -.004808413994347
82 2.71132210714332 .00459158600565218 -.003524937828790425 -.01146008747968126
 1.79182784055096 -.002060087479681255 -.0041832989108039 -.011640894328595 1.44
7440592609916 -.002240894328594985 -.00486929340328965 -.01157796993218462 1.063
527884843844 -.00217796993218462 -.0057567936346274 -.01116218779246584 .6727428
75623313 -.001762187792465835 -.00925857872208145 -.0082001469921827 .1181011425
649004 .0011998530078173 -.01277352360862674 -.00480841399434783 6.2631609066115
2 .00459158600565217 17 283 0 594 598 589 162 588 281 0 601 +17 130 0 328 133 14
8 128 543 364 0 429 +17 543 0 27 542 524 146 130 364 0 544 -82 1 433 -20971302 8
2 1 426 -501612389 141 419 373 419 419 382 40 3 408 0 1 3 .000164744270167923 .3
749699904026935 ??-.0527256541014017 .0138710983525661 .0067002 -.05190551455562
08 .0136832613214739 .00650171326961731 -.05145465974355 .0135800017849857 .0065
3439350980654 41 1 409 L?-.0527256541014017 .0138710983525661 .0067002 41 1 410
 L?-.05145465974355 .0135800017849857 .00653439350980654 204 12 411 4 -.00692040
639648267 2002e-7 2.766810482736835 2.06100359448492 -.00776178123851398 1713269
617308925e-21 2.891364706308815 1.615695658225455 -.00822430971703514 3439350980
65431e-19 2.941308835991375 1.369301584508584 40 4 396 0 1 4 615031256020262e-19
 .3555825465275325 ??-.0512308830628705 .01337191556468676 .00658313380949902 -.
0510265814962351 .0131051152476346 .00665006194982815 -.0509215584795756 .012781
33460763574 .00669407114418035 -.0509117545616852 .01261270787796344 .0066999999
9159699 41 1 397 L?-.0512308830628705 .01337191556468676 .00658313380949902 41 1
 398 L?-.0509117545616852 .01261270787796344 .00669999999159699 204 16 399 4 .82
2323064620901 831338094990173e-19 2.997483022851495 1.256770553437698 .484683551
826853 .000150061949828151 3.06132639193991 1.14747174764495 .1426308539016128 .
0001940711441803485 3.132013157537145 1.088302359732418 6.25670322463877 .000199
999991596986 3.16791723451334 1.080839011044942 40 3 390 0 1 3 .0001251521331659
424 .3416523327853145 ??-.0522360351495884 .01016833760531642 .00653439350980654
 -.0529391557431365 .01032937371858676 .00652748461764731 -.0535070295074403 .01
04594341728969 .00670020000000014 41 1 391 L?-.0522360351495884 .010168337605316
42 .00653439350980654 41 1 392 L?-.0535070295074403 .0104594341728969 .006700200
00000014 204 12 393 4 .00822430971703515 343935098065431e-19 3.79217141820275 1.
369301584508582 .00750298371663818 2748461764731385e-20 3.875063502401255 1.7508
58400551455 .00692040639648236 .0002002000000001365 3.966669771457345 2.06100359
4485095 40 2 383 0 1 2 1329211023183098e-20 .0827879089644811 ??-.05194353827899
03 .01025842872636096 .00658323208417222 -.0522364351495884 .01016832188339732 .
00653433046946989 41 1 384 L?-.0519435382789903 .01025842872636096 .006583232084
17222 41 1 385 L?-.0522364351495884 .01016832188339732 .00653433046946989 204 8
 386 4 832320841722169e-19 .0003062345780585625 3.735912363633345 1.256583457776
02 3433046946989085e-20 -209250326066703e-21 3.79223150644225 1.369486957183118
 40 4 375 0 1 4 554717767618451e-19 .3444612745511485 ??-.051326243074886 .01080
293888736876 .00669999998989285 -.05150314934892 .0105356914538935 .006679066752
43618 -.0517516483715712 .01034027383784406 .0066258676339351 -.0519439382789921
 .0102583056931965 .00658314679815257 41 1 376 L?-.051326243074886 .010802938887
36876 .00669999998989285 41 1 377 L?-.0519439382789921 .0102583056931965 .006583
14679815257 204 16 378 4 5.85939179393429 .0001999999898928545 3.56555890239818
 1.080839013175106 5.5375090563042 .000179066752436178 3.63350806097012 1.107684
375803454 5.22004502401208 .000125867633935097 3.697316114201785 1.1835705195396
46 5.01063103888091 831467981525693e-19 3.73598601412989 1.256745819413626 40 3
 367 0 1 3 .0001647442701676955 .3749699904022175 ??-.0584945981558098 .01160173
988428186 .00670020000000317 -.05931473770159 .0117895769153739 .006501713269617
62 -.0597655925136684 .01189283645186386 .00653439350980654 41 1 368 L?-.0584945
981558098 .01160173988428186 .00670020000000317 41 1 369 L?-.0597655925136684 .0
1189283645186386 .00653439350980654 204 12 370 4 .00180369814210038 .00020020000
00031655 5.90840313632532 2.061003594488875 .000962323300069784 1713269617624645
e-21 6.03295735989766 1.615695658229585 .000499794821540719 3439350980654395e-20
 6.08290148958117 1.36930158450858 40 2 359 0 1 2 1330337621068426e-20 .08282244
92659176 ??-.0597651925136684 .0118926047942801 .00653432289030102 -.05998976919
43479 .01210129432423546 .00658324508426273 41 1 360 L?-.0597651925136684 .01189
26047942801 .00653432289030102 41 1 361 L?-.0599897691943479 .01210129432423546
 .00658324508426273 204 8 362 4 3432289030102195e-20 .00072612683498193 6.082829
17488508 1.369509255377868 83245084262727e-18 .000419555464143073 6.139171766916
64 1.25655871622502 40 4 352 0 1 4 615031256020262e-19 .3555825465275335 ??-.059
9893691943479 .0121009226721628 .00658313380949902 -.0601936707609833 .012367722
98921494 .00665006194982815 -.0602986937776428 .0126915036292138 .00669407114418
035 -.0603084976955333 .0128601303588861 .00669999999159699 41 1 353 L?-.0599893
691943479 .0121009226721628 .00658313380949902 41 1 354 L?-.0603084976955333 .01
28601303588861 .00669999999159699 204 16 355 4 3.963915718210705 831338094990164
e-19 6.13907567644129 1.2567705534377 3.62627620541666 .000150061949828149 6.202
9190455297 1.147471747644954 3.284223507491415 .000194071144180348 6.27360581112
693 1.088302359732418 3.11511057104898 .0001999999915969855 .02632458092354715 1
.080839011044942 40 4 340 0 1 4 554717767618451e-19 .344461274551148 ??-.0598940
091823325 .0146698993494808 .00669999998989285 -.0597171029082984 .0149371467829
5606 .00667906675243618 -.0594686038856472 .0151325643990055 .0066258676339351 -
.0592763139782263 .01521453254365305 .00658314679815257 41 1 341 L?-.05989400918
23325 .0146698993494808 .00669999998989285 41 1 342 L?-.0592763139782263 .015214
53254365305 .00658314679815257 204 16 343 4 2.7177991403445 .000199999989892852
 .423966248808387 1.08083901317511 2.39591640271441 .0001790667524361755 .491915
407380328 1.107684375803458 2.07845237042229 .0001258676339350962 .5557234606119
92 1.18357051953965 1.86903838529111 831467981525667e-19 .594393360540099 1.2567
45819413632 141 320 300 320 320 304 40 3 313 0 1 3 .0001251521331659432 .3416523
32785314 ??-.0589842171076301 .01530450063153315 .00653439350980654 -.0582810965
140819 .0151434645182628 .00652748461764731 -.0577132227497784 .0150134040639527
5 .0067002 41 1 314 L?-.0589842171076301 .01530450063153315 .00653439350980654 4
1 1 315 L?-.0577132227497784 .01501340406395275 .0067002 204 12 316 4 -.00049979
4821540719 343935098065431e-19 .650578764612959 1.369301584508582 -.001221120821
93769 2748461764731385e-20 .733470848811464 1.750858400551455 -.0018036981420932
65 .000200200000000029 .825077117867507 2.06100359448496 19 17 95 0 1 0 9 5 S0 8
1 2 18 2362 843 6 0 0 0 0 844 845 80 2 843 846 847 8044 0 0 0 0 3 5 0 0 0 FFFFTF
FFTTFFFF3 2 84 255 6 844 EAKBCC83 2 845 0 3.141592653589795 79 17 847 SDL/TYSA_B
LEND_ID74 4 CI16 index_map_offset0 0 1 dCCZ20 15 9 0 0 766 848 849 18 850 851 13
 755 2 0 0 0 0 0 0 0 0 0 0 0 81 2 848 1448 852 1 0 849 0 0 0 853 81 2 849 1462 8
54 1 848 850 0 0 0 855 81 1 850 2373 856 1 849 851 0 0 857 81 2 851 2393 858 1 8
50 13 0 0 0 859 81 2 13 2396 860 1 851 2 0 0 0 0 80 2 860 861 862 9000 0 0 0 0 3
 5 0 0 0 FFTFFFFFFFFFFF9 1 79 16 862 BODY_RECIPE_200180 2 858 863 864 9000 0 0 0
 0 3 5 0 0 0 FFTFFFFFFFFFFF9 1 82 1 859 1 79 24 864 BODY_IN_LIGHTWEIGHT_PERM80 1
 856 865 866 9000 1 1 1 1 1 1 1 1 0 FFTFFFFFFFFFFF1 82 1 857 615943 79 10 866 BO
DY_MATCH80 2 854 867 868 9000 0 0 0 0 3 5 0 0 0 FFTFFFFFFFFFFF9 1 82 1 855 122 7
9 30 868 LAST_BODY_MODIFYING_FEATURE_ID80 2 852 869 870 9000 0 0 0 0 3 5 0 0 0 F
FTFFFFFFFFFFT9 1 82 1 853 175 79 19 870 ENT_TIME_STAMP_200180 2 12 871 872 9000
 0 0 0 0 3 5 0 0 0 FFTFFFFFFFFFFF9 1 82 1 14 106 79 12 872 ATOM_ID_20011 0 
