**ABCDEFGHIJKLMNOPQRSTUVWXYZabcdefghijklmnopqrstuvwxyz**************************
**PARASOLID !"#$%&'()*+,-./:;<=>?@[\]^_`{|}~0123456789**************************
**PART1;
MC=AMD64;
MC_MODEL=Intel64 Family 6 Model 78 Stepping 3, GenuineIntel;
MC_ID=unknown;
OS=Windows_NT;
OS_RELEASE=unknown;
FRU=Parasolid Version 31.1, build 290,  3- 9-2020;
APPL=SOLIDWORKS 2020-2020128;
SITE=;
USER=unknown;
FORMAT=text;
GUISE=transmit;
KEY=Z10xM0.8x2.2;
FILE=Z10xM0.8x2.2.x_t;
DATE=Sun Nov 29 01:17:25 2020;
**PART2;
SCH=SCH_3101290_31100;
USFLD_SIZE=0;
**PART3;
**END_OF_HEADER*****************************************************************
T51 : TRANSMIT FILE created by modeller version 310129023 SCH_3101290_31100_1300
6222 0 12 34 CCCCCCI4 mesh1006 0 I8 polyline1008 0 CCCCCCCDI5 owner1040 0 CCCCCC
I13 boundary_mesh1006 0 I17 boundary_polyline1008 0 CCCA16 index_map_offset0 0 1
 dA9 index_map82 0 A17 node_id_index_map82 0 A20 schema_embedding_map82 0 A5 chi
ld12 0 A14 lowest_node_id0 0 1 dA16 mesh_offset_data206 0 Z1 4770 2 3 0 0 0 0 0
 0 1e3 1e-8 0 4 0 1 0 1 1 5 6 7 8 0 0 9 10 11 0 0 0 0 0 0 0 81 255 2 2 4727 12 1
 13 0 0 0 0 14 70 11 CI9 list_type0 0 1 uI10 notransmit0 0 1 lCCCDCCDI12 finger_
index0 0 1 dI12 finger_block1012 0 CZ3 0 4 T1 0 0 9 20 1 15 15 13 255 5 29 0 1 0
 16 0 0 17 0 50 255 6 22 0 18 19 0 0 +0 0 -.003 0 0 1 1 0 0 31 255 7 71 0 20 21
 0 0 +0 0 -.003 0 0 1 1 0 0 9e-4 29 255 8 275 0 11 22 0 -.0020525056458141 .0043
39034520939105 .003 19 8 CCCCCCCA5 owner12 0 Z9 7 0 1 17 0 23 V0 16 255 10 52 0
 ?24 0 20 21 0 0 1 18 255 11 273 0 25 0 26 8 ?1 17 255 25 0 27 28 29 11 30 31 0
 32 -18 26 105 0 33 11 34 22 ?1 17 33 0 35 36 37 26 38 39 0 40 +18 34 800 0 28 2
6 41 42 ?1 29 22 107 0 26 42 8 -.000904303163320391 .00285941196556368 -.003 29
 42 1142 0 34 43 22 -.0020525056458141 .004339034520939105 -.003 29 43 1143 0 41
 44 42 -.000904303163320391 .00285941196556368 .003 18 41 722 0 36 34 45 43 ?1 2
9 44 1144 0 46 47 43 3283655426806165e-20 .00299882022814037 .003 18 46 724 0 48
 49 50 44 ?1 29 47 1145 0 50 51 44 .000700636829482194 .00474859011004037 .003 1
8 50 726 0 52 46 53 47 ?1 29 51 1146 0 53 54 47 .000889908552081744 .00471678521
547588 .003 18 53 728 0 55 50 56 51 ?1 29 54 1147 0 56 57 51 .000949123556393706
 .00284484893706127 .003 18 56 730 0 58 53 59 54 ?1 29 57 1148 0 59 60 54 .00178
92276348168 .002406795685306075 .003 18 59 732 0 61 56 62 57 ?1 29 60 1149 0 62
 63 57 .00335797833779965 .003429866102760925 .003 18 62 734 0 64 59 65 60 ?1 29
 63 1150 0 65 66 60 .003492407929961635 .00329288427533389 .003 18 65 736 0 67 6
2 68 63 ?1 29 66 1151 0 68 69 63 .002440017337088625 .00174365030746047 .003 18
 68 738 0 70 65 71 66 ?1 29 69 1152 0 71 72 66 .00286219457247615 .0008954569946
61458 .003 18 71 740 0 73 68 74 69 ?1 29 72 1153 0 74 75 69 .00473268625456359 .
000801049821087931 .003 18 74 742 0 76 71 77 72 ?1 29 75 1154 0 77 78 72 .004760
92618117584 .000611213463034417 .003 18 77 744 0 79 74 80 75 ?1 29 78 1155 0 80
 81 75 .0029989074281547 -2356347509602335e-20 .003 18 80 746 0 82 77 83 78 ?1 2
9 81 1156 0 83 84 78 .002841900465865085 -.000957915832480003 .003 18 83 748 0 8
5 80 86 81 ?1 29 84 1157 0 86 87 81 .00429966888017366 -.00213374026555863 .003
 18 86 750 0 88 83 89 84 ?1 29 87 1158 0 89 90 84 .00421093244911011 -.002303920
117762675 .003 18 89 752 0 91 86 92 87 ?1 29 90 1159 0 92 93 87 .002412316810780
21 -.001781776811058895 .003 18 92 754 0 94 89 95 90 ?1 29 93 1160 0 95 96 90 .0
01736096973937715 -.00244539736997575 .003 18 95 756 0 97 92 98 93 ?1 29 96 1161
 0 98 99 93 .002224324133927595 -.004253514093926015 .003 18 98 758 0 100 95 101
 96 ?1 29 99 1162 0 101 102 96 .00205250564581415 -.00433903452093908 .003 18 10
1 760 0 103 98 104 99 ?1 29 102 1163 0 104 105 99 .000904303163320429 -.00285941
196556366 .003 18 104 762 0 106 101 107 102 ?1 29 105 1164 0 107 108 102 -328365
542680213e-19 -.002998820228140355 .003 18 107 764 0 109 104 110 105 ?1 29 108 1
165 0 110 111 105 -.000700636829482142 -.00474859011004036 .003 18 110 766 0 112
 107 113 108 ?1 29 111 1166 0 113 114 108 -.00088990855208176 -.0047167852154758
6 .003 18 113 768 0 115 110 116 111 ?1 29 114 1167 0 116 117 111 -.0009491235563
93708 -.002844848937061245 .003 18 116 770 0 118 113 119 114 ?1 29 117 1168 0 11
9 120 114 -.0017892276348168 -.00240679568530605 .003 18 119 772 0 121 116 122 1
17 ?1 29 120 1169 0 122 123 117 -.00335797833779966 -.003429866102760885 .003 18
 122 774 0 124 119 125 120 ?1 29 123 1170 0 125 126 120 -.00349240792996164 -.00
329288427533385 .003 18 125 776 0 127 122 128 123 ?1 29 126 1171 0 128 129 123 -
.002440017337088625 -.00174365030746044 .003 18 128 778 0 130 125 131 126 ?1 29
 129 1172 0 131 132 126 -.00286219457247614 -.000895456994661423 .003 18 131 780
 0 133 128 134 129 ?1 29 132 1173 0 134 135 129 -.00473268625456358 -.0008010498
21087879 .003 18 134 782 0 136 131 137 132 ?1 29 135 1174 0 137 138 132 -.004760
92618117583 -.000611213463034371 .003 18 137 784 0 139 134 140 135 ?1 29 138 117
5 0 140 141 135 -.002998907428154685 235634750960575e-19 .003 18 140 786 0 142 1
37 143 138 ?1 29 141 1176 0 143 144 138 -.00284190046586506 .000957915832480036
 .003 18 143 788 0 145 140 146 141 ?1 29 144 1177 0 146 147 141 -.00429966888017
363 .002133740265558675 .003 18 146 790 0 148 143 149 144 ?1 29 147 1178 0 149 1
50 144 -.004210932449110075 .00230392011776272 .003 18 149 792 0 151 146 152 147
 ?1 29 150 1179 0 152 153 147 -.002412316810780185 .001781776811058925 .003 18 1
52 794 0 154 149 155 150 ?1 29 153 1180 0 155 156 150 -.00173609697393768 .00244
5397369975775 .003 18 155 796 0 157 152 158 153 ?1 29 156 1181 0 158 159 153 -.0
0222432413392755 .00425351409392604 .003 18 158 798 0 29 155 0 156 ?1 29 159 118
3 0 45 160 156 3283655426806165e-20 .00299882022814037 -.003 18 45 725 0 37 41 1
61 159 ?1 29 160 1184 0 161 162 159 .000700636829482194 .00474859011004037 -.003
 18 161 727 0 163 45 164 160 ?1 29 162 1185 0 164 165 160 .000889908552081744 .0
0471678521547588 -.003 18 164 729 0 166 161 167 162 ?1 29 165 1186 0 167 168 162
 .000949123556393706 .00284484893706127 -.003 18 167 731 0 169 164 170 165 ?1 29
 168 1187 0 170 171 165 .0017892276348168 .002406795685306075 -.003 18 170 733 0
 172 167 173 168 ?1 29 171 1188 0 173 174 168 .00335797833779965 .00342986610276
0925 -.003 18 173 735 0 175 170 176 171 ?1 29 174 1189 0 176 177 171 .0034924079
29961635 .00329288427533389 -.003 18 176 737 0 178 173 179 174 ?1 29 177 1190 0
 179 180 174 .002440017337088625 .00174365030746047 -.003 18 179 739 0 181 176 1
82 177 ?1 29 180 1191 0 182 183 177 .00286219457247615 .000895456994661458 -.003
 18 182 741 0 184 179 185 180 ?1 29 183 1192 0 185 186 180 .00473268625456359 .0
00801049821087931 -.003 18 185 743 0 187 182 188 183 ?1 29 186 1193 0 188 189 18
3 .00476092618117584 .000611213463034417 -.003 18 188 745 0 190 185 191 186 ?1 2
9 189 1194 0 191 192 186 .0029989074281547 -2356347509602335e-20 -.003 18 191 74
7 0 193 188 194 189 ?1 29 192 1195 0 194 195 189 .002841900465865085 -.000957915
832480003 -.003 18 194 749 0 196 191 197 192 ?1 29 195 1196 0 197 198 192 .00429
966888017366 -.00213374026555863 -.003 18 197 751 0 199 194 200 195 ?1 29 198 11
97 0 200 201 195 .00421093244911011 -.002303920117762675 -.003 18 200 753 0 202
 197 203 198 ?1 29 201 1198 0 203 204 198 .00241231681078021 -.00178177681105889
5 -.003 18 203 755 0 205 200 206 201 ?1 29 204 1199 0 206 207 201 .0017360969739
37715 -.00244539736997575 -.003 18 206 757 0 208 203 209 204 ?1 29 207 1200 0 20
9 210 204 .002224324133927595 -.004253514093926015 -.003 18 209 759 0 211 206 21
2 207 ?1 29 210 1201 0 212 213 207 .00205250564581415 -.00433903452093908 -.003
 18 212 761 0 214 209 215 210 ?1 29 213 1202 0 215 216 210 .000904303163320429 -
.00285941196556366 -.003 18 215 763 0 217 212 218 213 ?1 29 216 1203 0 218 219 2
13 -328365542680213e-19 -.002998820228140355 -.003 18 218 765 0 220 215 221 216
 ?1 29 219 1204 0 221 222 216 -.000700636829482142 -.00474859011004036 -.003 18
 221 767 0 223 218 224 219 ?1 29 222 1205 0 224 225 219 -.00088990855208176 -.00
471678521547586 -.003 18 224 769 0 226 221 227 222 ?1 29 225 1206 0 227 228 222
 -.000949123556393708 -.002844848937061245 -.003 18 227 771 0 229 224 230 225 ?1
 29 228 1207 0 230 231 225 -.0017892276348168 -.00240679568530605 -.003 18 230 7
73 0 232 227 233 228 ?1 29 231 1208 0 233 234 228 -.00335797833779966 -.00342986
6102760885 -.003 18 233 775 0 235 230 236 231 ?1 29 234 1209 0 236 237 231 -.003
49240792996164 -.00329288427533385 -.003 18 236 777 0 238 233 239 234 ?1 29 237
 1210 0 239 240 234 -.002440017337088625 -.00174365030746044 -.003 18 239 779 0
 241 236 242 237 ?1 29 240 1211 0 242 243 237 -.00286219457247614 -.000895456994
661423 -.003 18 242 781 0 244 239 245 240 ?1 29 243 1212 0 245 246 240 -.0047326
8625456358 -.000801049821087879 -.003 18 245 783 0 247 242 248 243 ?1 29 246 121
3 0 248 249 243 -.00476092618117583 -.000611213463034371 -.003 18 248 785 0 250
 245 251 246 ?1 29 249 1214 0 251 252 246 -.002998907428154685 235634750960575e-
19 -.003 18 251 787 0 253 248 254 249 ?1 29 252 1215 0 254 255 249 -.00284190046
586506 .000957915832480036 -.003 18 254 789 0 256 251 257 252 ?1 29 255 1216 0 2
57 258 252 -.00429966888017363 .002133740265558675 -.003 18 257 791 0 259 254 26
0 255 ?1 29 258 1217 0 260 261 255 -.004210932449110075 .00230392011776272 -.003
 18 260 793 0 262 257 263 258 ?1 29 261 1218 0 263 264 258 -.002412316810780185
 .001781776811058925 -.003 18 263 795 0 265 260 266 261 ?1 29 264 1219 0 266 267
 261 -.00173609697393768 .002445397369975775 -.003 18 266 797 0 268 263 49 264 ?
1 29 267 1220 0 49 0 264 -.00222432413392755 .00425351409392604 -.003 18 49 799
 0 269 266 46 267 ?1 17 269 0 270 271 272 49 29 273 0 274 -15 255 270 966 0 272
 275 0 17 271 0 270 157 269 266 276 277 0 278 +17 272 0 270 269 157 158 279 280
 0 30 -17 29 0 27 25 274 158 269 273 0 272 +16 273 713 0 ?29 281 282 283 0 0 1 1
7 274 0 27 29 28 49 284 285 0 276 +15 27 970 0 25 286 0 17 28 0 27 274 25 34 32
 282 0 287 -17 284 0 288 289 276 34 274 285 0 0 -16 285 448 0 ?274 277 290 291 0
 0 1 17 276 0 288 284 278 49 271 277 0 0 -15 288 265 0 38 18 0 17 278 0 288 276
 292 266 293 294 0 0 -16 277 451 0 ?271 294 285 295 0 0 1 16 294 454 0 ?293 296
 277 297 0 0 1 31 295 1138 0 277 291 297 0 +-.000727728504000371 .00368765057638
5925 -.003 0 0 1 1 0 0 .0016 31 291 1139 0 285 298 295 0 +0 0 -.003 0 0 1 1 0 0
 .0048 31 297 1137 0 294 295 299 0 +0 0 -.003 0 0 1 1 0 0 .002999 31 299 1136 0
 296 297 300 0 +-.003673313181616725 .000796947814360988 -.003 0 0 1 1 0 0 .0016
 16 296 457 0 ?301 302 294 299 0 0 1 31 300 1135 0 302 299 303 0 +0 0 -.003 0 0
 1 1 0 0 .0048 16 302 460 0 ?304 305 296 300 0 0 1 31 303 1134 0 305 300 306 0 +
-.00275629135143484 .00255562390328849 -.003 0 0 1 1 0 0 .0016 16 305 463 0 ?307
 308 302 303 0 0 1 31 306 1133 0 308 303 309 0 +0 0 -.003 0 0 1 1 0 0 .002999 16
 308 466 0 ?310 311 305 306 0 0 1 31 309 1132 0 311 306 312 0 +-.003440206961717
54 -.001514374989757855 -.003 0 0 1 1 0 0 .0016 16 311 469 0 ?313 314 308 309 0
 0 1 31 312 1131 0 314 309 315 0 +0 0 -.003 0 0 1 1 0 0 .0048 16 314 472 0 ?316
 317 311 312 0 0 1 31 315 1130 0 317 312 318 0 +-.00373204458551857 .00044743576
15965305 -.003 0 0 1 1 0 0 .0016 16 317 475 0 ?319 320 314 315 0 0 1 31 318 1129
 0 320 315 321 0 +0 0 -.003 0 0 1 1 0 0 .002999 16 320 478 0 ?322 323 317 318 0
 0 1 31 321 1128 0 323 318 324 0 +-.001893058610776255 -.003247258019501965 -.00
3 0 0 1 1 0 0 .0016 16 323 481 0 ?325 326 320 321 0 0 1 31 324 1127 0 326 321 32
7 0 +0 0 -.003 0 0 1 1 0 0 .0048 16 326 484 0 ?328 329 323 324 0 0 1 31 327 1126
 0 329 324 330 0 +-.003282283635464215 -.00183165763324311 -.003 0 0 1 1 0 0 .00
16 16 329 487 0 ?331 332 326 327 0 0 1 31 330 1125 0 332 327 333 0 +0 0 -.003 0
 0 1 1 0 0 .002999 16 332 490 0 ?334 335 329 330 0 0 1 31 333 1124 0 335 330 336
 0 +.000377173786785912 -.003739798856036985 -.003 0 0 1 1 0 0 .0016 16 335 493
 0 ?337 338 332 333 0 0 1 31 336 1123 0 338 333 339 0 +0 0 -.003 0 0 1 1 0 0 .00
48 16 338 496 0 ?340 341 335 336 0 0 1 31 339 1122 0 341 336 342 0 +-.0015788018
97380085 -.003411120067937065 -.003 0 0 1 1 0 0 .0016 16 341 499 0 ?343 344 338
 339 0 0 1 31 342 1121 0 344 339 345 0 +0 0 -.003 0 0 1 1 0 0 .002999 16 344 502
 0 ?346 347 341 342 0 0 1 31 345 1120 0 347 342 348 0 +.002503338617461365 -.002
803863640653845 -.003 0 0 1 1 0 0 .0016 16 347 505 0 ?349 350 344 345 0 0 1 31 3
48 1119 0 350 345 351 0 +0 0 -.003 0 0 1 1 0 0 .0048 16 350 508 0 ?352 353 347 3
48 0 0 1 31 351 1118 0 353 348 354 0 +.000727728504000415 -.003687650576385905 -
.003 0 0 1 1 0 0 .0016 16 353 511 0 ?355 356 350 351 0 0 1 31 354 1117 0 356 351
 357 0 +0 0 -.003 0 0 1 1 0 0 .002999 16 356 514 0 ?358 359 353 354 0 0 1 31 357
 1116 0 359 354 360 0 +.00367331318161675 -.000796947814360949 -.003 0 0 1 1 0 0
 .0016 16 359 517 0 ?361 362 356 357 0 0 1 31 360 1115 0 362 357 363 0 +0 0 -.00
3 0 0 1 1 0 0 .0048 16 362 520 0 ?364 365 359 360 0 0 1 31 363 1114 0 365 360 36
6 0 +.002756291351434875 -.00255562390328846 -.003 0 0 1 1 0 0 .0016 16 365 523
 0 ?367 368 362 363 0 0 1 31 366 1113 0 368 363 369 0 +0 0 -.003 0 0 1 1 0 0 .00
2999 16 368 526 0 ?370 371 365 366 0 0 1 31 369 1112 0 371 366 372 0 +.003440206
96171755 .00151437498975789 -.003 0 0 1 1 0 0 .0016 16 371 529 0 ?373 374 368 36
9 0 0 1 31 372 1111 0 374 369 375 0 +0 0 -.003 0 0 1 1 0 0 .0048 16 374 532 0 ?3
76 377 371 372 0 0 1 31 375 1110 0 377 372 378 0 +.003732044585518595 -.00044743
57615964885 -.003 0 0 1 1 0 0 .0016 16 377 535 0 ?379 380 374 375 0 0 1 31 378 1
109 0 380 375 381 0 +0 0 -.003 0 0 1 1 0 0 .002999 16 380 538 0 ?382 383 377 378
 0 0 1 31 381 1108 0 383 378 384 0 +.00189305861077625 .003247258019501995 -.003
 0 0 1 1 0 0 .0016 16 383 541 0 ?385 386 380 381 0 0 1 31 384 1107 0 386 381 387
 0 +0 0 -.003 0 0 1 1 0 0 .0048 16 386 544 0 ?388 389 383 384 0 0 1 31 387 1106
 0 389 384 390 0 +.00328228363546422 .00183165763324315 -.003 0 0 1 1 0 0 .0016
 16 389 547 0 ?391 392 386 387 0 0 1 31 390 1105 0 392 387 393 0 +0 0 -.003 0 0
 1 1 0 0 .002999 16 392 550 0 ?394 395 389 390 0 0 1 31 393 1104 0 395 390 396 0
 +-.000377173786785921 .003739798856036995 -.003 0 0 1 1 0 0 .0016 16 395 553 0
 ?397 398 392 393 0 0 1 31 396 1103 0 398 393 399 0 +0 0 -.003 0 0 1 1 0 0 .0048
 16 398 556 0 ?400 401 395 396 0 0 1 31 399 1102 0 401 396 402 0 +.0015788018973
8013 .00341112006793707 -.003 0 0 1 1 0 0 .0016 16 401 439 0 ?403 404 398 399 0
 0 1 31 402 1101 0 405 399 406 0 +0 0 .003 0 0 1 1 0 0 .002999 16 405 562 0 ?407
 408 0 402 0 0 1 31 406 1100 0 408 402 409 0 +-.00250333861746133 .0028038636406
53875 .003 0 0 1 1 0 0 .0016 16 408 718 0 ?410 31 405 406 0 0 1 31 409 1099 0 31
 406 411 0 +0 0 .003 0 0 1 1 0 0 .0048 16 31 714 0 ?30 280 408 409 0 0 1 31 411
 1098 0 280 409 412 0 +-.000727728504000371 .003687650576385925 .003 0 0 1 1 0 0
 .0016 16 280 710 0 ?279 413 31 411 0 0 1 31 412 1097 0 413 411 414 0 +0 0 .003
 0 0 1 1 0 0 .002999 16 413 706 0 ?415 416 280 412 0 0 1 31 414 1096 0 416 412 4
17 0 +-.003673313181616725 .000796947814360988 .003 0 0 1 1 0 0 .0016 16 416 702
 0 ?418 419 413 414 0 0 1 31 417 1095 0 419 414 420 0 +0 0 .003 0 0 1 1 0 0 .004
8 16 419 698 0 ?421 422 416 417 0 0 1 31 420 1094 0 422 417 423 0 +-.00275629135
143484 .00255562390328849 .003 0 0 1 1 0 0 .0016 16 422 694 0 ?424 425 419 420 0
 0 1 31 423 1093 0 425 420 426 0 +0 0 .003 0 0 1 1 0 0 .002999 16 425 690 0 ?427
 428 422 423 0 0 1 31 426 1092 0 428 423 429 0 +-.00344020696171754 -.0015143749
89757855 .003 0 0 1 1 0 0 .0016 16 428 686 0 ?430 431 425 426 0 0 1 31 429 1091
 0 431 426 432 0 +0 0 .003 0 0 1 1 0 0 .0048 16 431 682 0 ?433 434 428 429 0 0 1
 31 432 1090 0 434 429 435 0 +-.00373204458551857 .0004474357615965305 .003 0 0
 1 1 0 0 .0016 16 434 678 0 ?436 437 431 432 0 0 1 31 435 1089 0 437 432 438 0 +
0 0 .003 0 0 1 1 0 0 .002999 16 437 674 0 ?439 440 434 435 0 0 1 31 438 1088 0 4
40 435 441 0 +-.001893058610776255 -.003247258019501965 .003 0 0 1 1 0 0 .0016 1
6 440 670 0 ?442 443 437 438 0 0 1 31 441 1087 0 443 438 444 0 +0 0 .003 0 0 1 1
 0 0 .0048 16 443 666 0 ?445 446 440 441 0 0 1 31 444 1086 0 446 441 447 0 +-.00
3282283635464215 -.00183165763324311 .003 0 0 1 1 0 0 .0016 16 446 662 0 ?448 44
9 443 444 0 0 1 31 447 1085 0 449 444 450 0 +0 0 .003 0 0 1 1 0 0 .002999 16 449
 658 0 ?451 452 446 447 0 0 1 31 450 1084 0 452 447 453 0 +.000377173786785912 -
.003739798856036985 .003 0 0 1 1 0 0 .0016 16 452 654 0 ?454 455 449 450 0 0 1 3
1 453 1083 0 455 450 456 0 +0 0 .003 0 0 1 1 0 0 .0048 16 455 650 0 ?457 458 452
 453 0 0 1 31 456 1082 0 458 453 459 0 +-.001578801897380085 -.00341112006793706
5 .003 0 0 1 1 0 0 .0016 16 458 646 0 ?460 461 455 456 0 0 1 31 459 1081 0 461 4
56 462 0 +0 0 .003 0 0 1 1 0 0 .002999 16 461 642 0 ?463 464 458 459 0 0 1 31 46
2 1080 0 464 459 465 0 +.002503338617461365 -.002803863640653845 .003 0 0 1 1 0
 0 .0016 16 464 638 0 ?466 467 461 462 0 0 1 31 465 1079 0 467 462 468 0 +0 0 .0
03 0 0 1 1 0 0 .0048 16 467 634 0 ?469 470 464 465 0 0 1 31 468 1078 0 470 465 4
71 0 +.000727728504000415 -.003687650576385905 .003 0 0 1 1 0 0 .0016 16 470 630
 0 ?472 473 467 468 0 0 1 31 471 1077 0 473 468 474 0 +0 0 .003 0 0 1 1 0 0 .002
999 16 473 626 0 ?475 476 470 471 0 0 1 31 474 1076 0 476 471 477 0 +.0036733131
8161675 -.000796947814360949 .003 0 0 1 1 0 0 .0016 16 476 622 0 ?478 479 473 47
4 0 0 1 31 477 1075 0 479 474 480 0 +0 0 .003 0 0 1 1 0 0 .0048 16 479 618 0 ?48
1 482 476 477 0 0 1 31 480 1074 0 482 477 483 0 +.002756291351434875 -.002555623
90328846 .003 0 0 1 1 0 0 .0016 16 482 614 0 ?484 485 479 480 0 0 1 31 483 1073
 0 485 480 486 0 +0 0 .003 0 0 1 1 0 0 .002999 16 485 610 0 ?487 488 482 483 0 0
 1 31 486 1072 0 488 483 489 0 +.00344020696171755 .00151437498975789 .003 0 0 1
 1 0 0 .0016 16 488 606 0 ?490 491 485 486 0 0 1 31 489 1071 0 491 486 492 0 +0
 0 .003 0 0 1 1 0 0 .0048 16 491 602 0 ?493 494 488 489 0 0 1 31 492 1070 0 494
 489 495 0 +.003732044585518595 -.0004474357615964885 .003 0 0 1 1 0 0 .0016 16
 494 598 0 ?496 497 491 492 0 0 1 31 495 1069 0 497 492 498 0 +0 0 .003 0 0 1 1
 0 0 .002999 16 497 594 0 ?499 500 494 495 0 0 1 31 498 1068 0 500 495 501 0 +.0
0189305861077625 .003247258019501995 .003 0 0 1 1 0 0 .0016 16 500 590 0 ?502 50
3 497 498 0 0 1 31 501 1067 0 503 498 504 0 +0 0 .003 0 0 1 1 0 0 .0048 16 503 5
86 0 ?505 506 500 501 0 0 1 31 504 1066 0 506 501 507 0 +.00328228363546422 .001
83165763324315 .003 0 0 1 1 0 0 .0016 16 506 582 0 ?508 509 503 504 0 0 1 31 507
 1065 0 509 504 510 0 +0 0 .003 0 0 1 1 0 0 .002999 16 509 578 0 ?511 512 506 50
7 0 0 1 31 510 1064 0 512 507 513 0 +-.000377173786785921 .003739798856036995 .0
03 0 0 1 1 0 0 .0016 16 512 574 0 ?514 515 509 510 0 0 1 31 513 1063 0 515 510 5
16 0 +0 0 .003 0 0 1 1 0 0 .0048 16 515 570 0 ?517 518 512 513 0 0 1 31 516 1062
 0 518 513 519 0 +.00157880189738013 .00341112006793707 .003 0 0 1 1 0 0 .0016 1
6 518 566 0 ?520 39 515 516 0 0 1 30 255 519 1061 0 521 516 522 0 +3283655426806
165e-20 .00299882022814037 -.003 0 0 1 16 521 565 0 ?48 20 523 519 0 0 1 30 522
 1060 0 523 519 524 0 +.000700636829482194 .00474859011004037 -.003 0 0 1 16 523
 569 0 ?52 521 525 522 0 0 1 30 524 1059 0 525 522 526 0 +.000889908552081744 .0
0471678521547588 -.003 0 0 1 16 525 573 0 ?55 523 527 524 0 0 1 30 526 1058 0 52
7 524 528 0 +.000949123556393706 .00284484893706127 -.003 0 0 1 16 527 577 0 ?58
 525 529 526 0 0 1 30 528 1057 0 529 526 530 0 +.0017892276348168 .0024067956853
06075 -.003 0 0 1 16 529 581 0 ?61 527 531 528 0 0 1 30 530 1056 0 531 528 532 0
 +.00335797833779965 .003429866102760925 -.003 0 0 1 16 531 585 0 ?64 529 533 53
0 0 0 1 30 532 1055 0 533 530 534 0 +.003492407929961635 .00329288427533389 -.00
3 0 0 1 16 533 589 0 ?67 531 535 532 0 0 1 30 534 1054 0 535 532 536 0 +.0024400
17337088625 .00174365030746047 -.003 0 0 1 16 535 593 0 ?70 533 537 534 0 0 1 30
 536 1053 0 537 534 538 0 +.00286219457247615 .000895456994661458 -.003 0 0 1 16
 537 597 0 ?73 535 539 536 0 0 1 30 538 1052 0 539 536 540 0 +.00473268625456359
 .000801049821087931 -.003 0 0 1 16 539 601 0 ?76 537 541 538 0 0 1 30 540 1051
 0 541 538 542 0 +.00476092618117584 .000611213463034417 -.003 0 0 1 16 541 605
 0 ?79 539 543 540 0 0 1 30 542 1050 0 543 540 544 0 +.0029989074281547 -2356347
509602335e-20 -.003 0 0 1 16 543 609 0 ?82 541 545 542 0 0 1 30 544 1049 0 545 5
42 546 0 +.002841900465865085 -.000957915832480003 -.003 0 0 1 16 545 613 0 ?85
 543 547 544 0 0 1 30 546 1048 0 547 544 548 0 +.00429966888017366 -.00213374026
555863 -.003 0 0 1 16 547 617 0 ?88 545 549 546 0 0 1 30 548 1047 0 549 546 550
 0 +.00421093244911011 -.002303920117762675 -.003 0 0 1 16 549 621 0 ?91 547 551
 548 0 0 1 30 550 1046 0 551 548 552 0 +.00241231681078021 -.001781776811058895
 -.003 0 0 1 16 551 625 0 ?94 549 553 550 0 0 1 30 552 1045 0 553 550 554 0 +.00
1736096973937715 -.00244539736997575 -.003 0 0 1 16 553 629 0 ?97 551 555 552 0
 0 1 30 554 1044 0 555 552 556 0 +.002224324133927595 -.004253514093926015 -.003
 0 0 1 16 555 633 0 ?100 553 557 554 0 0 1 30 556 1043 0 557 554 558 0 +.0020525
0564581415 -.00433903452093908 -.003 0 0 1 16 557 637 0 ?103 555 559 556 0 0 1 3
0 558 1042 0 559 556 560 0 +.000904303163320429 -.00285941196556366 -.003 0 0 1
 16 559 641 0 ?106 557 561 558 0 0 1 30 560 1041 0 561 558 562 0 +-3283655426802
13e-19 -.002998820228140355 -.003 0 0 1 16 561 645 0 ?109 559 563 560 0 0 1 30 5
62 1040 0 563 560 564 0 +-.000700636829482142 -.00474859011004036 -.003 0 0 1 16
 563 649 0 ?112 561 565 562 0 0 1 30 564 1039 0 565 562 566 0 +-.000889908552081
76 -.00471678521547586 -.003 0 0 1 16 565 653 0 ?115 563 567 564 0 0 1 30 566 10
38 0 567 564 568 0 +-.000949123556393708 -.002844848937061245 -.003 0 0 1 16 567
 657 0 ?118 565 569 566 0 0 1 30 568 1037 0 569 566 570 0 +-.0017892276348168 -.
00240679568530605 -.003 0 0 1 16 569 661 0 ?121 567 571 568 0 0 1 30 570 1036 0
 571 568 572 0 +-.00335797833779966 -.003429866102760885 -.003 0 0 1 16 571 665
 0 ?124 569 573 570 0 0 1 30 572 1035 0 573 570 574 0 +-.00349240792996164 -.003
29288427533385 -.003 0 0 1 16 573 669 0 ?127 571 575 572 0 0 1 30 574 1034 0 575
 572 576 0 +-.002440017337088625 -.00174365030746044 -.003 0 0 1 16 575 673 0 ?1
30 573 577 574 0 0 1 30 576 1033 0 577 574 578 0 +-.00286219457247614 -.00089545
6994661423 -.003 0 0 1 16 577 677 0 ?133 575 579 576 0 0 1 30 578 1032 0 579 576
 580 0 +-.00473268625456358 -.000801049821087879 -.003 0 0 1 16 579 681 0 ?136 5
77 581 578 0 0 1 30 580 1031 0 581 578 582 0 +-.00476092618117583 -.000611213463
034371 -.003 0 0 1 16 581 685 0 ?139 579 583 580 0 0 1 30 582 1030 0 583 580 584
 0 +-.002998907428154685 235634750960575e-19 -.003 0 0 1 16 583 689 0 ?142 581 5
85 582 0 0 1 30 584 1029 0 585 582 586 0 +-.00284190046586506 .00095791583248003
6 -.003 0 0 1 16 585 693 0 ?145 583 587 584 0 0 1 30 586 1028 0 587 584 588 0 +-
.00429966888017363 .002133740265558675 -.003 0 0 1 16 587 697 0 ?148 585 589 586
 0 0 1 30 588 1027 0 589 586 590 0 +-.004210932449110075 .00230392011776272 -.00
3 0 0 1 16 589 701 0 ?151 587 591 588 0 0 1 30 590 1026 0 591 588 592 0 +-.00241
2316810780185 .001781776811058925 -.003 0 0 1 16 591 705 0 ?154 589 281 590 0 0
 1 30 592 1025 0 281 590 283 0 +-.00173609697393768 .002445397369975775 -.003 0
 0 1 16 281 709 0 ?157 591 273 592 0 0 1 30 283 1024 0 273 592 593 0 +-.00222432
413392755 .00425351409392604 -.003 0 0 1 30 593 1023 0 282 283 594 0 +-.00205250
56458141 .004339034520939105 -.003 0 0 1 16 282 717 0 ?32 273 404 593 0 0 1 30 5
94 1022 0 404 593 21 0 +-.000904303163320391 .00285941196556368 -.003 0 0 1 16 4
04 721 0 ?36 282 401 594 0 0 1 31 21 72 0 10 594 7 0 +0 0 .003 0 0 1 1 0 0 9e-4
 17 36 0 35 595 33 41 40 404 0 596 +15 35 818 0 595 597 0 17 595 0 35 37 36 46 4
07 405 0 520 -17 40 0 598 287 596 26 36 404 0 289 -17 596 0 598 40 32 41 410 408
 0 407 -15 598 974 0 596 599 0 17 32 0 598 596 287 11 28 282 0 410 +17 410 0 600
 30 407 11 596 408 0 0 +17 407 0 600 410 520 41 595 405 0 0 +15 600 271 0 520 16
 0 17 520 0 600 407 517 46 601 518 0 0 +17 517 0 600 520 514 50 602 515 0 0 +17
 601 0 603 163 48 50 520 518 0 517 -15 603 822 0 601 604 0 17 163 0 603 403 601
 161 52 523 0 400 -17 48 0 603 601 403 46 37 521 0 595 +17 403 0 603 48 163 45 6
05 401 0 38 +17 37 0 35 33 595 45 48 521 0 403 -17 605 0 288 606 38 161 403 401
 0 0 -17 38 0 288 605 289 45 33 39 0 0 -17 289 0 288 38 284 26 287 290 0 0 -16 3
9 442 0 ?33 290 518 607 0 0 1 16 290 445 0 ?287 285 39 298 0 0 1 31 607 1141 0 3
9 0 298 0 +0 0 -.003 0 0 1 1 0 0 .002999 31 298 1140 0 290 607 291 0 +-.00250333
861746133 .002803863640653875 -.003 0 0 1 1 0 0 .0016 17 287 0 598 32 40 34 289
 290 0 284 +17 606 0 288 608 605 164 400 398 0 0 -17 608 0 288 609 606 167 397 3
95 0 0 -17 400 0 610 52 166 161 606 398 0 605 +15 610 826 0 602 611 0 17 52 0 61
0 602 400 50 163 523 0 601 +17 166 0 610 400 602 164 55 525 0 397 -17 602 0 610
 166 52 53 517 515 0 514 -17 55 0 612 613 397 53 166 525 0 602 +17 397 0 612 55
 169 164 608 395 0 606 +15 612 830 0 613 614 0 17 169 0 612 397 613 167 58 527 0
 394 -17 613 0 612 169 55 56 514 512 0 511 -17 58 0 615 616 394 56 169 527 0 613
 +17 394 0 615 58 172 167 609 392 0 608 +15 615 834 0 616 617 0 17 172 0 615 394
 616 170 61 529 0 391 -17 609 0 288 618 608 170 394 392 0 0 -17 618 0 288 619 60
9 173 391 389 0 0 -17 619 0 288 620 618 176 388 386 0 0 -17 391 0 621 61 175 170
 618 389 0 609 +15 621 838 0 622 623 0 17 61 0 621 622 391 59 172 529 0 616 +17
 175 0 621 391 622 173 64 531 0 388 -17 622 0 621 175 61 62 508 506 0 505 -17 64
 0 624 625 388 62 175 531 0 622 +17 388 0 624 64 178 173 619 386 0 618 +15 624 8
42 0 625 626 0 17 178 0 624 388 625 176 67 533 0 385 -17 625 0 624 178 64 65 505
 503 0 502 -17 67 0 627 628 385 65 178 533 0 625 +17 385 0 627 67 181 176 620 38
3 0 619 +15 627 846 0 628 629 0 17 181 0 627 385 628 179 70 535 0 382 -17 620 0
 288 630 619 179 385 383 0 0 -17 630 0 288 631 620 182 382 380 0 0 -17 631 0 288
 632 630 185 379 377 0 0 -17 382 0 633 70 184 179 630 380 0 620 +15 633 850 0 63
4 635 0 17 70 0 633 634 382 68 181 535 0 628 +17 184 0 633 382 634 182 73 537 0
 379 -17 634 0 633 184 70 71 499 497 0 496 -17 73 0 636 637 379 71 184 537 0 634
 +17 379 0 636 73 187 182 631 377 0 630 +15 636 854 0 637 638 0 17 187 0 636 379
 637 185 76 539 0 376 -17 637 0 636 187 73 74 496 494 0 493 -17 76 0 639 640 376
 74 187 539 0 637 +17 376 0 639 76 190 185 632 374 0 631 +15 639 858 0 640 641 0
 17 190 0 639 376 640 188 79 541 0 373 -17 632 0 288 642 631 188 376 374 0 0 -17
 642 0 288 643 632 191 373 371 0 0 -17 643 0 288 644 642 194 370 368 0 0 -17 373
 0 645 79 193 188 642 371 0 632 +15 645 862 0 646 647 0 17 79 0 645 646 373 77 1
90 541 0 640 +17 193 0 645 373 646 191 82 543 0 370 -17 646 0 645 193 79 80 490
 488 0 487 -17 82 0 648 649 370 80 193 543 0 646 +17 370 0 648 82 196 191 643 36
8 0 642 +15 648 866 0 649 650 0 17 196 0 648 370 649 194 85 545 0 367 -17 649 0
 648 196 82 83 487 485 0 484 -17 85 0 651 652 367 83 196 545 0 649 +17 367 0 651
 85 199 194 644 365 0 643 +15 651 870 0 652 653 0 17 199 0 651 367 652 197 88 54
7 0 364 -17 644 0 288 654 643 197 367 365 0 0 -17 654 0 288 655 644 200 364 362
 0 0 -17 655 0 288 656 654 203 361 359 0 0 -17 364 0 657 88 202 197 654 362 0 64
4 +15 657 874 0 658 659 0 17 88 0 657 658 364 86 199 547 0 652 +17 202 0 657 364
 658 200 91 549 0 361 -17 658 0 657 202 88 89 481 479 0 478 -17 91 0 660 661 361
 89 202 549 0 658 +17 361 0 660 91 205 200 655 359 0 654 +15 660 878 0 661 662 0
 17 205 0 660 361 661 203 94 551 0 358 -17 661 0 660 205 91 92 478 476 0 475 -17
 94 0 663 664 358 92 205 551 0 661 +17 358 0 663 94 208 203 656 356 0 655 +15 66
3 882 0 664 665 0 17 208 0 663 358 664 206 97 553 0 355 -17 656 0 288 666 655 20
6 358 356 0 0 -17 666 0 288 667 656 209 355 353 0 0 -17 667 0 288 668 666 212 35
2 350 0 0 -17 355 0 669 97 211 206 666 353 0 656 +15 669 886 0 670 671 0 17 97 0
 669 670 355 95 208 553 0 664 +17 211 0 669 355 670 209 100 555 0 352 -17 670 0
 669 211 97 98 472 470 0 469 -17 100 0 672 673 352 98 211 555 0 670 +17 352 0 67
2 100 214 209 667 350 0 666 +15 672 890 0 673 674 0 17 214 0 672 352 673 212 103
 557 0 349 -17 673 0 672 214 100 101 469 467 0 466 -17 103 0 675 676 349 101 214
 557 0 673 +17 349 0 675 103 217 212 668 347 0 667 +15 675 894 0 676 677 0 17 21
7 0 675 349 676 215 106 559 0 346 -17 668 0 288 678 667 215 349 347 0 0 -17 678
 0 288 679 668 218 346 344 0 0 -17 679 0 288 680 678 221 343 341 0 0 -17 346 0 6
81 106 220 215 678 344 0 668 +15 681 898 0 682 683 0 17 106 0 681 682 346 104 21
7 559 0 676 +17 220 0 681 346 682 218 109 561 0 343 -17 682 0 681 220 106 107 46
3 461 0 460 -17 109 0 684 685 343 107 220 561 0 682 +17 343 0 684 109 223 218 67
9 341 0 678 +15 684 902 0 685 686 0 17 223 0 684 343 685 221 112 563 0 340 -17 6
85 0 684 223 109 110 460 458 0 457 -17 112 0 687 688 340 110 223 563 0 685 +17 3
40 0 687 112 226 221 680 338 0 679 +15 687 906 0 688 689 0 17 226 0 687 340 688
 224 115 565 0 337 -17 680 0 288 690 679 224 340 338 0 0 -17 690 0 288 691 680 2
27 337 335 0 0 -17 691 0 288 692 690 230 334 332 0 0 -17 337 0 693 115 229 224 6
90 335 0 680 +15 693 910 0 694 695 0 17 115 0 693 694 337 113 226 565 0 688 +17
 229 0 693 337 694 227 118 567 0 334 -17 694 0 693 229 115 116 454 452 0 451 -17
 118 0 696 697 334 116 229 567 0 694 +17 334 0 696 118 232 227 691 332 0 690 +15
 696 914 0 697 698 0 17 232 0 696 334 697 230 121 569 0 331 -17 697 0 696 232 11
8 119 451 449 0 448 -17 121 0 699 700 331 119 232 569 0 697 +17 331 0 699 121 23
5 230 692 329 0 691 +15 699 918 0 700 701 0 17 235 0 699 331 700 233 124 571 0 3
28 -17 692 0 288 702 691 233 331 329 0 0 -17 702 0 288 703 692 236 328 326 0 0 -
17 703 0 288 704 702 239 325 323 0 0 -17 328 0 705 124 238 233 702 326 0 692 +15
 705 922 0 706 707 0 17 124 0 705 706 328 122 235 571 0 700 +17 238 0 705 328 70
6 236 127 573 0 325 -17 706 0 705 238 124 125 445 443 0 442 -17 127 0 708 709 32
5 125 238 573 0 706 +17 325 0 708 127 241 236 703 323 0 702 +15 708 926 0 709 71
0 0 17 241 0 708 325 709 239 130 575 0 322 -17 709 0 708 241 127 128 442 440 0 4
39 -17 130 0 711 712 322 128 241 575 0 709 +17 322 0 711 130 244 239 704 320 0 7
03 +15 711 930 0 712 713 0 17 244 0 711 322 712 242 133 577 0 319 -17 704 0 288
 714 703 242 322 320 0 0 -17 714 0 288 715 704 245 319 317 0 0 -17 715 0 288 716
 714 248 316 314 0 0 -17 319 0 717 133 247 242 714 317 0 704 +15 717 934 0 718 7
19 0 17 133 0 717 718 319 131 244 577 0 712 +17 247 0 717 319 718 245 136 579 0
 316 -17 718 0 717 247 133 134 436 434 0 433 -17 136 0 720 721 316 134 247 579 0
 718 +17 316 0 720 136 250 245 715 314 0 714 +15 720 938 0 721 722 0 17 250 0 72
0 316 721 248 139 581 0 313 -17 721 0 720 250 136 137 433 431 0 430 -17 139 0 72
3 724 313 137 250 581 0 721 +17 313 0 723 139 253 248 716 311 0 715 +15 723 942
 0 724 725 0 17 253 0 723 313 724 251 142 583 0 310 -17 716 0 288 726 715 251 31
3 311 0 0 -17 726 0 288 727 716 254 310 308 0 0 -17 727 0 288 728 726 257 307 30
5 0 0 -17 310 0 729 142 256 251 726 308 0 716 +15 729 946 0 730 731 0 17 142 0 7
29 730 310 140 253 583 0 724 +17 256 0 729 310 730 254 145 585 0 307 -17 730 0 7
29 256 142 143 427 425 0 424 -17 145 0 732 733 307 143 256 585 0 730 +17 307 0 7
32 145 259 254 727 305 0 726 +15 732 950 0 733 734 0 17 259 0 732 307 733 257 14
8 587 0 304 -17 733 0 732 259 145 146 424 422 0 421 -17 148 0 735 736 304 146 25
9 587 0 733 +17 304 0 735 148 262 257 728 302 0 727 +15 735 954 0 736 737 0 17 2
62 0 735 304 736 260 151 589 0 301 -17 728 0 288 292 727 260 304 302 0 0 -17 292
 0 288 278 728 263 301 296 0 0 -17 301 0 738 151 265 260 292 296 0 728 +15 738 9
58 0 739 740 0 17 151 0 738 739 301 149 262 589 0 736 +17 265 0 738 301 739 263
 154 591 0 293 -17 739 0 738 265 151 152 418 416 0 415 -17 154 0 741 742 293 152
 265 591 0 739 +17 293 0 741 154 268 263 278 294 0 292 +15 741 962 0 742 743 0 1
7 268 0 741 293 742 266 157 281 0 271 -17 742 0 741 268 154 155 415 413 0 279 -1
7 157 0 270 272 271 155 268 281 0 742 +17 415 0 600 418 279 152 742 413 0 0 +17
 279 0 600 415 30 155 272 280 0 0 +17 30 0 600 279 410 158 25 31 0 0 +17 418 0 6
00 421 415 149 739 416 0 0 +17 421 0 600 424 418 146 736 419 0 0 +17 424 0 600 4
27 421 143 733 422 0 0 +17 736 0 735 262 148 149 421 419 0 418 -17 427 0 600 430
 424 140 730 425 0 0 +17 430 0 600 433 427 137 724 428 0 0 +17 433 0 600 436 430
 134 721 431 0 0 +17 724 0 723 253 139 140 430 428 0 427 -17 436 0 600 439 433 1
31 718 434 0 0 +17 439 0 600 442 436 128 712 437 0 0 +17 442 0 600 445 439 125 7
09 440 0 0 +17 712 0 711 244 130 131 439 437 0 436 -17 445 0 600 448 442 122 706
 443 0 0 +17 448 0 600 451 445 119 700 446 0 0 +17 451 0 600 454 448 116 697 449
 0 0 +17 700 0 699 235 121 122 448 446 0 445 -17 454 0 600 457 451 113 694 452 0
 0 +17 457 0 600 460 454 110 688 455 0 0 +17 460 0 600 463 457 107 685 458 0 0 +
17 688 0 687 226 112 113 457 455 0 454 -17 463 0 600 466 460 104 682 461 0 0 +17
 466 0 600 469 463 101 676 464 0 0 +17 469 0 600 472 466 98 673 467 0 0 +17 676
 0 675 217 103 104 466 464 0 463 -17 472 0 600 475 469 95 670 470 0 0 +17 475 0
 600 478 472 92 664 473 0 0 +17 478 0 600 481 475 89 661 476 0 0 +17 664 0 663 2
08 94 95 475 473 0 472 -17 481 0 600 484 478 86 658 479 0 0 +17 484 0 600 487 48
1 83 652 482 0 0 +17 487 0 600 490 484 80 649 485 0 0 +17 652 0 651 199 85 86 48
4 482 0 481 -17 490 0 600 493 487 77 646 488 0 0 +17 493 0 600 496 490 74 640 49
1 0 0 +17 496 0 600 499 493 71 637 494 0 0 +17 640 0 639 190 76 77 493 491 0 490
 -17 499 0 600 502 496 68 634 497 0 0 +17 502 0 600 505 499 65 628 500 0 0 +17 5
05 0 600 508 502 62 625 503 0 0 +17 628 0 627 181 67 68 502 500 0 499 -17 508 0
 600 511 505 59 622 506 0 0 +17 511 0 600 514 508 56 616 509 0 0 +17 514 0 600 5
17 511 53 613 512 0 0 +17 616 0 615 172 58 59 511 509 0 508 -14 255 743 959 744
 ?275 740 741 5 745 +0 0 275 740 23 81 1 744 4728 746 743 747 0 0 748 749 14 275
 963 748 ?286 743 270 5 750 +0 0 286 743 23 14 740 955 751 ?743 737 738 5 752 +0
 0 743 737 23 51 255 745 984 0 743 752 750 0 +0 0 -.003 0 0 1 .002999 1 0 0 13 2
3 8 0 0 0 0 0 0 9 16 14 16 432 753 ?18 0 754 5 19 +0 0 18 0 23 81 1 753 4731 746
 16 755 0 751 756 757 14 18 267 756 ?758 16 759 5 6 -0 0 758 16 23 15 754 43 0 7
60 16 600 50 19 2 0 16 761 6 0 +0 0 .003 0 0 1 1 0 0 51 761 68 0 758 762 19 0 -0
 0 .003 0 0 -1 9e-4 -1 0 0 14 758 55 763 ?597 18 764 5 761 +0 0 597 18 23 51 762
 980 0 597 765 761 0 +0 0 -.003 0 0 1 .002999 1 0 0 14 597 815 766 ?604 758 35 5
 762 +0 0 604 758 23 51 765 981 0 599 767 762 0 +-.00250333861746133 .0028038636
40653875 -.003 0 0 1 .0016 1 0 0 14 599 971 768 ?0 286 598 5 765 +0 0 0 286 23 5
1 767 982 0 286 750 765 0 +0 0 -.003 0 0 1 .0048 1 0 0 14 286 967 769 ?599 275 2
7 5 767 +0 0 599 275 23 51 750 983 0 275 745 767 0 +-.000727728504000371 .003687
650576385925 -.003 0 0 1 .0016 1 0 0 81 1 769 4736 746 286 770 0 768 771 772 80
 255 1 746 773 774 9000 1 1 1 1 1 1 1 1 0 FFFFTFTFFFFFFF1 81 1 770 4638 775 286
 0 769 776 777 778 81 1 768 4735 746 599 777 0 766 769 779 81 1 771 4737 746 737
 780 0 769 781 782 82 255 1 772 -1564278494 14 737 951 771 ?740 734 735 5 783 +0
 0 740 734 23 81 1 780 4634 775 737 0 771 784 785 786 81 1 781 4738 746 734 784
 0 771 787 788 82 1 782 -1564802782 14 734 947 781 ?737 731 732 5 789 +0 0 737 7
31 23 81 1 784 4633 775 734 0 781 790 780 791 81 1 787 4739 746 731 790 0 781 79
2 793 82 1 788 -1564933854 14 731 943 787 ?734 725 729 5 794 +0 0 734 725 23 81
 1 790 4632 775 731 0 787 795 784 796 81 1 792 4740 746 725 795 0 787 797 798 82
 1 793 -1565064926 14 725 939 792 ?731 722 723 5 799 +0 0 731 722 23 81 1 795 46
31 775 725 0 792 800 790 801 81 1 797 4741 746 722 800 0 792 802 803 82 1 798 -1
565195998 14 722 935 797 ?725 719 720 5 804 +0 0 725 719 23 81 1 800 4630 775 72
2 0 797 805 795 806 81 1 802 4742 746 719 805 0 797 807 808 82 1 803 -1565327070
 14 719 931 802 ?722 713 717 5 809 +0 0 722 713 23 81 1 805 4629 775 719 0 802 8
10 800 811 81 1 807 4743 746 713 810 0 802 812 813 82 1 808 -1565458142 14 713 9
27 807 ?719 710 711 5 814 +0 0 719 710 23 81 1 810 4628 775 713 0 807 815 805 81
6 81 1 812 4744 746 710 815 0 807 817 818 82 1 813 -1565589214 14 710 923 812 ?7
13 707 708 5 819 +0 0 713 707 23 81 1 815 4627 775 710 0 812 820 810 821 81 1 81
7 4745 746 707 820 0 812 822 823 82 1 818 -1565720286 14 707 919 817 ?710 701 70
5 5 824 +0 0 710 701 23 81 1 820 4626 775 707 0 817 825 815 826 81 1 822 4746 74
6 701 825 0 817 827 828 82 1 823 -1565851358 14 701 915 822 ?707 698 699 5 829 +
0 0 707 698 23 81 1 825 4625 775 701 0 822 830 820 831 81 1 827 4747 746 698 830
 0 822 832 833 82 1 828 -1565982430 14 698 911 827 ?701 695 696 5 834 +0 0 701 6
95 23 81 1 830 4624 775 698 0 827 835 825 836 81 1 832 4748 746 695 835 0 827 83
7 838 82 1 833 -1566113502 14 695 907 832 ?698 689 693 5 839 +0 0 698 689 23 81
 1 835 4623 775 695 0 832 840 830 841 81 1 837 4749 746 689 840 0 832 842 843 82
 1 838 -1566244574 14 689 903 837 ?695 686 687 5 844 +0 0 695 686 23 81 1 840 46
22 775 689 0 837 845 835 846 81 1 842 4750 746 686 845 0 837 847 848 82 1 843 -1
566375646 14 686 899 842 ?689 683 684 5 849 +0 0 689 683 23 81 1 845 4621 775 68
6 0 842 850 840 851 81 1 847 4751 746 683 850 0 842 852 853 82 1 848 -1566506718
 14 683 895 847 ?686 677 681 5 854 +0 0 686 677 23 81 1 850 4620 775 683 0 847 8
55 845 856 81 1 852 4752 746 677 855 0 847 857 858 82 1 853 -1566637790 14 677 8
91 852 ?683 674 675 5 859 +0 0 683 674 23 81 1 855 4619 775 677 0 852 860 850 86
1 81 1 857 4753 746 674 860 0 852 862 863 82 1 858 -1566768862 14 674 887 857 ?6
77 671 672 5 864 +0 0 677 671 23 81 1 860 4618 775 674 0 857 865 855 866 81 1 86
2 4754 746 671 865 0 857 867 868 82 1 863 -1566899934 14 671 883 862 ?674 665 66
9 5 869 +0 0 674 665 23 81 1 865 4617 775 671 0 862 870 860 871 81 1 867 4755 74
6 665 870 0 862 872 873 82 1 868 -1567031006 14 665 879 867 ?671 662 663 5 874 +
0 0 671 662 23 81 1 870 4616 775 665 0 867 875 865 876 81 1 872 4756 746 662 875
 0 867 877 878 82 1 873 -1567162078 14 662 875 872 ?665 659 660 5 879 +0 0 665 6
59 23 81 1 875 4615 775 662 0 872 880 870 881 81 1 877 4757 746 659 880 0 872 88
2 883 82 1 878 -1567293150 14 659 871 877 ?662 653 657 5 884 +0 0 662 653 23 81
 1 880 4614 775 659 0 877 885 875 886 81 1 882 4758 746 653 885 0 877 887 888 82
 1 883 -1567424222 14 653 867 882 ?659 650 651 5 889 +0 0 659 650 23 81 1 885 46
13 775 653 0 882 890 880 891 81 1 887 4759 746 650 890 0 882 892 893 82 1 888 -1
567555294 14 650 863 887 ?653 647 648 5 894 +0 0 653 647 23 81 1 890 4612 775 65
0 0 887 895 885 896 81 1 892 4760 746 647 895 0 887 897 898 82 1 893 -1567686366
 14 647 859 892 ?650 641 645 5 899 +0 0 650 641 23 81 1 895 4611 775 647 0 892 9
00 890 901 81 1 897 4761 746 641 900 0 892 902 903 82 1 898 -1567817438 14 641 8
55 897 ?647 638 639 5 904 +0 0 647 638 23 81 1 900 4610 775 641 0 897 905 895 90
6 81 1 902 4762 746 638 905 0 897 907 908 82 1 903 -1567948510 14 638 851 902 ?6
41 635 636 5 909 +0 0 641 635 23 81 1 905 4609 775 638 0 902 910 900 911 81 1 90
7 4763 746 635 910 0 902 912 913 82 1 908 -1568079582 14 635 847 907 ?638 629 63
3 5 914 +0 0 638 629 23 81 1 910 4608 775 635 0 907 915 905 916 81 1 912 4764 74
6 629 915 0 907 917 918 82 1 913 -1568210654 14 629 843 912 ?635 626 627 5 919 +
0 0 635 626 23 81 1 915 4607 775 629 0 912 920 910 921 81 1 917 4765 746 626 920
 0 912 922 923 82 1 918 -1568341726 14 626 839 917 ?629 623 624 5 924 +0 0 629 6
23 23 81 1 920 4606 775 626 0 917 925 915 926 81 1 922 4766 746 623 925 0 917 92
7 928 82 1 923 -1568472798 14 623 835 922 ?626 617 621 5 929 +0 0 626 617 23 81
 1 925 4605 775 623 0 922 930 920 931 81 1 927 4767 746 617 930 0 922 932 933 82
 1 928 -1568603870 14 617 831 927 ?623 614 615 5 934 +0 0 623 614 23 81 1 930 46
04 775 617 0 927 935 925 936 81 1 932 4768 746 614 935 0 927 937 938 82 1 933 -1
568734942 14 614 827 932 ?617 611 612 5 939 +0 0 617 611 23 81 1 935 4603 775 61
4 0 932 940 930 941 81 1 937 4769 746 611 940 0 932 942 943 82 1 938 -1568866014
 14 611 823 937 ?614 604 610 5 944 +0 0 614 604 23 81 1 940 4602 775 611 0 937 9
45 935 946 81 1 942 4770 746 604 945 0 937 0 947 82 1 943 -1568997086 14 604 819
 942 ?611 597 603 5 948 +0 0 611 597 23 81 1 945 4601 775 604 0 942 949 940 950
 82 1 947 -1569128158 80 1 775 0 951 8001 0 0 0 0 3 5 0 0 0 FFFFTFTFFFFFFF2 81 1
 949 4600 775 597 0 766 952 945 953 83 255 3 950 1 .556862745098039 .34117647058
82355 81 1 766 4734 746 597 949 0 763 768 954 81 1 952 4599 775 758 0 763 955 94
9 956 83 3 953 1 .556862745098039 .3411764705882355 81 1 763 4733 746 758 952 0
 756 766 957 81 1 955 4598 775 18 0 756 755 952 958 83 3 956 1 .556862745098039
 .3411764705882355 81 1 756 4732 746 18 955 0 753 763 959 81 1 755 4597 775 16 0
 753 0 955 960 83 3 958 1 .556862745098039 .3411764705882355 83 3 960 1 .5568627
45098039 .3411764705882355 82 1 959 -1501167326 82 1 957 -2006187748 82 1 954 -1
564016350 79 255 15 951 SDL/TYSA_COLOUR51 948 1019 0 604 0 944 0 +.0015788018973
8013 .00341112006793707 -.003 0 0 1 .0016 1 0 0 51 944 1018 0 611 948 939 0 +0 0
 -.003 0 0 1 .0048 1 0 0 51 939 1017 0 614 944 934 0 +-.000377173786785921 .0037
39798856036995 -.003 0 0 1 .0016 1 0 0 51 934 1016 0 617 939 929 0 +0 0 -.003 0
 0 1 .002999 1 0 0 51 929 1015 0 623 934 924 0 +.00328228363546422 .001831657633
24315 -.003 0 0 1 .0016 1 0 0 51 924 1014 0 626 929 919 0 +0 0 -.003 0 0 1 .0048
 1 0 0 51 919 1013 0 629 924 914 0 +.00189305861077625 .003247258019501995 -.003
 0 0 1 .0016 1 0 0 51 914 1012 0 635 919 909 0 +0 0 -.003 0 0 1 .002999 1 0 0 51
 909 1011 0 638 914 904 0 +.003732044585518595 -.0004474357615964885 -.003 0 0 1
 .0016 1 0 0 51 904 1010 0 641 909 899 0 +0 0 -.003 0 0 1 .0048 1 0 0 51 899 100
9 0 647 904 894 0 +.00344020696171755 .00151437498975789 -.003 0 0 1 .0016 1 0 0
 51 894 1008 0 650 899 889 0 +0 0 -.003 0 0 1 .002999 1 0 0 51 889 1007 0 653 89
4 884 0 +.002756291351434875 -.00255562390328846 -.003 0 0 1 .0016 1 0 0 51 884
 1006 0 659 889 879 0 +0 0 -.003 0 0 1 .0048 1 0 0 51 879 1005 0 662 884 874 0 +
.00367331318161675 -.000796947814360949 -.003 0 0 1 .0016 1 0 0 51 874 1004 0 66
5 879 869 0 +0 0 -.003 0 0 1 .002999 1 0 0 51 869 1003 0 671 874 864 0 +.0007277
28504000415 -.003687650576385905 -.003 0 0 1 .0016 1 0 0 51 864 1002 0 674 869 8
59 0 +0 0 -.003 0 0 1 .0048 1 0 0 51 859 1001 0 677 864 854 0 +.0025033386174613
65 -.002803863640653845 -.003 0 0 1 .0016 1 0 0 51 854 1000 0 683 859 849 0 +0 0
 -.003 0 0 1 .002999 1 0 0 51 849 999 0 686 854 844 0 +-.001578801897380085 -.00
3411120067937065 -.003 0 0 1 .0016 1 0 0 51 844 998 0 689 849 839 0 +0 0 -.003 0
 0 1 .0048 1 0 0 51 839 997 0 695 844 834 0 +.000377173786785912 -.0037397988560
36985 -.003 0 0 1 .0016 1 0 0 51 834 996 0 698 839 829 0 +0 0 -.003 0 0 1 .00299
9 1 0 0 51 829 995 0 701 834 824 0 +-.003282283635464215 -.00183165763324311 -.0
03 0 0 1 .0016 1 0 0 51 824 994 0 707 829 819 0 +0 0 -.003 0 0 1 .0048 1 0 0 51
 819 993 0 710 824 814 0 +-.001893058610776255 -.003247258019501965 -.003 0 0 1
 .0016 1 0 0 51 814 992 0 713 819 809 0 +0 0 -.003 0 0 1 .002999 1 0 0 51 809 99
1 0 719 814 804 0 +-.00373204458551857 .0004474357615965305 -.003 0 0 1 .0016 1
 0 0 51 804 990 0 722 809 799 0 +0 0 -.003 0 0 1 .0048 1 0 0 51 799 989 0 725 80
4 794 0 +-.00344020696171754 -.001514374989757855 -.003 0 0 1 .0016 1 0 0 51 794
 988 0 731 799 789 0 +0 0 -.003 0 0 1 .002999 1 0 0 51 789 987 0 734 794 783 0 +
-.00275629135143484 .00255562390328849 -.003 0 0 1 .0016 1 0 0 51 783 986 0 737
 789 752 0 +0 0 -.003 0 0 1 .0048 1 0 0 51 752 985 0 740 783 745 0 +-.0036733131
81616725 .000796947814360988 -.003 0 0 1 .0016 1 0 0 83 3 946 1 .556862745098039
 .3411764705882355 83 3 941 1 .556862745098039 .3411764705882355 83 3 936 1 .556
862745098039 .3411764705882355 83 3 931 1 .556862745098039 .3411764705882355 83
 3 926 1 .556862745098039 .3411764705882355 83 3 921 1 .556862745098039 .3411764
705882355 83 3 916 1 .556862745098039 .3411764705882355 83 3 911 1 .556862745098
039 .3411764705882355 83 3 906 1 .556862745098039 .3411764705882355 83 3 901 1 .
556862745098039 .3411764705882355 83 3 896 1 .556862745098039 .3411764705882355
 83 3 891 1 .556862745098039 .3411764705882355 83 3 886 1 .556862745098039 .3411
764705882355 83 3 881 1 .556862745098039 .3411764705882355 83 3 876 1 .556862745
098039 .3411764705882355 83 3 871 1 .556862745098039 .3411764705882355 83 3 866
 1 .556862745098039 .3411764705882355 83 3 861 1 .556862745098039 .3411764705882
355 83 3 856 1 .556862745098039 .3411764705882355 83 3 851 1 .556862745098039 .3
411764705882355 83 3 846 1 .556862745098039 .3411764705882355 83 3 841 1 .556862
745098039 .3411764705882355 83 3 836 1 .556862745098039 .3411764705882355 83 3 8
31 1 .556862745098039 .3411764705882355 83 3 826 1 .556862745098039 .34117647058
82355 83 3 821 1 .556862745098039 .3411764705882355 83 3 816 1 .556862745098039
 .3411764705882355 83 3 811 1 .556862745098039 .3411764705882355 83 3 806 1 .556
862745098039 .3411764705882355 83 3 801 1 .556862745098039 .3411764705882355 83
 3 796 1 .556862745098039 .3411764705882355 83 3 791 1 .556862745098039 .3411764
705882355 81 1 785 4635 775 740 0 751 780 747 961 83 3 786 1 .556862745098039 .3
411764705882355 81 1 751 4730 746 740 785 0 748 753 962 81 1 747 4636 775 743 0
 744 785 776 963 83 3 961 1 .556862745098039 .3411764705882355 81 1 776 4637 775
 275 0 748 747 770 964 83 3 963 1 .556862745098039 .3411764705882355 81 1 748 47
29 746 275 776 0 744 751 965 83 3 964 1 .556862745098039 .3411764705882355 82 1
 965 -1564409566 82 1 962 -1564671710 81 1 777 4639 775 599 0 768 770 0 966 82 1
 779 -1564147422 83 3 966 1 .556862745098039 .3411764705882355 83 3 778 1 .55686
2745098039 .3411764705882355 79 14 774 SWEntUnchanged15 764 58 0 24 758 967 17 2
4 0 764 24 24 0 760 10 0 0 +15 967 59 0 968 758 0 17 968 0 967 968 968 0 969 20
 0 0 -17 969 0 759 969 969 0 968 20 0 0 +16 20 49 0 ?969 10 521 7 0 0 1 15 759 3
8 0 969 18 288 17 760 0 754 760 760 0 24 10 0 0 -82 1 757 -1485111006 82 1 749 -
1564540638 19 17 30 0 1 0 9 5 S0 74 4 CI16 index_map_offset0 0 1 dCCZ20 15 9 0 0
 970 971 942 972 973 974 13 777 2 0 0 0 0 0 0 0 0 0 0 0 81 2 970 35 975 1 0 971
 0 0 0 976 81 2 971 86 977 1 970 972 0 0 0 978 81 2 972 97 979 1 971 973 0 0 0 9
80 81 1 973 1350 981 1 972 974 0 0 982 81 2 974 4503 983 1 973 13 0 0 984 0 81 2
 13 4595 985 1 974 2 0 0 0 0 80 2 985 986 987 9000 0 0 0 0 3 5 0 0 0 FFTFFFFFFFF
FFF9 1 79 16 987 BODY_RECIPE_200180 2 983 988 989 8004 0 0 0 0 3 5 0 0 0 FFTFFFF
FFFFFFF2 3 83 1 984 1e3 79 16 989 SDL/TYSA_DENSITY80 1 981 990 991 9000 1 1 1 1
 1 1 1 1 0 FFTFFFFFFFFFFF1 82 1 982 100490 79 10 991 BODY_MATCH80 2 979 992 993
 9000 0 0 0 0 3 5 0 0 0 FFTFFFFFFFFFFF9 1 82 1 980 1 79 24 993 BODY_IN_LIGHTWEIG
HT_PERM80 2 977 994 995 9000 0 0 0 0 3 5 0 0 0 FFTFFFFFFFFFFF9 1 82 1 978 42 79
 30 995 LAST_BODY_MODIFYING_FEATURE_ID80 2 975 996 997 9000 0 0 0 0 3 5 0 0 0 FF
TFFFFFFFFFFT9 1 82 1 976 106 79 19 997 ENT_TIME_STAMP_200180 2 12 998 999 9000 0
 0 0 0 3 5 0 0 0 FFTFFFFFFFFFFF9 1 82 1 14 102 79 12 999 ATOM_ID_20011 0 
