**ABCDEFGHIJKLMNOPQRSTUVWXYZabcdefghijklmnopqrstuvwxyz**************************
**PARASOLID !"#$%&'()*+,-./:;<=>?@[\]^_`{|}~0123456789**************************
**PART1;
MC=AMD64;
MC_MODEL=Intel64 Family 6 Model 78 Stepping 3, GenuineIntel;
MC_ID=unknown;
OS=Windows_NT;
OS_RELEASE=unknown;
FRU=Parasolid Version 31.1, build 290,  3- 9-2020;
APPL=SOLIDWORKS 2020-2020128;
SITE=;
USER=unknown;
FORMAT=text;
GUISE=transmit;
KEY=Z10xM0.8x2.2NR;
FILE=Z10xM0.8x2.2NR.x_t;
DATE=Sun Nov 29 01:17:46 2020;
**PART2;
SCH=SCH_3101290_31100;
USFLD_SIZE=0;
**PART3;
**END_OF_HEADER*****************************************************************
T51 : TRANSMIT FILE created by modeller version 310129023 SCH_3101290_31100_1300
6222 0 12 34 CCCCCCI4 mesh1006 0 I8 polyline1008 0 CCCCCCCDI5 owner1040 0 CCCCCC
I13 boundary_mesh1006 0 I17 boundary_polyline1008 0 CCCA16 index_map_offset0 0 1
 dA9 index_map82 0 A17 node_id_index_map82 0 A20 schema_embedding_map82 0 A5 chi
ld12 0 A14 lowest_node_id0 0 1 dA16 mesh_offset_data206 0 Z1 3006 2 3 4 0 0 0 0
 0 1e3 1e-8 0 5 0 1 0 1 1 6 7 8 9 0 0 10 11 12 0 0 0 0 0 0 0 81 255 2 2 2963 13
 1 14 0 0 0 0 15 70 11 CI9 list_type0 0 1 uI10 notransmit0 0 1 lCCCDCCDI12 finge
r_index0 0 1 dI12 finger_block1012 0 CZ3 0 4 T1 0 0 8 20 1 16 16 50 255 4 1386 0
 1 17 0 0 +0 0 1e-4 0 0 1 1 0 0 13 255 6 29 0 1 0 18 0 0 19 0 50 7 22 0 20 21 0
 0 +0 0 -.0029 0 0 1 1 0 0 31 255 8 71 0 11 22 0 0 +0 0 -.0029 0 0 1 1 0 0 .0011
 29 255 9 1390 0 12 23 0 -.000904303163320391 .00285941196556368 1e-4 19 8 CCCCC
CCA5 owner12 0 Z10 7 0 1 19 0 24 V0 16 255 11 49 0 ?25 0 26 8 0 0 1 18 255 12 13
88 0 27 0 28 9 ?1 17 255 27 0 29 30 31 12 32 33 0 34 -18 28 94 0 35 12 36 23 ?1
 17 35 0 37 38 39 28 40 41 0 42 +18 36 787 0 43 28 44 45 ?1 29 23 96 0 28 45 9 -
.000904303163320391 .00285941196556368 -.0029 29 45 1129 0 36 46 23 -.0020525056
458141 .004339034520939105 -.0029 29 46 1170 0 44 47 45 3283655426806165e-20 .00
299882022814037 -.0029 18 44 712 0 39 36 48 46 ?1 29 47 1171 0 48 49 46 .0007006
36829482194 .00474859011004037 -.0029 18 48 714 0 50 44 51 47 ?1 29 49 1172 0 51
 52 47 .000889908552081744 .00471678521547588 -.0029 18 51 716 0 53 48 54 49 ?1
 29 52 1173 0 54 55 49 .000949123556393706 .00284484893706127 -.0029 18 54 718 0
 56 51 57 52 ?1 29 55 1174 0 57 58 52 .0017892276348168 .002406795685306075 -.00
29 18 57 720 0 59 54 60 55 ?1 29 58 1175 0 60 61 55 .00335797833779965 .00342986
6102760925 -.0029 18 60 722 0 62 57 63 58 ?1 29 61 1176 0 63 64 58 .003492407929
961635 .00329288427533389 -.0029 18 63 724 0 65 60 66 61 ?1 29 64 1177 0 66 67 6
1 .002440017337088625 .00174365030746047 -.0029 18 66 726 0 68 63 69 64 ?1 29 67
 1178 0 69 70 64 .00286219457247615 .000895456994661458 -.0029 18 69 728 0 71 66
 72 67 ?1 29 70 1179 0 72 73 67 .00473268625456359 .000801049821087931 -.0029 18
 72 730 0 74 69 75 70 ?1 29 73 1180 0 75 76 70 .00476092618117584 .0006112134630
34417 -.0029 18 75 732 0 77 72 78 73 ?1 29 76 1181 0 78 79 73 .0029989074281547
 -2356347509602335e-20 -.0029 18 78 734 0 80 75 81 76 ?1 29 79 1182 0 81 82 76 .
002841900465865085 -.000957915832480003 -.0029 18 81 736 0 83 78 84 79 ?1 29 82
 1183 0 84 85 79 .00429966888017366 -.00213374026555863 -.0029 18 84 738 0 86 81
 87 82 ?1 29 85 1184 0 87 88 82 .00421093244911011 -.002303920117762675 -.0029 1
8 87 740 0 89 84 90 85 ?1 29 88 1185 0 90 91 85 .00241231681078021 -.00178177681
1058895 -.0029 18 90 742 0 92 87 93 88 ?1 29 91 1186 0 93 94 88 .001736096973937
715 -.00244539736997575 -.0029 18 93 744 0 95 90 96 91 ?1 29 94 1187 0 96 97 91
 .002224324133927595 -.004253514093926015 -.0029 18 96 746 0 98 93 99 94 ?1 29 9
7 1188 0 99 100 94 .00205250564581415 -.00433903452093908 -.0029 18 99 748 0 101
 96 102 97 ?1 29 100 1189 0 102 103 97 .000904303163320429 -.00285941196556366 -
.0029 18 102 750 0 104 99 105 100 ?1 29 103 1190 0 105 106 100 -328365542680213e
-19 -.002998820228140355 -.0029 18 105 752 0 107 102 108 103 ?1 29 106 1191 0 10
8 109 103 -.000700636829482142 -.00474859011004036 -.0029 18 108 754 0 110 105 1
11 106 ?1 29 109 1192 0 111 112 106 -.00088990855208176 -.00471678521547586 -.00
29 18 111 756 0 113 108 114 109 ?1 29 112 1193 0 114 115 109 -.00094912355639370
8 -.002844848937061245 -.0029 18 114 758 0 116 111 117 112 ?1 29 115 1194 0 117
 118 112 -.0017892276348168 -.00240679568530605 -.0029 18 117 760 0 119 114 120
 115 ?1 29 118 1195 0 120 121 115 -.00335797833779966 -.003429866102760885 -.002
9 18 120 762 0 122 117 123 118 ?1 29 121 1196 0 123 124 118 -.00349240792996164
 -.00329288427533385 -.0029 18 123 764 0 125 120 126 121 ?1 29 124 1197 0 126 12
7 121 -.002440017337088625 -.00174365030746044 -.0029 18 126 766 0 128 123 129 1
24 ?1 29 127 1198 0 129 130 124 -.00286219457247614 -.000895456994661423 -.0029
 18 129 768 0 131 126 132 127 ?1 29 130 1199 0 132 133 127 -.00473268625456358 -
.000801049821087879 -.0029 18 132 770 0 134 129 135 130 ?1 29 133 1200 0 135 136
 130 -.00476092618117583 -.000611213463034371 -.0029 18 135 772 0 137 132 138 13
3 ?1 29 136 1201 0 138 139 133 -.002998907428154685 235634750960575e-19 -.0029 1
8 138 774 0 140 135 141 136 ?1 29 139 1202 0 141 142 136 -.00284190046586506 .00
0957915832480036 -.0029 18 141 776 0 143 138 144 139 ?1 29 142 1203 0 144 145 13
9 -.00429966888017363 .002133740265558675 -.0029 18 144 778 0 146 141 147 142 ?1
 29 145 1204 0 147 148 142 -.004210932449110075 .00230392011776272 -.0029 18 147
 780 0 149 144 150 145 ?1 29 148 1205 0 150 151 145 -.002412316810780185 .001781
776811058925 -.0029 18 150 782 0 152 147 153 148 ?1 29 151 1206 0 153 154 148 -.
00173609697393768 .002445397369975775 -.0029 18 153 784 0 155 150 156 151 ?1 29
 154 1207 0 156 157 151 -.00222432413392755 .00425351409392604 -.0029 18 156 786
 0 158 153 159 154 ?1 29 157 2337 0 159 160 154 -.0020525056458141 .004339034520
939105 1e-4 18 159 1992 0 30 156 161 157 ?1 29 160 2338 0 161 162 157 -.00222432
413392755 .00425351409392604 1e-4 18 161 1991 0 163 159 164 160 ?1 29 162 2339 0
 164 165 160 -.00173609697393768 .002445397369975775 1e-4 18 164 1990 0 166 161
 167 162 ?1 29 165 2340 0 167 168 162 -.002412316810780185 .00178177681105893 1e
-4 18 167 1989 0 169 164 170 165 ?1 29 168 2341 0 170 171 165 -.0042109324491100
75 .00230392011776272 1e-4 18 170 1988 0 172 167 173 168 ?1 29 171 2342 0 173 17
4 168 -.004299668880173635 .002133740265558675 1e-4 18 173 1987 0 175 170 176 17
1 ?1 29 174 2343 0 176 177 171 -.00284190046586506 .000957915832480036 1e-4 18 1
76 1986 0 178 173 179 174 ?1 29 177 2344 0 179 180 174 -.00299890742815469 23563
4750960575e-19 1e-4 18 179 1985 0 181 176 182 177 ?1 29 180 2345 0 182 183 177 -
.00476092618117583 -.000611213463034372 1e-4 18 182 1984 0 184 179 185 180 ?1 29
 183 2346 0 185 186 180 -.00473268625456358 -.000801049821087874 1e-4 18 185 198
3 0 187 182 188 183 ?1 29 186 2347 0 188 189 183 -.00286219457247614 -.000895456
994661422 1e-4 18 188 1982 0 190 185 191 186 ?1 29 189 2348 0 191 192 186 -.0024
40017337088625 -.00174365030746044 1e-4 18 191 1981 0 193 188 194 189 ?1 29 192
 2349 0 194 195 189 -.00349240792996164 -.00329288427533385 1e-4 18 194 1980 0 1
96 191 197 192 ?1 29 195 2350 0 197 198 192 -.00335797833779966 -.00342986610276
088 1e-4 18 197 1979 0 199 194 200 195 ?1 29 198 2351 0 200 201 195 -.0017892276
348168 -.00240679568530605 1e-4 18 200 1978 0 202 197 203 198 ?1 29 201 2352 0 2
03 204 198 -.000949123556393708 -.002844848937061245 1e-4 18 203 1977 0 205 200
 206 201 ?1 29 204 2353 0 206 207 201 -.000889908552081761 -.00471678521547586 1
e-4 18 206 1976 0 208 203 209 204 ?1 29 207 2354 0 209 210 204 -.000700636829482
142 -.00474859011004036 1e-4 18 209 1975 0 211 206 212 207 ?1 29 210 2355 0 212
 213 207 -328365542680226e-19 -.002998820228140355 1e-4 18 212 1974 0 214 209 21
5 210 ?1 29 213 2356 0 215 216 210 .000904303163320428 -.00285941196556366 1e-4
 18 215 1973 0 217 212 218 213 ?1 29 216 2357 0 218 219 213 .00205250564581415 -
.00433903452093908 1e-4 18 218 1972 0 220 215 221 216 ?1 29 219 2358 0 221 222 2
16 .002224324133927595 -.004253514093926015 1e-4 18 221 1971 0 223 218 224 219 ?
1 29 222 2359 0 224 225 219 .001736096973937715 -.00244539736997575 1e-4 18 224
 1970 0 226 221 227 222 ?1 29 225 2360 0 227 228 222 .00241231681078021 -.001781
776811058895 1e-4 18 227 1969 0 229 224 230 225 ?1 29 228 2361 0 230 231 225 .00
421093244911011 -.002303920117762675 1e-4 18 230 1968 0 232 227 233 228 ?1 29 23
1 2362 0 233 234 228 .00429966888017366 -.00213374026555863 1e-4 18 233 1967 0 2
35 230 236 231 ?1 29 234 2363 0 236 237 231 .002841900465865085 -.00095791583248
0005 1e-4 18 236 1966 0 238 233 239 234 ?1 29 237 2364 0 239 240 234 .0029989074
281547 -2356347509602335e-20 1e-4 18 239 1965 0 241 236 242 237 ?1 29 240 2365 0
 242 243 237 .00476092618117584 .000611213463034417 1e-4 18 242 1964 0 244 239 2
45 240 ?1 29 243 2366 0 245 246 240 .00473268625456359 .000801049821087931 1e-4
 18 245 1963 0 247 242 248 243 ?1 29 246 2367 0 248 249 243 .00286219457247615 .
000895456994661458 1e-4 18 248 1962 0 250 245 251 246 ?1 29 249 2368 0 251 252 2
46 .002440017337088625 .00174365030746047 1e-4 18 251 1961 0 253 248 254 249 ?1
 29 252 2369 0 255 256 249 .000889908552081744 .00471678521547588 1e-4 18 255 19
56 0 257 258 259 252 ?1 29 256 2370 0 254 260 252 .003492407929961635 .003292884
27533389 1e-4 18 254 1960 0 261 251 262 256 ?1 29 260 2371 0 262 263 256 .003357
97833779965 .003429866102760925 1e-4 18 262 1959 0 264 254 265 260 ?1 29 263 237
2 0 265 266 260 .0017892276348168 .002406795685306075 1e-4 18 265 1958 0 267 262
 258 263 ?1 29 266 2373 0 258 268 263 .000949123556393706 .00284484893706127 1e-
4 18 258 1957 0 269 265 255 266 ?1 29 268 2374 0 259 270 266 .000700636829482194
 .00474859011004037 1e-4 18 259 1995 0 271 255 272 268 ?1 29 270 2375 0 272 0 26
8 3283655426806165e-20 .00299882022814037 1e-4 18 272 1994 0 31 259 0 270 ?1 17
 31 0 29 27 271 272 273 274 0 32 -15 255 29 2169 0 271 275 0 17 271 0 29 31 257
 259 276 277 0 273 -17 273 0 278 50 279 259 31 274 0 280 +16 274 1915 0 ?273 281
 277 282 0 0 1 17 32 0 37 39 38 272 27 33 0 279 +15 37 805 0 38 283 0 17 39 0 37
 35 32 44 279 26 0 284 -17 38 0 37 32 35 12 42 285 0 0 +16 33 1914 0 ?32 286 0 2
87 0 0 1 17 279 0 278 273 284 272 39 26 0 0 +15 278 809 0 279 288 0 17 284 0 278
 279 50 44 289 290 0 40 +16 26 552 0 ?279 11 291 292 0 0 1 16 291 556 0 ?280 26
 293 294 0 0 1 30 255 292 1048 0 26 295 294 0 +3283655426806165e-20 .00299882022
814037 -.0029 0 0 1 31 295 1089 0 290 296 292 0 +.00157880189738013 .00341112006
793707 -.0029 0 0 1 1 0 0 .0016 30 294 1047 0 291 292 297 0 +.000700636829482194
 .00474859011004037 -.0029 0 0 1 30 297 1046 0 293 294 298 0 +.00088990855208174
4 .00471678521547588 -.0029 0 0 1 16 293 560 0 ?299 291 300 297 0 0 1 30 298 104
5 0 300 297 301 0 +.000949123556393706 .00284484893706127 -.0029 0 0 1 16 300 56
4 0 ?302 293 303 298 0 0 1 30 301 1044 0 303 298 304 0 +.0017892276348168 .00240
6795685306075 -.0029 0 0 1 16 303 568 0 ?305 300 306 301 0 0 1 30 304 1043 0 306
 301 307 0 +.00335797833779965 .003429866102760925 -.0029 0 0 1 16 306 572 0 ?30
8 303 309 304 0 0 1 30 307 1042 0 309 304 310 0 +.003492407929961635 .0032928842
7533389 -.0029 0 0 1 16 309 576 0 ?311 306 312 307 0 0 1 30 310 1041 0 312 307 3
13 0 +.002440017337088625 .00174365030746047 -.0029 0 0 1 16 312 580 0 ?314 309
 315 310 0 0 1 30 313 1040 0 315 310 316 0 +.00286219457247615 .0008954569946614
58 -.0029 0 0 1 16 315 584 0 ?317 312 318 313 0 0 1 30 316 1039 0 318 313 319 0
 +.00473268625456359 .000801049821087931 -.0029 0 0 1 16 318 588 0 ?320 315 321
 316 0 0 1 30 319 1038 0 321 316 322 0 +.00476092618117584 .000611213463034417 -
.0029 0 0 1 16 321 592 0 ?323 318 324 319 0 0 1 30 322 1037 0 324 319 325 0 +.00
29989074281547 -2356347509602335e-20 -.0029 0 0 1 16 324 596 0 ?326 321 327 322
 0 0 1 30 325 1036 0 327 322 328 0 +.002841900465865085 -.000957915832480003 -.0
029 0 0 1 16 327 600 0 ?329 324 330 325 0 0 1 30 328 1035 0 330 325 331 0 +.0042
9966888017366 -.00213374026555863 -.0029 0 0 1 16 330 604 0 ?332 327 333 328 0 0
 1 30 331 1034 0 333 328 334 0 +.00421093244911011 -.002303920117762675 -.0029 0
 0 1 16 333 608 0 ?335 330 336 331 0 0 1 30 334 1033 0 336 331 337 0 +.002412316
81078021 -.001781776811058895 -.0029 0 0 1 16 336 612 0 ?338 333 339 334 0 0 1 3
0 337 1032 0 339 334 340 0 +.001736096973937715 -.00244539736997575 -.0029 0 0 1
 16 339 616 0 ?341 336 342 337 0 0 1 30 340 1031 0 342 337 343 0 +.0022243241339
27595 -.004253514093926015 -.0029 0 0 1 16 342 620 0 ?344 339 345 340 0 0 1 30 3
43 1030 0 345 340 346 0 +.00205250564581415 -.00433903452093908 -.0029 0 0 1 16
 345 624 0 ?347 342 348 343 0 0 1 30 346 1029 0 348 343 349 0 +.0009043031633204
29 -.00285941196556366 -.0029 0 0 1 16 348 628 0 ?350 345 351 346 0 0 1 30 349 1
028 0 351 346 352 0 +-328365542680213e-19 -.002998820228140355 -.0029 0 0 1 16 3
51 632 0 ?353 348 354 349 0 0 1 30 352 1027 0 354 349 355 0 +-.00070063682948214
2 -.00474859011004036 -.0029 0 0 1 16 354 636 0 ?356 351 357 352 0 0 1 30 355 10
26 0 357 352 358 0 +-.00088990855208176 -.00471678521547586 -.0029 0 0 1 16 357
 640 0 ?359 354 360 355 0 0 1 30 358 1025 0 360 355 361 0 +-.000949123556393708
 -.002844848937061245 -.0029 0 0 1 16 360 644 0 ?362 357 363 358 0 0 1 30 361 10
24 0 363 358 364 0 +-.0017892276348168 -.00240679568530605 -.0029 0 0 1 16 363 6
48 0 ?365 360 366 361 0 0 1 30 364 1023 0 366 361 367 0 +-.00335797833779966 -.0
03429866102760885 -.0029 0 0 1 16 366 652 0 ?368 363 369 364 0 0 1 30 367 1022 0
 369 364 370 0 +-.00349240792996164 -.00329288427533385 -.0029 0 0 1 16 369 656
 0 ?371 366 372 367 0 0 1 30 370 1021 0 372 367 373 0 +-.002440017337088625 -.00
174365030746044 -.0029 0 0 1 16 372 660 0 ?374 369 375 370 0 0 1 30 373 1020 0 3
75 370 376 0 +-.00286219457247614 -.000895456994661423 -.0029 0 0 1 16 375 664 0
 ?377 372 378 373 0 0 1 30 376 1019 0 378 373 379 0 +-.00473268625456358 -.00080
1049821087879 -.0029 0 0 1 16 378 668 0 ?380 375 381 376 0 0 1 30 379 1018 0 381
 376 382 0 +-.00476092618117583 -.000611213463034371 -.0029 0 0 1 16 381 672 0 ?
383 378 384 379 0 0 1 30 382 1017 0 384 379 385 0 +-.002998907428154685 23563475
0960575e-19 -.0029 0 0 1 16 384 676 0 ?386 381 387 382 0 0 1 30 385 1016 0 387 3
82 388 0 +-.00284190046586506 .000957915832480036 -.0029 0 0 1 16 387 680 0 ?389
 384 390 385 0 0 1 30 388 1015 0 390 385 391 0 +-.00429966888017363 .00213374026
5558675 -.0029 0 0 1 16 390 684 0 ?392 387 393 388 0 0 1 30 391 1014 0 393 388 3
94 0 +-.004210932449110075 .00230392011776272 -.0029 0 0 1 16 393 688 0 ?395 390
 396 391 0 0 1 30 394 1013 0 396 391 397 0 +-.002412316810780185 .00178177681105
8925 -.0029 0 0 1 16 396 692 0 ?398 393 399 394 0 0 1 30 397 1012 0 399 394 400
 0 +-.00173609697393768 .002445397369975775 -.0029 0 0 1 16 399 696 0 ?401 396 4
02 397 0 0 1 30 400 1011 0 402 397 403 0 +-.00222432413392755 .00425351409392604
 -.0029 0 0 1 16 402 700 0 ?404 399 405 400 0 0 1 30 403 1010 0 405 400 22 0 +-.
0020525056458141 .004339034520939105 -.0029 0 0 1 16 405 704 0 ?406 402 285 403
 0 0 1 30 22 1009 0 285 403 8 0 +-.000904303163320391 .00285941196556368 -.0029
 0 0 1 16 285 708 0 ?38 405 290 22 0 0 1 16 290 426 0 ?284 285 407 295 0 0 1 16
 407 543 0 ?408 290 409 296 0 0 1 17 408 0 410 280 53 48 411 407 0 289 +16 409 5
40 0 ?412 407 413 414 0 0 1 31 296 1090 0 407 414 295 0 +0 0 -.0029 0 0 1 1 0 0
 .0048 31 414 1091 0 409 415 296 0 +-.000377173786785921 .003739798856036995 -.0
029 0 0 1 1 0 0 .0016 31 415 1092 0 413 416 414 0 +0 0 -.0029 0 0 1 1 0 0 .00299
9 16 413 537 0 ?417 409 418 415 0 0 1 31 416 1093 0 418 419 415 0 +.003282283635
46422 .00183165763324315 -.0029 0 0 1 1 0 0 .0016 16 418 534 0 ?420 413 421 416
 0 0 1 31 419 1094 0 421 422 416 0 +0 0 -.0029 0 0 1 1 0 0 .0048 16 421 531 0 ?4
23 418 424 419 0 0 1 31 422 1095 0 424 425 419 0 +.00189305861077625 .0032472580
19501995 -.0029 0 0 1 1 0 0 .0016 16 424 528 0 ?426 421 427 422 0 0 1 31 425 109
6 0 427 428 422 0 +0 0 -.0029 0 0 1 1 0 0 .002999 16 427 525 0 ?429 424 430 425
 0 0 1 31 428 1097 0 430 431 425 0 +.003732044585518595 -.0004474357615964885 -.
0029 0 0 1 1 0 0 .0016 16 430 522 0 ?432 427 433 428 0 0 1 31 431 1098 0 433 434
 428 0 +0 0 -.0029 0 0 1 1 0 0 .0048 16 433 519 0 ?435 430 436 431 0 0 1 31 434
 1099 0 436 437 431 0 +.00344020696171755 .00151437498975789 -.0029 0 0 1 1 0 0
 .0016 16 436 516 0 ?438 433 439 434 0 0 1 31 437 1100 0 439 440 434 0 +0 0 -.00
29 0 0 1 1 0 0 .002999 16 439 513 0 ?441 436 442 437 0 0 1 31 440 1101 0 442 443
 437 0 +.002756291351434875 -.00255562390328846 -.0029 0 0 1 1 0 0 .0016 16 442
 510 0 ?444 439 445 440 0 0 1 31 443 1102 0 445 446 440 0 +0 0 -.0029 0 0 1 1 0
 0 .0048 16 445 507 0 ?447 442 448 443 0 0 1 31 446 1103 0 448 449 443 0 +.00367
331318161675 -.000796947814360949 -.0029 0 0 1 1 0 0 .0016 16 448 504 0 ?450 445
 451 446 0 0 1 31 449 1104 0 451 452 446 0 +0 0 -.0029 0 0 1 1 0 0 .002999 16 45
1 501 0 ?453 448 454 449 0 0 1 31 452 1105 0 454 455 449 0 +.000727728504000415
 -.003687650576385905 -.0029 0 0 1 1 0 0 .0016 16 454 498 0 ?456 451 457 452 0 0
 1 31 455 1106 0 457 458 452 0 +0 0 -.0029 0 0 1 1 0 0 .0048 16 457 495 0 ?459 4
54 460 455 0 0 1 31 458 1107 0 460 461 455 0 +.002503338617461365 -.002803863640
653845 -.0029 0 0 1 1 0 0 .0016 16 460 492 0 ?462 457 463 458 0 0 1 31 461 1108
 0 463 464 458 0 +0 0 -.0029 0 0 1 1 0 0 .002999 16 463 489 0 ?465 460 466 461 0
 0 1 31 464 1109 0 466 467 461 0 +-.001578801897380085 -.003411120067937065 -.00
29 0 0 1 1 0 0 .0016 16 466 486 0 ?468 463 469 464 0 0 1 31 467 1110 0 469 470 4
64 0 +0 0 -.0029 0 0 1 1 0 0 .0048 16 469 483 0 ?471 466 472 467 0 0 1 31 470 11
11 0 472 473 467 0 +.000377173786785912 -.003739798856036985 -.0029 0 0 1 1 0 0
 .0016 16 472 480 0 ?474 469 475 470 0 0 1 31 473 1112 0 475 476 470 0 +0 0 -.00
29 0 0 1 1 0 0 .002999 16 475 477 0 ?477 472 478 473 0 0 1 31 476 1113 0 478 479
 473 0 +-.003282283635464215 -.00183165763324311 -.0029 0 0 1 1 0 0 .0016 16 478
 474 0 ?480 475 481 476 0 0 1 31 479 1114 0 481 482 476 0 +0 0 -.0029 0 0 1 1 0
 0 .0048 16 481 471 0 ?483 478 484 479 0 0 1 31 482 1115 0 484 485 479 0 +-.0018
93058610776255 -.003247258019501965 -.0029 0 0 1 1 0 0 .0016 16 484 468 0 ?486 4
81 487 482 0 0 1 31 485 1116 0 487 488 482 0 +0 0 -.0029 0 0 1 1 0 0 .002999 16
 487 465 0 ?489 484 490 485 0 0 1 31 488 1117 0 490 491 485 0 +-.003732044585518
57 .0004474357615965305 -.0029 0 0 1 1 0 0 .0016 16 490 462 0 ?492 487 493 488 0
 0 1 31 491 1118 0 493 494 488 0 +0 0 -.0029 0 0 1 1 0 0 .0048 16 493 459 0 ?495
 490 496 491 0 0 1 31 494 1119 0 496 497 491 0 +-.00344020696171754 -.0015143749
89757855 -.0029 0 0 1 1 0 0 .0016 16 496 456 0 ?498 493 499 494 0 0 1 31 497 112
0 0 499 500 494 0 +0 0 -.0029 0 0 1 1 0 0 .002999 16 499 453 0 ?501 496 502 497
 0 0 1 31 500 1121 0 502 503 497 0 +-.00275629135143484 .00255562390328849 -.002
9 0 0 1 1 0 0 .0016 16 502 450 0 ?504 499 505 500 0 0 1 31 503 1122 0 505 506 50
0 0 +0 0 -.0029 0 0 1 1 0 0 .0048 16 505 447 0 ?507 502 508 503 0 0 1 31 506 112
3 0 508 509 503 0 +-.003673313181616725 .000796947814360988 -.0029 0 0 1 1 0 0 .
0016 16 508 444 0 ?510 505 511 506 0 0 1 31 509 1124 0 511 512 506 0 +0 0 -.0029
 0 0 1 1 0 0 .002999 16 511 441 0 ?513 508 514 509 0 0 1 31 512 1125 0 514 515 5
09 0 +-.000727728504000371 .003687650576385925 -.0029 0 0 1 1 0 0 .0016 16 514 4
38 0 ?516 511 517 512 0 0 1 31 515 1126 0 517 518 512 0 +0 0 -.0029 0 0 1 1 0 0
 .0048 16 517 435 0 ?519 514 520 515 0 0 1 31 518 1127 0 520 521 515 0 +-.002503
33861746133 .002803863640653875 -.0029 0 0 1 1 0 0 .0016 16 520 432 0 ?522 517 4
1 518 0 0 1 31 521 1128 0 41 523 518 0 +0 0 -.0029 0 0 1 1 0 0 .002999 16 41 429
 0 ?35 520 281 521 0 0 1 31 523 2215 0 281 282 521 0 +0 0 1e-4 0 0 1 1 0 0 .0011
 16 281 1875 0 ?524 41 274 523 0 0 1 31 282 2216 0 274 525 523 0 -.0015788018973
8013 .00341112006793707 1e-4 0 0 1 1 0 0 .0016 31 525 2297 0 277 526 282 0 -0 0
 1e-4 0 0 1 1 0 0 .0048 16 277 1876 0 ?276 274 527 525 0 0 1 31 526 2298 0 527 5
28 525 0 --.000377173786785921 .003739798856036995 1e-4 0 0 1 1 0 0 .0016 16 527
 1877 0 ?529 277 530 526 0 0 1 31 528 2299 0 530 531 526 0 -0 0 1e-4 0 0 1 1 0 0
 .002999 16 530 1878 0 ?532 527 533 528 0 0 1 31 531 2300 0 533 534 528 0 -.0032
8228363546422 .00183165763324315 1e-4 0 0 1 1 0 0 .0016 16 533 1879 0 ?535 530 5
36 531 0 0 1 31 534 2301 0 536 537 531 0 -0 0 1e-4 0 0 1 1 0 0 .0048 16 536 1880
 0 ?538 533 539 534 0 0 1 31 537 2302 0 539 540 534 0 -.00189305861077625 .00324
7258019501995 1e-4 0 0 1 1 0 0 .0016 16 539 1881 0 ?541 536 542 537 0 0 1 31 540
 2303 0 542 543 537 0 -0 0 1e-4 0 0 1 1 0 0 .002999 16 542 1882 0 ?544 539 545 5
40 0 0 1 31 543 2304 0 545 546 540 0 -.003732044585518595 -.0004474357615964885
 1e-4 0 0 1 1 0 0 .0016 16 545 1883 0 ?547 542 548 543 0 0 1 31 546 2305 0 548 5
49 543 0 -0 0 1e-4 0 0 1 1 0 0 .0048 16 548 1884 0 ?550 545 551 546 0 0 1 31 549
 2306 0 551 552 546 0 -.00344020696171755 .00151437498975789 1e-4 0 0 1 1 0 0 .0
016 16 551 1885 0 ?553 548 554 549 0 0 1 31 552 2307 0 554 555 549 0 -0 0 1e-4 0
 0 1 1 0 0 .002999 16 554 1886 0 ?556 551 557 552 0 0 1 31 555 2308 0 557 558 55
2 0 -.002756291351434875 -.00255562390328846 1e-4 0 0 1 1 0 0 .0016 16 557 1887
 0 ?559 554 560 555 0 0 1 31 558 2309 0 560 561 555 0 -0 0 1e-4 0 0 1 1 0 0 .004
8 16 560 1888 0 ?562 557 563 558 0 0 1 31 561 2310 0 563 564 558 0 -.00367331318
161675 -.000796947814360949 1e-4 0 0 1 1 0 0 .0016 16 563 1889 0 ?565 560 566 56
1 0 0 1 31 564 2311 0 566 567 561 0 -0 0 1e-4 0 0 1 1 0 0 .002999 16 566 1890 0
 ?568 563 569 564 0 0 1 31 567 2312 0 569 570 564 0 -.000727728504000415 -.00368
7650576385905 1e-4 0 0 1 1 0 0 .0016 16 569 1891 0 ?571 566 572 567 0 0 1 31 570
 2313 0 572 573 567 0 -0 0 1e-4 0 0 1 1 0 0 .0048 16 572 1892 0 ?574 569 575 570
 0 0 1 31 573 2314 0 575 576 570 0 -.002503338617461365 -.002803863640653845 1e-
4 0 0 1 1 0 0 .0016 16 575 1893 0 ?577 572 578 573 0 0 1 31 576 2315 0 578 579 5
73 0 -0 0 1e-4 0 0 1 1 0 0 .002999 16 578 1894 0 ?580 575 581 576 0 0 1 31 579 2
316 0 581 582 576 0 --.001578801897380085 -.003411120067937065 1e-4 0 0 1 1 0 0
 .0016 16 581 1895 0 ?583 578 584 579 0 0 1 31 582 2317 0 584 585 579 0 -0 0 1e-
4 0 0 1 1 0 0 .0048 16 584 1896 0 ?586 581 587 582 0 0 1 31 585 2318 0 587 588 5
82 0 -.000377173786785912 -.003739798856036985 1e-4 0 0 1 1 0 0 .0016 16 587 189
7 0 ?589 584 590 585 0 0 1 31 588 2319 0 590 591 585 0 -0 0 1e-4 0 0 1 1 0 0 .00
2999 16 590 1898 0 ?592 587 593 588 0 0 1 31 591 2320 0 593 594 588 0 --.0032822
83635464215 -.00183165763324311 1e-4 0 0 1 1 0 0 .0016 16 593 1899 0 ?595 590 59
6 591 0 0 1 31 594 2321 0 596 597 591 0 -0 0 1e-4 0 0 1 1 0 0 .0048 16 596 1900
 0 ?598 593 599 594 0 0 1 31 597 2322 0 599 600 594 0 --.001893058610776255 -.00
3247258019501965 1e-4 0 0 1 1 0 0 .0016 16 599 1901 0 ?601 596 602 597 0 0 1 31
 600 2323 0 602 603 597 0 -0 0 1e-4 0 0 1 1 0 0 .002999 16 602 1902 0 ?604 599 6
05 600 0 0 1 31 603 2324 0 605 606 600 0 --.00373204458551857 .00044743576159653
05 1e-4 0 0 1 1 0 0 .0016 16 605 1903 0 ?607 602 608 603 0 0 1 31 606 2325 0 608
 609 603 0 -0 0 1e-4 0 0 1 1 0 0 .0048 16 608 1904 0 ?610 605 611 606 0 0 1 31 6
09 2326 0 611 612 606 0 --.00344020696171754 -.001514374989757855 1e-4 0 0 1 1 0
 0 .0016 16 611 1905 0 ?613 608 614 609 0 0 1 31 612 2327 0 614 615 609 0 -0 0 1
e-4 0 0 1 1 0 0 .002999 16 614 1906 0 ?616 611 617 612 0 0 1 31 615 2328 0 617 6
18 612 0 --.00275629135143484 .00255562390328849 1e-4 0 0 1 1 0 0 .0016 16 617 1
907 0 ?619 614 620 615 0 0 1 31 618 2329 0 620 621 615 0 -0 0 1e-4 0 0 1 1 0 0 .
0048 16 620 1908 0 ?622 617 623 618 0 0 1 31 621 2330 0 623 624 618 0 --.0036733
13181616725 .000796947814360988 1e-4 0 0 1 1 0 0 .0016 16 623 1909 0 ?625 620 62
6 621 0 0 1 31 624 2331 0 626 627 621 0 -0 0 1e-4 0 0 1 1 0 0 .002999 16 626 191
0 0 ?628 623 629 624 0 0 1 31 627 2332 0 629 630 624 0 --.000727728504000371 .00
3687650576385925 1e-4 0 0 1 1 0 0 .0016 16 629 1911 0 ?631 626 632 627 0 0 1 31
 630 2333 0 632 633 627 0 -0 0 1e-4 0 0 1 1 0 0 .0048 16 632 1912 0 ?634 629 286
 630 0 0 1 31 633 2334 0 286 287 630 0 --.00250333861746133 .002803863640653875
 1e-4 0 0 1 1 0 0 .0016 16 286 1913 0 ?34 632 33 633 0 0 1 31 287 2335 0 33 0 63
3 0 -0 0 1e-4 0 0 1 1 0 0 .002999 17 34 0 635 42 406 12 30 286 0 38 +15 635 961
 0 406 636 0 17 42 0 635 522 34 28 38 285 0 637 -17 406 0 635 34 522 159 43 405
 0 0 +17 30 0 29 163 27 159 34 286 0 634 -17 163 0 29 166 30 161 634 632 0 631 -
17 634 0 638 43 404 159 163 632 0 406 +15 638 957 0 404 639 0 17 43 0 638 519 63
4 36 406 405 0 522 -17 404 0 638 634 519 161 158 402 0 0 +17 519 0 638 404 43 15
6 640 517 0 641 +17 158 0 642 516 631 156 404 402 0 519 -15 642 953 0 401 643 0
 17 516 0 642 401 158 153 641 514 0 644 +17 631 0 642 158 401 161 166 629 0 404
 +17 401 0 642 631 516 164 155 399 0 0 +17 166 0 29 169 163 164 631 629 0 628 -1
7 169 0 29 172 166 167 628 626 0 625 -17 628 0 645 155 398 164 169 626 0 401 +15
 645 949 0 398 646 0 17 155 0 645 513 628 153 401 399 0 516 -17 398 0 645 628 51
3 167 152 396 0 0 +17 513 0 645 398 155 150 644 511 0 647 +17 152 0 648 510 625
 150 398 396 0 513 -15 648 945 0 395 649 0 17 510 0 648 395 152 147 647 508 0 65
0 +17 625 0 648 152 395 167 172 623 0 398 +17 395 0 648 625 510 170 149 393 0 0
 +17 172 0 29 175 169 170 625 623 0 622 -17 175 0 29 178 172 173 622 620 0 619 -
17 622 0 651 149 392 170 175 620 0 395 +15 651 941 0 392 652 0 17 149 0 651 507
 622 147 395 393 0 510 -17 392 0 651 622 507 173 146 390 0 0 +17 507 0 651 392 1
49 144 650 505 0 653 +17 146 0 654 504 619 144 392 390 0 507 -15 654 937 0 389 6
55 0 17 504 0 654 389 146 141 653 502 0 656 +17 619 0 654 146 389 173 178 617 0
 392 +17 389 0 654 619 504 176 143 387 0 0 +17 178 0 29 181 175 176 619 617 0 61
6 -17 181 0 29 184 178 179 616 614 0 613 -17 616 0 657 143 386 176 181 614 0 389
 +15 657 933 0 386 658 0 17 143 0 657 501 616 141 389 387 0 504 -17 386 0 657 61
6 501 179 140 384 0 0 +17 501 0 657 386 143 138 656 499 0 659 +17 140 0 660 498
 613 138 386 384 0 501 -15 660 929 0 383 661 0 17 498 0 660 383 140 135 659 496
 0 662 +17 613 0 660 140 383 179 184 611 0 386 +17 383 0 660 613 498 182 137 381
 0 0 +17 184 0 29 187 181 182 613 611 0 610 -17 187 0 29 190 184 185 610 608 0 6
07 -17 610 0 663 137 380 182 187 608 0 383 +15 663 925 0 380 664 0 17 137 0 663
 495 610 135 383 381 0 498 -17 380 0 663 610 495 185 134 378 0 0 +17 495 0 663 3
80 137 132 662 493 0 665 +17 134 0 666 492 607 132 380 378 0 495 -15 666 921 0 3
77 667 0 17 492 0 666 377 134 129 665 490 0 668 +17 607 0 666 134 377 185 190 60
5 0 380 +17 377 0 666 607 492 188 131 375 0 0 +17 190 0 29 193 187 188 607 605 0
 604 -17 193 0 29 196 190 191 604 602 0 601 -17 604 0 669 131 374 188 193 602 0
 377 +15 669 917 0 374 670 0 17 131 0 669 489 604 129 377 375 0 492 -17 374 0 66
9 604 489 191 128 372 0 0 +17 489 0 669 374 131 126 668 487 0 671 +17 128 0 672
 486 601 126 374 372 0 489 -15 672 913 0 371 673 0 17 486 0 672 371 128 123 671
 484 0 674 +17 601 0 672 128 371 191 196 599 0 374 +17 371 0 672 601 486 194 125
 369 0 0 +17 196 0 29 199 193 194 601 599 0 598 -17 199 0 29 202 196 197 598 596
 0 595 -17 598 0 675 125 368 194 199 596 0 371 +15 675 909 0 368 676 0 17 125 0
 675 483 598 123 371 369 0 486 -17 368 0 675 598 483 197 122 366 0 0 +17 483 0 6
75 368 125 120 674 481 0 677 +17 122 0 678 480 595 120 368 366 0 483 -15 678 905
 0 365 679 0 17 480 0 678 365 122 117 677 478 0 680 +17 595 0 678 122 365 197 20
2 593 0 368 +17 365 0 678 595 480 200 119 363 0 0 +17 202 0 29 205 199 200 595 5
93 0 592 -17 205 0 29 208 202 203 592 590 0 589 -17 592 0 681 119 362 200 205 59
0 0 365 +15 681 901 0 362 682 0 17 119 0 681 477 592 117 365 363 0 480 -17 362 0
 681 592 477 203 116 360 0 0 +17 477 0 681 362 119 114 680 475 0 683 +17 116 0 6
84 474 589 114 362 360 0 477 -15 684 897 0 359 685 0 17 474 0 684 359 116 111 68
3 472 0 686 +17 589 0 684 116 359 203 208 587 0 362 +17 359 0 684 589 474 206 11
3 357 0 0 +17 208 0 29 211 205 206 589 587 0 586 -17 211 0 29 214 208 209 586 58
4 0 583 -17 586 0 687 113 356 206 211 584 0 359 +15 687 893 0 356 688 0 17 113 0
 687 471 586 111 359 357 0 474 -17 356 0 687 586 471 209 110 354 0 0 +17 471 0 6
87 356 113 108 686 469 0 689 +17 110 0 690 468 583 108 356 354 0 471 -15 690 889
 0 353 691 0 17 468 0 690 353 110 105 689 466 0 692 +17 583 0 690 110 353 209 21
4 581 0 356 +17 353 0 690 583 468 212 107 351 0 0 +17 214 0 29 217 211 212 583 5
81 0 580 -17 217 0 29 220 214 215 580 578 0 577 -17 580 0 693 107 350 212 217 57
8 0 353 +15 693 885 0 350 694 0 17 107 0 693 465 580 105 353 351 0 468 -17 350 0
 693 580 465 215 104 348 0 0 +17 465 0 693 350 107 102 692 463 0 695 +17 104 0 6
96 462 577 102 350 348 0 465 -15 696 881 0 347 697 0 17 462 0 696 347 104 99 695
 460 0 698 +17 577 0 696 104 347 215 220 575 0 350 +17 347 0 696 577 462 218 101
 345 0 0 +17 220 0 29 223 217 218 577 575 0 574 -17 223 0 29 226 220 221 574 572
 0 571 -17 574 0 699 101 344 218 223 572 0 347 +15 699 877 0 344 700 0 17 101 0
 699 459 574 99 347 345 0 462 -17 344 0 699 574 459 221 98 342 0 0 +17 459 0 699
 344 101 96 698 457 0 701 +17 98 0 702 456 571 96 344 342 0 459 -15 702 873 0 34
1 703 0 17 456 0 702 341 98 93 701 454 0 704 +17 571 0 702 98 341 221 226 569 0
 344 +17 341 0 702 571 456 224 95 339 0 0 +17 226 0 29 229 223 224 571 569 0 568
 -17 229 0 29 232 226 227 568 566 0 565 -17 568 0 705 95 338 224 229 566 0 341 +
15 705 869 0 338 706 0 17 95 0 705 453 568 93 341 339 0 456 -17 338 0 705 568 45
3 227 92 336 0 0 +17 453 0 705 338 95 90 704 451 0 707 +17 92 0 708 450 565 90 3
38 336 0 453 -15 708 865 0 335 709 0 17 450 0 708 335 92 87 707 448 0 710 +17 56
5 0 708 92 335 227 232 563 0 338 +17 335 0 708 565 450 230 89 333 0 0 +17 232 0
 29 235 229 230 565 563 0 562 -17 235 0 29 238 232 233 562 560 0 559 -17 562 0 7
11 89 332 230 235 560 0 335 +15 711 861 0 332 712 0 17 89 0 711 447 562 87 335 3
33 0 450 -17 332 0 711 562 447 233 86 330 0 0 +17 447 0 711 332 89 84 710 445 0
 713 +17 86 0 714 444 559 84 332 330 0 447 -15 714 857 0 329 715 0 17 444 0 714
 329 86 81 713 442 0 716 +17 559 0 714 86 329 233 238 557 0 332 +17 329 0 714 55
9 444 236 83 327 0 0 +17 238 0 29 241 235 236 559 557 0 556 -17 241 0 29 244 238
 239 556 554 0 553 -17 556 0 717 83 326 236 241 554 0 329 +15 717 853 0 326 718
 0 17 83 0 717 441 556 81 329 327 0 444 -17 326 0 717 556 441 239 80 324 0 0 +17
 441 0 717 326 83 78 716 439 0 719 +17 80 0 720 438 553 78 326 324 0 441 -15 720
 849 0 323 721 0 17 438 0 720 323 80 75 719 436 0 722 +17 553 0 720 80 323 239 2
44 551 0 326 +17 323 0 720 553 438 242 77 321 0 0 +17 244 0 29 247 241 242 553 5
51 0 550 -17 247 0 29 250 244 245 550 548 0 547 -17 550 0 723 77 320 242 247 548
 0 323 +15 723 845 0 320 724 0 17 77 0 723 435 550 75 323 321 0 438 -17 320 0 72
3 550 435 245 74 318 0 0 +17 435 0 723 320 77 72 722 433 0 725 +17 74 0 726 432
 547 72 320 318 0 435 -15 726 841 0 317 727 0 17 432 0 726 317 74 69 725 430 0 7
28 +17 547 0 726 74 317 245 250 545 0 320 +17 317 0 726 547 432 248 71 315 0 0 +
17 250 0 29 253 247 248 547 545 0 544 -17 253 0 29 261 250 251 544 542 0 541 -17
 544 0 729 71 314 248 253 542 0 317 +15 729 837 0 314 730 0 17 71 0 729 429 544
 69 317 315 0 432 -17 314 0 729 544 429 251 68 312 0 0 +17 429 0 729 314 71 66 7
28 427 0 731 +17 68 0 732 426 541 66 314 312 0 429 -15 732 833 0 311 733 0 17 42
6 0 732 311 68 63 731 424 0 734 +17 541 0 732 68 311 251 261 539 0 314 +17 311 0
 732 541 426 254 65 309 0 0 +17 261 0 29 264 253 254 541 539 0 538 -17 264 0 29
 267 261 262 538 536 0 535 -17 538 0 735 65 308 254 264 536 0 311 +15 735 829 0
 308 736 0 17 65 0 735 423 538 63 311 309 0 426 -17 308 0 735 538 423 262 62 306
 0 0 +17 423 0 735 308 65 60 734 421 0 737 +17 62 0 738 420 535 60 308 306 0 423
 -15 738 825 0 305 739 0 17 420 0 738 305 62 57 737 418 0 740 +17 535 0 738 62 3
05 262 267 533 0 308 +17 305 0 738 535 420 265 59 303 0 0 +17 267 0 29 269 264 2
65 535 533 0 532 -17 269 0 29 257 267 258 532 530 0 529 -17 532 0 741 59 302 265
 269 530 0 305 +15 741 821 0 302 742 0 17 59 0 741 417 532 57 305 303 0 420 -17
 302 0 741 532 417 258 56 300 0 0 +17 417 0 741 302 59 54 740 413 0 743 +17 56 0
 744 412 529 54 302 300 0 417 -15 744 817 0 299 745 0 17 412 0 744 299 56 51 743
 409 0 411 +17 529 0 744 56 299 258 257 527 0 302 +17 299 0 744 529 412 255 53 2
93 0 0 +17 257 0 29 271 269 255 529 527 0 276 -17 276 0 410 53 280 255 271 277 0
 299 +15 410 813 0 280 746 0 17 53 0 410 408 276 51 299 293 0 412 -17 280 0 410
 276 408 259 50 291 0 0 +17 50 0 278 284 273 48 280 291 0 408 -14 255 746 1693 7
47 ?745 288 410 6 748 +0 0 745 288 24 81 1 747 2964 749 746 750 0 0 751 752 14 7
45 1685 751 ?742 746 744 6 753 +0 0 742 746 24 14 288 1701 754 ?746 283 278 6 75
5 +0 0 746 283 24 51 255 748 1005 0 746 755 753 0 +0 0 -.0029 0 0 1 .0048 1 0 0
 13 24 8 0 0 0 0 0 0 10 18 14 18 1711 756 ?283 0 757 6 21 +0 0 283 0 24 81 1 756
 2967 749 18 758 0 754 759 760 14 283 1706 759 ?288 18 37 6 761 +0 0 288 18 24 1
5 757 59 0 762 18 763 51 21 68 0 18 761 7 0 -0 0 .0029 0 0 -1 .0011 -1 0 0 51 76
1 967 0 283 764 21 0 +0 0 -.0029 0 0 1 .002999 1 0 0 51 764 968 0 636 765 761 0
 +-.00250333861746133 .002803863640653875 -.0029 0 0 1 .0016 1 0 0 14 636 1397 7
66 ?20 639 635 6 764 +0 0 20 639 24 51 765 969 0 639 767 764 0 +0 0 -.0029 0 0 1
 .0048 1 0 0 14 639 1405 768 ?636 643 638 6 765 +0 0 636 643 24 51 767 970 0 643
 769 765 0 +-.000727728504000371 .003687650576385925 -.0029 0 0 1 .0016 1 0 0 14
 643 1413 770 ?639 646 642 6 767 +0 0 639 646 24 51 769 971 0 646 771 767 0 +0 0
 -.0029 0 0 1 .002999 1 0 0 14 646 1421 772 ?643 649 645 6 769 +0 0 643 649 24 5
1 771 972 0 649 773 769 0 +-.003673313181616725 .000796947814360988 -.0029 0 0 1
 .0016 1 0 0 14 649 1429 774 ?646 652 648 6 771 +0 0 646 652 24 51 773 973 0 652
 775 771 0 +0 0 -.0029 0 0 1 .0048 1 0 0 14 652 1437 776 ?649 655 651 6 773 +0 0
 649 655 24 51 775 974 0 655 777 773 0 +-.00275629135143484 .00255562390328849 -
.0029 0 0 1 .0016 1 0 0 14 655 1445 778 ?652 658 654 6 775 +0 0 652 658 24 51 77
7 975 0 658 779 775 0 +0 0 -.0029 0 0 1 .002999 1 0 0 14 658 1453 780 ?655 661 6
57 6 777 +0 0 655 661 24 51 779 976 0 661 781 777 0 +-.00344020696171754 -.00151
4374989757855 -.0029 0 0 1 .0016 1 0 0 14 661 1461 782 ?658 664 660 6 779 +0 0 6
58 664 24 51 781 977 0 664 783 779 0 +0 0 -.0029 0 0 1 .0048 1 0 0 14 664 1469 7
84 ?661 667 663 6 781 +0 0 661 667 24 51 783 978 0 667 785 781 0 +-.003732044585
51857 .0004474357615965305 -.0029 0 0 1 .0016 1 0 0 14 667 1477 786 ?664 670 666
 6 783 +0 0 664 670 24 51 785 979 0 670 787 783 0 +0 0 -.0029 0 0 1 .002999 1 0
 0 14 670 1485 788 ?667 673 669 6 785 +0 0 667 673 24 51 787 980 0 673 789 785 0
 +-.001893058610776255 -.003247258019501965 -.0029 0 0 1 .0016 1 0 0 14 673 1493
 790 ?670 676 672 6 787 +0 0 670 676 24 51 789 981 0 676 791 787 0 +0 0 -.0029 0
 0 1 .0048 1 0 0 14 676 1501 792 ?673 679 675 6 789 +0 0 673 679 24 51 791 982 0
 679 793 789 0 +-.003282283635464215 -.00183165763324311 -.0029 0 0 1 .0016 1 0
 0 14 679 1509 794 ?676 682 678 6 791 +0 0 676 682 24 51 793 983 0 682 795 791 0
 +0 0 -.0029 0 0 1 .002999 1 0 0 14 682 1517 796 ?679 685 681 6 793 +0 0 679 685
 24 51 795 984 0 685 797 793 0 +.000377173786785912 -.003739798856036985 -.0029
 0 0 1 .0016 1 0 0 14 685 1525 798 ?682 688 684 6 795 +0 0 682 688 24 51 797 985
 0 688 799 795 0 +0 0 -.0029 0 0 1 .0048 1 0 0 14 688 1533 800 ?685 691 687 6 79
7 +0 0 685 691 24 51 799 986 0 691 801 797 0 +-.001578801897380085 -.00341112006
7937065 -.0029 0 0 1 .0016 1 0 0 14 691 1541 802 ?688 694 690 6 799 +0 0 688 694
 24 51 801 987 0 694 803 799 0 +0 0 -.0029 0 0 1 .002999 1 0 0 14 694 1549 804 ?
691 697 693 6 801 +0 0 691 697 24 51 803 988 0 697 805 801 0 +.00250333861746136
5 -.002803863640653845 -.0029 0 0 1 .0016 1 0 0 14 697 1557 806 ?694 700 696 6 8
03 +0 0 694 700 24 51 805 989 0 700 807 803 0 +0 0 -.0029 0 0 1 .0048 1 0 0 14 7
00 1565 808 ?697 703 699 6 805 +0 0 697 703 24 51 807 990 0 703 809 805 0 +.0007
27728504000415 -.003687650576385905 -.0029 0 0 1 .0016 1 0 0 14 703 1573 810 ?70
0 706 702 6 807 +0 0 700 706 24 51 809 991 0 706 811 807 0 +0 0 -.0029 0 0 1 .00
2999 1 0 0 14 706 1581 812 ?703 709 705 6 809 +0 0 703 709 24 51 811 992 0 709 8
13 809 0 +.00367331318161675 -.000796947814360949 -.0029 0 0 1 .0016 1 0 0 14 70
9 1589 814 ?706 712 708 6 811 +0 0 706 712 24 51 813 993 0 712 815 811 0 +0 0 -.
0029 0 0 1 .0048 1 0 0 14 712 1597 816 ?709 715 711 6 813 +0 0 709 715 24 51 815
 994 0 715 817 813 0 +.002756291351434875 -.00255562390328846 -.0029 0 0 1 .0016
 1 0 0 14 715 1605 818 ?712 718 714 6 815 +0 0 712 718 24 51 817 995 0 718 819 8
15 0 +0 0 -.0029 0 0 1 .002999 1 0 0 14 718 1613 820 ?715 721 717 6 817 +0 0 715
 721 24 51 819 996 0 721 821 817 0 +.00344020696171755 .00151437498975789 -.0029
 0 0 1 .0016 1 0 0 14 721 1621 822 ?718 724 720 6 819 +0 0 718 724 24 51 821 997
 0 724 823 819 0 +0 0 -.0029 0 0 1 .0048 1 0 0 14 724 1629 824 ?721 727 723 6 82
1 +0 0 721 727 24 51 823 998 0 727 825 821 0 +.003732044585518595 -.000447435761
5964885 -.0029 0 0 1 .0016 1 0 0 14 727 1637 826 ?724 730 726 6 823 +0 0 724 730
 24 51 825 999 0 730 827 823 0 +0 0 -.0029 0 0 1 .002999 1 0 0 14 730 1645 828 ?
727 733 729 6 825 +0 0 727 733 24 51 827 1000 0 733 829 825 0 +.0018930586107762
5 .003247258019501995 -.0029 0 0 1 .0016 1 0 0 14 733 1653 830 ?730 736 732 6 82
7 +0 0 730 736 24 51 829 1001 0 736 831 827 0 +0 0 -.0029 0 0 1 .0048 1 0 0 14 7
36 1661 832 ?733 739 735 6 829 +0 0 733 739 24 51 831 1002 0 739 833 829 0 +.003
28228363546422 .00183165763324315 -.0029 0 0 1 .0016 1 0 0 14 739 1669 834 ?736
 742 738 6 831 +0 0 736 742 24 51 833 1003 0 742 753 831 0 +0 0 -.0029 0 0 1 .00
2999 1 0 0 14 742 1677 835 ?739 745 741 6 833 +0 0 739 745 24 51 753 1004 0 745
 748 833 0 +-.000377173786785921 .003739798856036995 -.0029 0 0 1 .0016 1 0 0 81
 1 835 3004 749 742 836 0 834 837 838 80 255 1 749 839 840 9000 1 1 1 1 1 1 1 1
 0 FFFFTFTFFFFFFF1 81 1 836 2838 841 742 0 835 842 843 844 81 1 834 3003 749 739
 843 0 832 835 845 81 1 837 3005 749 20 846 0 835 847 848 82 255 1 838 -14525395
56 14 20 256 837 ?275 636 849 6 7 -0 0 275 636 24 81 1 846 2874 841 20 0 837 850
 851 852 81 1 847 3006 749 275 851 0 837 0 853 82 1 848 -1936326310 14 275 2166
 847 ?0 20 854 6 855 +0 0 0 20 24 81 1 851 2875 841 275 0 847 846 0 856 82 1 853
 -1513684644 80 1 841 0 857 8001 0 0 0 0 3 5 0 0 0 FFFFTFTFFFFFFF2 83 255 3 856
 0 1 1 79 255 15 857 SDL/TYSA_COLOUR15 854 2168 0 858 275 29 50 855 2213 0 275 0
 755 0 +0 0 1e-4 0 0 1 1 0 0 51 755 1006 0 288 855 748 0 +.00157880189738013 .00
341112006793707 -.0029 0 0 1 .0016 1 0 0 17 858 0 854 858 858 0 524 281 0 0 -17
 524 0 763 524 524 0 858 281 0 0 +15 763 1709 0 524 18 0 81 1 850 2873 841 636 0
 766 859 846 860 83 3 852 0 1 1 81 1 766 2969 749 636 850 0 759 768 861 81 1 859
 2872 841 639 0 768 862 850 863 83 3 860 0 1 1 81 1 768 2970 749 639 859 0 766 7
70 864 81 1 862 2871 841 643 0 770 865 859 866 83 3 863 0 1 1 81 1 770 2971 749
 643 862 0 768 772 867 81 1 865 2870 841 646 0 772 868 862 869 83 3 866 0 1 1 81
 1 772 2972 749 646 865 0 770 774 870 81 1 868 2869 841 649 0 774 871 865 872 83
 3 869 0 1 1 81 1 774 2973 749 649 868 0 772 776 873 81 1 871 2868 841 652 0 776
 874 868 875 83 3 872 0 1 1 81 1 776 2974 749 652 871 0 774 778 876 81 1 874 286
7 841 655 0 778 877 871 878 83 3 875 0 1 1 81 1 778 2975 749 655 874 0 776 780 8
79 81 1 877 2866 841 658 0 780 880 874 881 83 3 878 0 1 1 81 1 780 2976 749 658
 877 0 778 782 882 81 1 880 2865 841 661 0 782 883 877 884 83 3 881 0 1 1 81 1 7
82 2977 749 661 880 0 780 784 885 81 1 883 2864 841 664 0 784 886 880 887 83 3 8
84 0 1 1 81 1 784 2978 749 664 883 0 782 786 888 81 1 886 2863 841 667 0 786 889
 883 890 83 3 887 0 1 1 81 1 786 2979 749 667 886 0 784 788 891 81 1 889 2862 84
1 670 0 788 892 886 893 83 3 890 0 1 1 81 1 788 2980 749 670 889 0 786 790 894 8
1 1 892 2861 841 673 0 790 895 889 896 83 3 893 0 1 1 81 1 790 2981 749 673 892
 0 788 792 897 81 1 895 2860 841 676 0 792 898 892 899 83 3 896 0 1 1 81 1 792 2
982 749 676 895 0 790 794 900 81 1 898 2859 841 679 0 794 901 895 902 83 3 899 0
 1 1 81 1 794 2983 749 679 898 0 792 796 903 81 1 901 2858 841 682 0 796 904 898
 905 83 3 902 0 1 1 81 1 796 2984 749 682 901 0 794 798 906 81 1 904 2857 841 68
5 0 798 907 901 908 83 3 905 0 1 1 81 1 798 2985 749 685 904 0 796 800 909 81 1
 907 2856 841 688 0 800 910 904 911 83 3 908 0 1 1 81 1 800 2986 749 688 907 0 7
98 802 912 81 1 910 2855 841 691 0 802 913 907 914 83 3 911 0 1 1 81 1 802 2987
 749 691 910 0 800 804 915 81 1 913 2854 841 694 0 804 916 910 917 83 3 914 0 1
 1 81 1 804 2988 749 694 913 0 802 806 918 81 1 916 2853 841 697 0 806 919 913 9
20 83 3 917 0 1 1 81 1 806 2989 749 697 916 0 804 808 921 81 1 919 2852 841 700
 0 808 922 916 923 83 3 920 0 1 1 81 1 808 2990 749 700 919 0 806 810 924 81 1 9
22 2851 841 703 0 810 925 919 926 83 3 923 0 1 1 81 1 810 2991 749 703 922 0 808
 812 927 81 1 925 2850 841 706 0 812 928 922 929 83 3 926 0 1 1 81 1 812 2992 74
9 706 925 0 810 814 930 81 1 928 2849 841 709 0 814 931 925 932 83 3 929 0 1 1 8
1 1 814 2993 749 709 928 0 812 816 933 81 1 931 2848 841 712 0 816 934 928 935 8
3 3 932 0 1 1 81 1 816 2994 749 712 931 0 814 818 936 81 1 934 2847 841 715 0 81
8 937 931 938 83 3 935 0 1 1 81 1 818 2995 749 715 934 0 816 820 939 81 1 937 28
46 841 718 0 820 940 934 941 83 3 938 0 1 1 81 1 820 2996 749 718 937 0 818 822
 942 81 1 940 2845 841 721 0 822 943 937 944 83 3 941 0 1 1 81 1 822 2997 749 72
1 940 0 820 824 945 81 1 943 2844 841 724 0 824 946 940 947 83 3 944 0 1 1 81 1
 824 2998 749 724 943 0 822 826 948 81 1 946 2843 841 727 0 826 949 943 950 83 3
 947 0 1 1 81 1 826 2999 749 727 946 0 824 828 951 81 1 949 2842 841 730 0 828 9
52 946 953 83 3 950 0 1 1 81 1 828 3000 749 730 949 0 826 830 954 81 1 952 2841
 841 733 0 830 955 949 956 83 3 953 0 1 1 81 1 830 3001 749 733 952 0 828 832 95
7 81 1 955 2840 841 736 0 832 843 952 958 83 3 956 0 1 1 81 1 832 3002 749 736 9
55 0 830 834 959 81 1 843 2839 841 739 0 834 836 955 960 83 3 958 0 1 1 83 3 960
 0 1 1 82 1 959 -1454112420 82 1 957 -1454898852 82 1 954 -1455685284 82 1 951 -
1456471716 82 1 948 -1457258148 82 1 945 -1458044580 82 1 942 -1458831012 82 1 9
39 -1459617444 82 1 936 -1460403876 82 1 933 -1461190308 82 1 930 -1461976740 82
 1 927 -1462763172 82 1 924 -1463549604 82 1 921 -1464336036 82 1 918 -146512246
8 82 1 915 -1465908900 82 1 912 -1466695332 82 1 909 -1467481764 82 1 906 -14682
68196 82 1 903 -1469054628 82 1 900 -1469841060 82 1 897 -1470627492 82 1 894 -1
471413924 82 1 891 -1472200356 82 1 888 -1472986788 82 1 885 -1473773220 82 1 88
2 -1474559652 82 1 879 -1475346084 82 1 876 -1476132516 82 1 873 -1476918948 82
 1 870 -1477705380 82 1 867 -1478491812 82 1 864 -1479278244 81 1 759 2968 749 2
83 961 0 756 766 962 82 1 861 -1481113252 81 1 961 2834 841 283 0 759 758 963 96
4 82 1 962 -1449721508 81 1 758 2833 841 18 0 756 0 961 965 81 1 963 2835 841 28
8 0 754 961 750 966 83 3 964 0 1 1 81 1 754 2966 749 288 963 0 751 756 967 81 1
 750 2836 841 746 0 747 963 842 968 83 3 966 0 1 1 81 1 842 2837 841 745 0 751 7
50 836 969 83 3 968 0 1 1 81 1 751 2965 749 745 842 0 747 754 970 83 3 969 0 1 1
 82 1 970 -1451753124 82 1 967 -1450180260 83 3 965 0 1 1 15 849 38 0 25 20 971
 17 25 0 849 25 25 0 762 11 0 0 +15 971 254 0 40 20 0 17 40 0 971 289 637 44 35
 41 0 0 -17 289 0 971 411 40 48 284 290 0 0 -17 637 0 971 40 640 28 522 520 0 0
 -17 640 0 971 637 641 36 519 517 0 0 -17 522 0 635 406 42 36 637 520 0 640 +17
 641 0 971 640 644 156 516 514 0 0 -17 644 0 971 641 647 153 513 511 0 0 -17 647
 0 971 644 650 150 510 508 0 0 -17 650 0 971 647 653 147 507 505 0 0 -17 653 0 9
71 650 656 144 504 502 0 0 -17 656 0 971 653 659 141 501 499 0 0 -17 659 0 971 6
56 662 138 498 496 0 0 -17 662 0 971 659 665 135 495 493 0 0 -17 665 0 971 662 6
68 132 492 490 0 0 -17 668 0 971 665 671 129 489 487 0 0 -17 671 0 971 668 674 1
26 486 484 0 0 -17 674 0 971 671 677 123 483 481 0 0 -17 677 0 971 674 680 120 4
80 478 0 0 -17 680 0 971 677 683 117 477 475 0 0 -17 683 0 971 680 686 114 474 4
72 0 0 -17 686 0 971 683 689 111 471 469 0 0 -17 689 0 971 686 692 108 468 466 0
 0 -17 692 0 971 689 695 105 465 463 0 0 -17 695 0 971 692 698 102 462 460 0 0 -
17 698 0 971 695 701 99 459 457 0 0 -17 701 0 971 698 704 96 456 454 0 0 -17 704
 0 971 701 707 93 453 451 0 0 -17 707 0 971 704 710 90 450 448 0 0 -17 710 0 971
 707 713 87 447 445 0 0 -17 713 0 971 710 716 84 444 442 0 0 -17 716 0 971 713 7
19 81 441 439 0 0 -17 719 0 971 716 722 78 438 436 0 0 -17 722 0 971 719 725 75
 435 433 0 0 -17 725 0 971 722 728 72 432 430 0 0 -17 728 0 971 725 731 69 429 4
27 0 0 -17 731 0 971 728 734 66 426 424 0 0 -17 734 0 971 731 737 63 423 421 0 0
 -17 737 0 971 734 740 60 420 418 0 0 -17 740 0 971 737 743 57 417 413 0 0 -17 7
43 0 971 740 411 54 412 409 0 0 -17 411 0 971 743 289 51 408 407 0 0 -17 762 0 7
57 762 762 0 25 11 0 0 -82 1 845 -1453325988 83 3 844 0 1 1 79 14 840 SWEntUncha
nged82 1 760 -1449262756 82 1 752 -1450966692 19 19 30 0 1 0 10 6 S0 50 17 1383
 0 1 972 4 0 +0 0 1e-4 0 0 1 1 0 0 50 972 1381 0 1 973 17 0 +0 0 1e-4 0 0 1 1 0
 0 50 973 1380 0 1 0 972 0 +0 0 1e-4 0 0 1 1 0 0 74 4 CI16 index_map_offset0 0 1
 dCCZ20 16 8 0 0 974 975 847 976 977 14 851 2 0 0 0 0 0 0 0 0 0 0 0 0 81 2 974 3
5 978 1 0 975 0 0 0 979 81 2 975 86 980 1 974 976 0 0 0 981 81 1 976 2465 982 1
 975 977 0 0 983 81 2 977 2554 984 1 976 14 0 0 0 985 81 2 14 2788 986 1 977 2 0
 0 0 0 80 2 986 987 988 9000 0 0 0 0 3 5 0 0 0 FFTFFFFFFFFFFF9 1 79 16 988 BODY_
RECIPE_200180 2 984 989 990 9000 0 0 0 0 3 5 0 0 0 FFTFFFFFFFFFFF9 1 82 1 985 1
 79 24 990 BODY_IN_LIGHTWEIGHT_PERM80 1 982 991 992 9000 1 1 1 1 1 1 1 1 0 FFTFF
FFFFFFFFF1 82 1 983 4685455 79 10 992 BODY_MATCH80 2 980 993 994 9000 0 0 0 0 3
 5 0 0 0 FFTFFFFFFFFFFF9 1 82 1 981 58 79 30 994 LAST_BODY_MODIFYING_FEATURE_ID8
0 2 978 995 996 9000 0 0 0 0 3 5 0 0 0 FFTFFFFFFFFFFT9 1 82 1 979 162 79 19 996
 ENT_TIME_STAMP_200180 2 13 997 998 9000 0 0 0 0 3 5 0 0 0 FFTFFFFFFFFFFF9 1 82
 1 15 103 79 12 998 ATOM_ID_20011 0 
