**ABCDEFGHIJKLMNOPQRSTUVWXYZabcdefghijklmnopqrstuvwxyz**************************
**PARASOLID !"#$%&'()*+,-./:;<=>?@[\]^_`{|}~0123456789**************************
**PART1;
MC=AMD64;
MC_MODEL=Intel64 Family 6 Model 78 Stepping 3, GenuineIntel;
MC_ID=unknown;
OS=Windows_NT;
OS_RELEASE=unknown;
FRU=Parasolid Version 31.1, build 290,  3- 9-2020;
APPL=SOLIDWORKS 2020-2020128;
SITE=;
USER=unknown;
FORMAT=text;
GUISE=transmit;
KEY=Rotator Base Right;
FILE=Rotator Base Right.x_t;
DATE=Sun Nov 29 01:24:50 2020;
**PART2;
SCH=SCH_3101290_31100;
USFLD_SIZE=0;
**PART3;
**END_OF_HEADER*****************************************************************
T51 : TRANSMIT FILE created by modeller version 310129023 SCH_3101290_31100_1300
6222 0 12 34 CCCCCCI4 mesh1006 0 I8 polyline1008 0 CCCCCCCDI5 owner1040 0 CCCCCC
I13 boundary_mesh1006 0 I17 boundary_polyline1008 0 CCCA16 index_map_offset0 0 1
 dA9 index_map82 0 A17 node_id_index_map82 0 A20 schema_embedding_map82 0 A5 chi
ld12 0 A14 lowest_node_id0 0 1 dA16 mesh_offset_data206 0 Z1 27970 2 3 4 0 0 0 0
 0 1e3 1e-8 0 5 0 1 0 1 1 6 7 8 9 0 0 10 11 12 0 0 0 0 0 0 0 81 255 2 2 27926 13
 1 14 0 0 0 0 15 70 11 CI9 list_type0 0 1 uI10 notransmit0 0 1 lCCCDCCDI12 finge
r_index0 0 1 dI12 finger_block1012 0 CZ3 0 4 T1 0 0 9 20 1 16 16 50 255 4 25245
 0 1 17 0 0 +0 0 .0425 0 0 1 1 0 0 13 255 6 29 0 1 0 18 0 0 19 0 54 255 7 27209
 0 20 21 0 0 +0 .0126 .0393 0 0 1 .0023 3e-4 1 0 0 31 255 8 27164 0 11 22 0 0 -0
 .0126 .039 0 0 1 1 0 0 .0023 29 255 9 26196 0 12 23 0 -.0147709144496077 .00313
529684756806 .0317 19 8 CCCCCCCA5 owner12 0 Z10 7 0 1 19 0 24 V0 16 255 11 27161
 0 ?25 0 26 8 0 0 1 18 255 12 26194 0 27 0 28 9 ?1 17 255 27 0 29 30 31 12 32 33
 0 34 +18 28 26191 0 35 12 36 23 ?1 17 35 0 37 38 39 28 40 41 0 42 -18 36 26181
 0 43 28 44 45 ?1 29 23 26193 0 28 45 9 -.0170815627918361 .00380397326338679 .0
317 29 45 26183 0 36 46 23 -.0131747986757082 .00737798616524574 .032 29 46 2617
9 0 44 47 45 -.01536612498119535 .00837449718265424 .032 18 44 26177 0 48 36 49
 46 ?1 29 47 26169 0 49 50 46 -.0171541576804814 .00346191771611928 .032 18 49 2
6167 0 51 44 52 47 ?1 29 50 26165 0 52 53 47 -.01483495940619622 .00281673204556
4575 .032 18 52 26163 0 31 49 54 50 ?1 29 53 26157 0 54 55 50 -.0133305069002138
6 .00709278406433967 .0317 18 54 26155 0 56 52 57 53 ?1 29 55 26154 0 57 58 53 -
.01553038313775785 .00806580433648414 .0317 18 57 26152 0 59 54 60 55 ?1 29 58 2
6050 0 60 61 55 -.01553038313775785 .00806580433648414 .028 18 60 26048 0 62 57
 63 58 ?1 29 61 25975 0 63 64 58 -.0147709144496077 .00313529684756806 .028 18 6
3 25973 0 30 60 65 61 ?1 29 64 25265 0 65 66 61 -.00515 -.00615 0 18 65 25263 0
 67 63 68 64 ?1 29 66 3401 0 68 69 64 -.00505 -.00463578643762691 .034 18 68 339
9 0 70 65 71 66 ?1 29 69 3628 0 71 72 66 -.0036357864376269 .00605 .032 18 71 35
38 0 73 68 74 69 1e-8 1 29 72 3632 0 74 75 69 .0036357864376269 -.00605 .034 18
 74 3541 0 76 71 77 72 ?1 29 75 3633 0 77 78 72 .00505 -.00463578643762691 .034
 18 77 3542 0 79 74 80 75 ?1 29 78 3634 0 80 81 75 .00505 .00463578643762691 .03
4 18 80 3543 0 82 77 83 78 ?1 29 81 3635 0 83 84 78 .0036357864376269 .00605 .03
4 18 83 3544 0 85 80 86 81 ?1 29 84 3636 0 86 87 81 -.0036357864376269 .00605 .0
34 18 86 3545 0 88 83 89 84 ?1 29 87 3637 0 89 90 84 -.00505 .00463578643762691
 .034 18 89 3546 0 91 86 92 87 ?1 29 90 3638 0 92 93 87 -.0036357864376269 -.006
05 .034 18 92 3548 0 94 89 95 90 ?1 29 93 25489 0 95 96 90 -.00515 .00615 0 18 9
5 25370 0 97 92 98 93 ?1 29 96 25490 0 98 99 93 .00515 .00615 0 18 98 25374 0 10
0 95 101 96 ?1 29 99 25491 0 101 102 96 .00515 -.00615 0 18 101 25367 0 103 98 1
04 99 ?1 29 102 25900 0 104 105 99 -.00505 .00463578643762691 .032 18 104 25751
 0 106 101 107 102 1e-8 1 29 105 25902 0 107 108 102 .0036357864376269 .00605 .0
32 18 107 25750 0 109 104 110 105 1e-8 1 29 108 25903 0 110 111 105 .00505 .0046
3578643762691 .032 18 110 25764 0 112 107 113 108 1e-8 1 29 111 25904 0 113 114
 108 .00505 -.00463578643762691 .032 18 113 25748 0 115 110 116 111 1e-8 1 29 11
4 25906 0 116 117 111 .0036357864376269 -.00605 .032 18 116 25760 0 118 113 119
 114 1e-8 1 29 117 25907 0 119 120 114 -.00505 -.00463578643762691 .032 18 119 2
5752 0 121 116 122 117 1e-8 1 29 120 25908 0 122 123 117 -.0036357864376269 -.00
605 .032 18 122 25753 0 124 119 125 120 1e-8 1 29 123 25913 0 125 126 120 .00515
 .00615 .032 18 125 25768 0 127 122 128 123 ?1 29 126 25914 0 129 130 123 -.0051
5 -.00615 .032 18 129 25766 0 131 128 132 126 ?1 29 130 25915 0 132 133 126 -.00
515 .00615 .032 18 132 25765 0 134 129 135 130 ?1 29 133 25920 0 128 136 130 .00
515 -.00615 .032 18 128 25767 0 137 125 129 133 ?1 29 136 26039 0 135 138 133 -.
01333050690021386 .00709278406433967 .028 18 135 26007 0 139 132 140 136 ?1 29 1
38 26130 0 140 0 136 -.0170815627918361 .00380397326338679 .028 18 140 26089 0 1
41 135 0 138 ?1 17 141 0 142 143 42 140 144 145 0 146 +15 255 142 25205 0 34 147
 0 17 143 0 142 34 141 63 148 149 0 0 -17 42 0 142 141 34 28 38 150 0 144 +17 14
4 0 151 40 146 28 141 145 0 0 -16 145 26192 0 ?141 152 153 154 0 0 1 17 146 0 15
1 144 62 140 155 156 0 148 +15 151 26108 0 48 157 0 17 62 0 151 146 59 60 158 15
2 0 155 +17 155 0 159 160 148 60 146 156 0 161 -16 156 26077 0 ?146 153 162 163
 0 0 1 17 148 0 159 155 164 140 143 149 0 0 +15 159 26052 0 155 165 0 17 164 0 1
59 148 160 63 166 167 0 143 -16 149 25974 0 ?148 168 169 170 169 169 1 16 168 25
063 0 ?171 172 149 173 0 0 1 16 169 26049 0 ?160 149 174 170 149 149 1 31 170 25
220 0 149 175 173 0 +-.0153169897188103 .00557492833620836 .028 0 0 -1 -1 0 0 .0
025 30 255 175 25461 0 176 177 170 0 +-.00515 -.00615 .0480430670384437 0 0 -1 3
1 173 25085 0 168 170 178 0 +-.010911920087684 -.0062999999999999 .034 0 0 1 -.4
99999999999992 .866025403784443 0 .0036 31 178 25051 0 172 173 179 0 +.010911920
0876839 -.0063 .034 0 0 1 -.5 -.866025403784437 0 .0036 16 172 25029 0 ?180 181
 168 178 0 0 1 31 179 24964 0 181 178 182 0 +0 .0126 .034 0 0 1 1 0 0 .0036 16 1
81 24942 0 ?183 184 172 179 0 0 1 31 182 24896 0 185 179 186 0 +0 0 .032 0 0 1 1
 0 0 .018 16 185 24859 0 ?187 188 184 182 0 0 1 31 186 24895 0 184 182 189 0 +0
 0 .034 0 0 1 1 0 0 .018 16 184 24865 0 ?190 185 181 186 0 0 1 30 189 3622 0 191
 186 192 0 +-.00505 -.00463578643762691 .034 0 1 0 16 191 3505 0 ?193 194 195 18
9 0 0 1 30 192 3621 0 194 189 196 0 +-.00505 .00463578643762691 .034 .7071067811
86549 .707106781186547 0 16 194 3503 0 ?197 198 191 192 0 0 1 30 196 3620 0 198
 192 199 0 +-.0036357864376269 .00605 .034 1 0 0 16 198 3501 0 ?200 201 194 196
 0 0 1 30 199 3619 0 201 196 202 0 +.00505 .00463578643762691 .034 .707106781186
549 -.707106781186547 0 16 201 3499 0 ?203 204 198 199 0 0 1 30 202 3618 0 204 1
99 205 0 +.00505 .00463578643762691 .034 0 -1 0 16 204 3497 0 ?206 207 201 202 0
 0 1 30 205 3617 0 207 202 208 0 +.00505 -.00463578643762691 .034 -.707106781186
549 -.707106781186547 0 16 207 3495 0 ?209 210 204 205 0 0 1 30 208 3616 0 210 2
05 211 0 +.0036357864376269 -.00605 .034 -1 0 0 16 210 3493 0 ?212 213 207 208 0
 0 1 30 211 3614 0 1 208 214 215 +-.00505 -.00463578643762691 .032 -.70710678118
6549 .707106781186547 0 30 214 3612 0 1 211 216 217 +-.00505 .00463578643762691
 .032 .707106781186549 .707106781186547 0 141 255 215 218 215 215 211 133 255 21
8 3653 0 213 219 220 0 +211 -.0036357864376269 -.00605 .032 -.00505 -.0046357864
3762691 .032 -.002 0 16 213 3512 0 ?221 222 210 218 0 0 1 30 219 3652 0 1 223 21
8 224 +-.0036357864376269 -.00605 .034001 0 0 -1 133 220 3654 0 225 218 226 0 +2
26 -.00505 -.00463578643762691 .034 -.00505 -.00463578643762691 .032 10000000000
01e-18 .002001 16 225 3508 0 ?227 228 229 220 0 0 1 30 226 3655 0 1 220 230 231
 +-.00505 -.00463578643762691 .034001 0 0 -1 133 230 3658 0 228 226 232 0 +232 -
.00505 .00463578643762691 .034 -.00505 .00463578643762691 .032 1000000000001e-18
 .002001 141 231 220 231 231 226 16 228 3506 0 ?233 234 225 230 0 0 1 30 232 365
9 0 1 230 235 236 +-.00505 .00463578643762691 .034001 0 0 -1 133 235 3660 0 222
 232 237 0 +214 -.00505 .00463578643762691 .032 -.0036357864376269 .00605 .032 0
 .002 141 236 230 236 236 232 16 222 3518 0 ?238 239 213 235 0 0 1 133 237 3661
 0 234 235 240 0 +240 -.0036357864376269 .00605 .034 -.0036357864376269 .00605 .
032 1000000000001e-18 .002001 16 234 3504 0 ?241 242 228 237 0 0 1 30 240 3662 0
 1 237 243 244 +-.0036357864376269 .00605 .034001 0 0 -1 133 243 3665 0 242 240
 245 0 +245 .0036357864376269 .00605 .034 .0036357864376269 .00605 .032 10000000
00001e-18 .002001 141 244 237 244 244 240 16 242 3502 0 ?246 247 234 243 0 0 1 3
0 245 3666 0 1 243 248 249 +.0036357864376269 .00605 .034001 0 0 -1 133 248 3667
 0 239 245 250 0 +216 .0036357864376269 .00605 .032 .00505 .00463578643762691 .0
32 -.002 0 141 249 243 249 249 245 16 239 3524 0 ?251 252 222 248 0 0 1 133 250
 3668 0 247 248 253 0 +253 .00505 .00463578643762691 .034 .00505 .00463578643762
691 .032 1000000000001e-18 .002001 30 216 3610 0 1 214 254 255 +.00505 .00463578
643762691 .032 .707106781186549 -.707106781186547 0 30 254 3608 0 1 216 256 257
 +.00505 -.00463578643762691 .032 -.707106781186549 -.707106781186547 0 141 255
 248 255 255 216 30 256 3599 0 258 254 259 0 +-.00505 -.00463578643762691 .034 -
.707106781186549 .707106781186547 0 141 257 260 257 257 254 133 260 3642 0 252 2
59 261 0 +254 .00505 -.0046357864376269 .032 .0036357864376269 -.00605 .032 -858
64431334269e-31 .002 16 252 3530 0 ?262 229 239 260 0 0 1 31 259 23 0 263 256 26
0 0 +0 0 0 0 0 1 1 0 0 .0097 133 261 3645 0 264 260 265 0 +265 .00505 -.00463578
643762691 .034 .00505 -.00463578643762691 .032 1000000000001e-18 .002001 16 264
 3498 0 ?266 267 247 261 0 0 1 30 265 3646 0 1 261 268 269 +.00505 -.00463578643
762691 .034001 0 0 -1 133 268 3647 0 267 265 270 0 +270 .0036357864376269 -.0060
5 .034 .0036357864376269 -.00605 .032 1000000000001e-18 .002001 141 269 261 269
 269 265 16 267 3496 0 ?271 258 264 268 0 0 1 30 270 3648 0 1 268 223 272 +.0036
357864376269 -.00605 .034001 0 0 -1 133 223 3651 0 229 270 219 0 +219 -.00363578
64376269 -.00605 .034 -.0036357864376269 -.00605 .032 1000000000001e-18 .002001
 141 272 268 272 272 270 16 229 3494 0 ?273 225 252 223 0 0 1 17 273 0 274 221 9
4 122 275 229 0 276 +15 274 3580 0 273 277 0 17 221 0 274 70 273 119 276 213 0 0
 +17 94 0 274 273 70 92 278 258 0 275 -17 275 0 279 76 124 92 273 229 0 212 -17
 276 0 280 118 121 122 221 213 0 0 -15 280 25942 0 121 281 282 17 118 0 280 283
 276 116 124 284 0 271 +17 121 0 280 276 285 119 106 286 0 227 +17 285 0 280 121
 73 104 238 222 0 0 -17 106 0 287 288 227 104 121 286 0 233 -16 286 25710 0 ?121
 176 289 290 0 0 1 17 227 0 287 106 291 119 70 225 0 221 +15 287 25693 0 106 292
 0 17 291 0 287 227 288 68 193 191 0 278 -17 70 0 274 94 221 68 227 225 0 291 -1
7 288 0 287 291 106 89 233 228 0 193 -17 193 0 293 197 278 89 291 191 0 0 +17 27
8 0 293 193 212 68 94 258 0 0 +15 293 3431 0 212 294 295 17 212 0 293 278 209 92
 76 210 0 0 +16 258 3507 0 ?278 263 267 256 0 0 1 16 263 18 0 ?296 297 258 259 0
 0 1 17 296 0 298 296 296 0 299 263 0 0 +16 297 24850 0 ?300 301 263 302 0 0 1 1
7 300 0 303 300 300 0 304 297 0 0 +16 301 26158 0 ?305 306 297 307 0 0 1 31 302
 24853 0 297 308 309 0 +0 0 .032 0 0 1 1 0 0 .0097 38 12 CCCCCCCCCCCA17 intersec
tion_data204 0 Z308 3934 0 310 311 302 0 +312 313 314 315 315 316 31 309 25249 0
 317 302 318 0 --.00515 -3691663595570475e-34 .0048 -1 716827882635045e-31 0 -71
6827882635045e-31 -1 0 .0015 16 317 25336 0 ?319 174 320 309 0 0 1 31 318 25256
 0 174 309 307 0 -.00515 369166359557048e-33 .0048 1 716827882635045e-31 0 -7168
27882635045e-31 1 0 .0015 16 174 25329 0 ?321 169 317 318 0 0 1 31 307 26160 0 3
01 318 322 0 --.0153169897188103 .00557492833620836 .0317 0 0 1 1 0 0 .0025 31 3
22 26170 0 306 307 323 0 +-.0153169897188103 .00557492833620836 .032 0 0 1 1 0 0
 .0028 16 306 26168 0 ?324 325 301 322 0 0 1 31 323 26184 0 325 322 326 0 +-.015
3169897188103 .00557492833620836 .032 0 0 1 1 0 0 .0028 16 325 26182 0 ?327 150
 306 323 0 0 1 31 326 26199 0 150 323 328 0 --.0153169897188103 .005574928336208
36 .0317 0 0 1 1 0 0 .0025 16 150 26197 0 ?42 329 325 326 0 0 1 38 328 26402 0 3
29 326 330 0 +331 332 333 334 335 336 16 329 26202 0 ?337 338 150 328 0 0 1 38 3
30 26403 0 338 328 339 0 +340 332 341 342 343 344 51 255 331 26028 0 345 340 346
 347 +0 0 .0368365042905109 0 0 -1 .0151 -1 0 0 54 332 26429 0 348 312 349 350 +
-.0153169897188103 .00557492833620836 .0317 0 0 1 .0028 3e-4 1 0 0 40 255 6 333
 0 1 6 1687701476232345e-20 .3435076359600565 ??-.01333050690021386 .00709278406
433967 .0317 -.01332288307888792 .00710709409437373 .03179292656113865 -.0133012
9223874086 .00714742084808304 .0318752571338064 -.01326707451745274 .00721073739
282995 .03194192717053585 -.01322070840918746 .0072954005482386 .031986773405603
4 -.0131747986757082 .00737798616524574 .032 41 3 CI8 term_use0 0 1 cCZ1 334 L?-
.01333050690021386 .00709278406433967 .0317 41 1 335 L?-.0131747986757082 .00737
798616524574 .032 204 2 17 INTERSECTION_DATA17 Intersection data7 uv_type0 0 1 u
6 values0 1 1 fT24 336 4 .488974489178411 .00513650429051091 .652459185141659 -3
.141592653589795 .490048275940268 .00504357772937224 .655140128209513 2.82665709
092909 .493077607169411 .0049612471567045 .662502931372131 2.517710412930405 .49
7843908798794 .00489457711997506 .673513303178976 2.203513191042435 .50423650627
1182 .00484973088490751 .6872514987222 1.868844912961105 .510494036938028 .00483
650429051091 .699649047975948 1.57079632679489 14 255 348 26417 351 ?352 157 353
 6 332 -0 0 352 157 24 51 312 28 0 354 355 332 356 -0 0 .034 0 0 -1 .0097 -1 0 0
 54 349 26450 0 352 332 357 358 +-.0153169897188103 .00557492833620836 .0317 0 0
 1 .0028 3e-4 1 0 0 141 350 328 359 359 332 141 359 330 350 350 332 14 352 26438
 360 ?361 348 37 6 349 -0 0 361 348 24 54 357 27183 0 362 349 21 0 +.01091192008
76839 -.0063 .0393 0 0 1 .0023 3e-4 1 0 0 141 358 339 363 363 349 38 339 26404 0
 41 330 364 0 +340 349 365 366 367 368 141 363 364 358 358 349 38 364 26405 0 33
 339 369 0 +331 349 370 371 372 373 16 33 26214 0 ?27 374 41 364 0 0 1 31 369 27
123 0 374 364 375 0 +.0109119200876839 -.0063 .0393 0 0 1 1 0 0 .002 40 6 370 0
 1 6 2084768872534285e-20 .369335648118368 ??-.01483495940619622 .00281673204556
4575 .032 -.01481335038280442 .00292825040532194 .03198071372288605 -.0147934875
5257732 .00302699950970258 .0319246325577692 -.01477866762160804 .00309854535710
4515 .03183914089015725 -.01477156420425432 .00313223418019664 .0317412331050619
5 -.0147709144496077 .00313529684756804 .0317 41 1 371 L?-.01483495940619622 .00
2816732045564575 .032 41 1 372 L?-.0147709144496077 .00313529684756804 .0317 204
 24 373 4 .1876376638596985 .00483650429051091 4.88540455840591 1.57079632679489
5 .195160374910516 .00485579056762489 4.90043189893505 1.931319459021625 .201831
045950698 .00491187173274169 4.91503075894667 2.29538037050503 .206669767199604
 .00499736340035364 4.92644116984464 2.65930966779354 .208949871714202 .00509527
118544896 4.93207379672109 3.00371251344348 .2091572116193135 .00513650429051092
 4.9325944212402 -3.14159265358977 16 374 27120 0 ?376 377 33 369 0 0 1 31 375 2
7132 0 377 369 378 0 -.0109119200876839 -.0063 .039 0 0 1 1 0 0 .0023 16 377 271
29 0 ?379 380 374 375 0 0 1 31 378 27139 0 380 375 381 0 +-.010911920087684 -.00
62999999999999 .0393 0 0 1 1 0 0 .002 16 380 27136 0 ?382 383 377 378 0 0 1 31 3
81 27148 0 383 378 22 0 --.010911920087684 -.0062999999999999 .039 0 0 1 1 0 0 .
0023 16 383 27145 0 ?384 26 380 381 0 0 1 31 22 27155 0 26 381 8 0 +0 .0126 .039
3 0 0 1 1 0 0 .002 16 26 27152 0 ?385 11 383 22 0 0 1 17 385 0 386 385 385 0 387
 26 0 0 +15 386 27153 0 385 18 388 17 387 0 389 387 387 0 385 26 0 0 -15 389 272
04 0 387 20 0 14 20 27202 390 ?0 391 392 6 7 -0 0 0 391 24 81 1 390 27929 393 20
 394 0 360 395 396 14 391 27189 395 ?20 362 397 6 21 -0 0 20 362 24 15 392 27203
 0 398 20 389 13 24 8 0 0 0 0 0 0 10 18 14 18 26989 399 ?400 0 386 6 401 -0 0 40
0 0 24 81 1 399 27931 393 18 402 0 395 403 404 14 400 26981 403 ?405 18 406 6 40
7 -0 0 405 18 24 51 401 25004 0 18 408 409 0 -0 .0126 .052 0 0 -1 .002 -1 0 0 51
 408 25048 0 410 411 401 0 -.0109119200876839 -.0063 .0465 0 0 -1 .0036 -1 0 0 5
1 409 24961 0 412 401 413 0 -0 .0126 .0465 0 0 -1 .0036 -1 0 0 14 412 26792 414
 ?410 405 415 6 409 -0 0 410 405 24 50 413 24893 0 416 409 417 0 +0 0 .032 0 0 1
 1 0 0 14 416 25183 418 ?294 419 420 6 413 -0 0 294 419 24 51 417 24891 0 421 41
3 313 0 +0 0 .032 0 0 1 .018 1 0 0 14 421 24871 422 ?147 423 424 6 417 +0 0 147
 423 24 51 313 3998 0 423 417 425 426 +.0125 896034853293805e-33 .0048 -1 -71682
7882635044e-31 0 .0015 716827882635044e-31 -1 0 14 423 3970 427 ?421 428 429 6 3
13 -428 428 421 428 24 51 425 3800 0 430 313 431 432 +-.00745 -.0123605149146513
6 .013 0 1 0 .0016 0 0 1 141 426 311 433 433 313 38 311 3927 0 188 434 308 0 +31
2 313 435 436 436 437 141 433 308 426 426 313 16 188 3958 0 ?438 310 185 311 0 0
 1 38 434 3765 0 439 440 311 0 +312 425 441 442 442 443 40 20 435 0 1 20 8596718
12377997e-19 .3409911904177055 ??.00958331884056875 -.0015 .0048 .00959599819891
107 -.001416622238458614 .0052931342956077 .00962839859436753 -.0011764100084500
24 .00573062317401761 .00966669912406148 -.00080307412165319 .00606691434403868
 .00969416422066582 -.000336422446876959 .00626178655666185 .00969859483929 .000
165100403686292 .00629088626551546 .00967860702119826 .000643868099234419 .00615
478185357948 .00964272221231385 .001052572247472354 .00586868688765746 .00960599
676789094 .001347154814885398 .00545967712157622 .00958491459297028 .00148976919
201106 .00497489355201012 .00958882801904619 .001464369222960786 .00447500341717
916 .0096154836497187 .001277683130510938 .00401417189029167 .00965355986619545
 .000948041090765848 .00363758093175503 .00968667297393238 .000508297841907721 .
00338874761154783 .00969999256396578 1201078717867502e-20 .003300048087107005 .0
0968808496136309 -.000480634769248281 .0033790882439118 .00965635699322844 -.000
919113496434605 .003614575864649385 .00961795916263154 -.001258912842873588 .003
984439791279675 .009589739341398 -.001458389304693166 .004449142997851575 .00958
331884056875 -.0015 .0048 41 1 436 H?.00958331884056875 -.0015 .0048 204 80 437
 4 3.296854878542865 .0292 0 .00291668115943125 3.288160383725435 .0287068657043
923 .334986263628263 .002904001801088935 3.263171331287265 .0282693768259824 .66
9272317474965 .00287160140563247 3.22447867332395 .02793308565596135 1.005835479
38588 .002833300875938525 3.176282337098035 .02773821344333815 1.34459050128171
 .00280583577933418 3.124571171486435 .02770911373448455 1.681086721498535 .0028
01405160710005 3.075165657779915 .0278452181464205 2.0144534520682 .002821392978
80174 3.03286595867588 .02813131311234255 2.348597902894225 .00285727778768615 3
.002260330049665 .0285403228784238 2.686233668589615 .002894003232109065 2.98739
7903848025 .0290251064479899 3.02473114509946 .002915085407029715 2.990047355726
685 .02952499658282085 3.35998904799454 .002911171980953815 3.009488845269645 .0
2998582810970835 3.692998706527625 .002884516350281295 3.04370018402421 .0303624
1906824495 4.028222376771645 .002846440133804555 3.08916680237243 .0306112523884
5215 4.36667847825845 .002813327026067625 3.140354427791045 .030699951912893 4.7
0438170336611 .002800007436034225 3.191162928086765 .0306209117560882 5.03856516
770381 .002811915038636915 3.23648898672434 .0303854241353506 5.37191498565242 .
002843643006771565 3.27174462397209 .03001556020872035 5.7083378092298 .00288204
0837368465 3.292514347201195 .02955085700214845 6.04709347589453 .00291026065860
2 3.296854878542865 .0292 0 .00291668115943125 16 439 3770 0 ?444 445 446 434 0
 0 1 38 440 3759 0 446 447 434 0 +312 425 448 449 449 450 40 21 441 0 1 21 .0002
66416480178428 .3952407298757565 ??-.00745 -.0062118837722546 .0146 -.0067443174
8598301 -.00697166993253868 .01443597081774346 -.0063230979085155 -.007355843448
53307 .0141358220266432 -.00603736342851666 -.00759211715083543 .013751304144077
36 -.00587078264214023 -.00772165210099141 .01325704578703882 -.0058630252181348
7 -.00772754393656319 .01279625741308178 -.0059714762560896 -.0076440480978967 .
01238847114647534 -.00617842514354222 -.0074777712418638 .01202886798815796 -.00
648282690777294 -.00721546639406318 .0117254113566833 -.00700798359815145 -.0067
0657631642557 .0114622674158044 -.00772368427238477 -.00586810883168642 .0114235
8098240054 -.00852140029553108 -.00463419216296895 .01181168126887774 -.00879379
279298575 -.00409380120597372 .01213154106054484 -.00899774373225897 -.003623618
043971295 .01259442714679966 -.00903727868619267 -.003523860659573195 .012798638
7019349 -.0090497378942802 -.003491739401047695 .01302895979288506 -.00903366580
872209 -.003533112233757295 .01322804079960528 -.00897732050381316 -.00367392386
581648 .01347675159006754 -.00881283398697026 -.00405264816115363 .0138382622047
777 -.00829732805629589 -.00502437529710959 .0143572159610813 -.00745 -.00621188
37722546 .0146 41 1 442 H?-.00745 -.0062118837722546 .0146 204 84 443 4 5.588165
84306874 .0194 0 .00614863114239677 5.48121293581585 .01956402918225655 .4567700
27477568 .0053888449821127 5.4224311677942 .0198641779733568 .78145606153826 .00
50046714661183 5.38420525947189 .02024869585592265 1.081998207076754 .0047683977
6381594 5.36245043037109 .0207429542129612 1.409443490924004 .00463886281365996
 5.36144618091571 .0212037425869182 1.69848211854726 .00463297097808818 5.375556
52658523 .02161152885352465 1.962978189819695 .00471646681675467 5.4029257160103
 .02197113201184205 2.223022981057225 .00488274367278757 5.44435405648594 .02227
45886433167 2.492475710408475 .00514504852058819 5.51976078139564 .0225377325841
956 2.86169191534273 .00565393859822581 5.63347008603048 .02257641901759945 3.31
3490640537955 .00649240608296495 5.78509156562032 .02218831873112225 3.875296659
81124 .00772632275168242 5.84748943883485 .02186845893945515 4.13863724029412 .0
0826671370867765 5.90033183924072 .02140557285320035 4.456109784057885 .00873689
687068008 5.91139435579639 .0212013612980651 4.58620356560622 .00883665425507818
 5.91494621020127 .02097104020711495 4.73048983935254 .00886877551360367 5.91037
043882532 .02077195920039475 4.85540147747466 .00882740268089407 5.8947345640547
8 .02052324840993245 5.01495405776957 .00868659104883489 5.85216415255389 .02016
17377952223 5.26382845922346 .00830786675349774 5.73870123829036 .01964278403891
87 5.72507990813964 .00733613961754178 5.58816584306874 .0194 6.28318530717959 .
00614863114239678 16 446 3769 0 ?451 439 310 440 0 0 1 38 447 3715 0 195 452 440
 0 +312 431 453 454 454 455 40 22 448 0 1 22 .0002803542342937835 .3738869684017
24 ??-.00745 .0062118837722546 .0146 -.00823518526974647 .00512559494819389 .014
3940889828749 -.00884296178114056 .00398648052011889 .013787183254574 -.00898390
862306473 .00365778428183281 .01345510914744454 -.0090317788773591 .003537933056
247675 .01324078119349442 -.00904957567607833 .003492159802032465 .0130368463905
7704 -.00904069928017882 .00351507560734817 .01282773334612126 -.008998101426011
69 .00362272973422065 .01259579463786266 -.00887512674559477 .003914348636699135
 .01227266667958186 -.0084879915063863 .00469510385268675 .01178239019687344 -.0
0765496294168085 .00595747785237116 .01141318236947734 -.00699056236528803 .0067
2473328965682 .01146738228517014 -.00648348429445856 .00721487570256822 .0117249
127908485 -.00613904736771911 .00751013298263759 .01208271967430026 -.0059337583
3940386 .00767336379755027 .0124891074215917 -.00585042181726879 .00773709018688
714 .01296326258949878 -.00590025308815071 .00769915667432272 .0133978498576267
 -.006054993028379 .00757806435881101 .0137835531565432 -.00630644840389475 .007
37012269429847 .0141190575262448 -.00674856484637892 .00696755857630337 .0144380
503208388 -.00737959050635369 .00629536686449126 .01459845003150066 -.00745 .006
2118837722546 .0146 41 1 449 H?-.00745 .0062118837722546 .0146 204 88 450 4 .695
019464110844 .0194 0 .01857239868690595 .556728835839459 .0196059110171251 5.770
24554664156 .01748610986284525 .423525901266958 .020212816745426 5.2267625034584
1 .01634699543477025 .386653585533232 .02054489085255545 5.00081458558157 .01601
82991964842 .3733485748264565 .0207592188065056 4.86345110484656 .01589844797089
905 .36828555188757 .02096315360942295 4.73542001049322 .01585267471668385 .3708
190449509815 .02117226665387875 4.60451321512199 .01587559052199955 .38275474406
76525 .02140420536213735 4.456993220343715 .015983244648872 .415383771847495 .02
172733332041815 4.240484625842495 .0162748635513505 .50525583530746 .02221760980
312655 3.847526390159545 .0170556187673381 .661337571730198 .02258681763052265 3
.270047465204785 .0183179927670225 .766018647072889 .02253261771482985 2.8503439
94607755 .0190852482043082 .838740138967981 .0222750872091515 2.4929913733469 .0
195753906172196 .885514186425438 .02191728032569975 2.18132438682047 .0198706478
9728895 .912553612636357 .0215108925784083 1.895795351381025 .02003387871220165
 .923369090215831 .0210367374105012 1.59375922634104 .0200976051015385 .91691271
5395011 .0206021501423733 1.319503734437248 .0200596715889741 .896655804993169 .
0202164468434568 1.05902691897589 .0199385792734624 .863015382873916 .0198809424
737552 .79622332662989 .01973063760894985 .801362960267308 .0195619496791612 .45
3814337801691 .01932807349095475 .706278333372869 .01940154996849935 .0440201489
980528 .01865588177914265 .695019464110844 .0194 6.28318530717959 .0185723986869
0595 16 195 3720 0 ?456 191 445 447 0 0 1 38 452 3709 0 445 253 447 0 +312 431 4
57 458 458 459 51 431 3750 0 460 425 461 462 +.00745 -.01236051491465136 .013 0
 1 0 .0016 0 0 1 40 22 453 0 1 22 .0002803542342937915 .373886968401721 ??.00745
 -.00621188377225459 .0146 .00823518526974647 -.00512559494819389 .0143940889828
749 .00884296178114056 -.003986480520118885 .013787183254574 .00898390862306474
 -.0036577842818328 .01345510914744454 .0090317788773591 -.003537933056247665 .0
132407811934944 .00904957567607833 -.003492159802032455 .01303684639057704 .0090
4069928017883 -.00351507560734816 .01282773334612126 .00899810142601169 -.003622
729734220645 .01259579463786264 .00887512674559476 -.003914348636699155 .0122726
6667958184 .00848799150638626 -.00469510385268683 .0117823901968734 .00765496294
16808 -.00595747785237123 .01141318236947732 .00699056236528799 -.00672473328965
686 .01146738228517016 .00648348429445853 -.00721487570256824 .01172491279084852
 .00613904736771909 -.00751013298263761 .0120827196743003 .00593375833940386 -.0
0767336379755027 .01248910742159172 .00585042181726879 -.00773709018688714 .0129
632625894988 .00590025308815071 -.00769915667432271 .0133978498576267 .006054993
02837901 -.007578064358811 .0137835531565432 .00630644840389476 -.00737012269429
846 .0141190575262448 .00674856484637894 -.00696755857630335 .0144380503208388 .
00737959050635371 -.00629536686449123 .01459845003150066 .00745 -.00621188377225
459 .0146 41 1 454 H?.00745 -.00621188377225459 .0146 204 88 455 4 3.83661211770
0635 .0194 0 .00614863114239678 3.69832148942925 .0196059110171251 .512939760538
025 .00723491996645748 3.56511855485675 .020212816745426 1.05642280372117 .00837
403439453249 3.528246239123025 .02054489085255545 1.282370721598012 .00870273063
281857 3.51494122841625 .0207592188065056 1.41973420233303 .0088225818584037 3.5
0987820547736 .02096315360942295 1.547765296686365 .00886835511261891 3.51241169
8540775 .02117226665387875 1.678672092057605 .00884543930730321 3.52434739765744
5 .02140420536213735 1.82619208683588 .00873778518043072 3.55697642543729 .02172
733332041815 2.04270068133711 .00844616627795221 3.64684848889726 .0222176098031
266 2.43565891702008 .00766541106196454 3.80293022532 .02258681763052265 3.01313
784197484 .00640303706228014 3.90761130066269 .02253261771482985 3.4328413125718
6 .00563578162499451 3.98033279255778 .02227508720915145 3.790193933832715 .0051
4563921208313 4.027106840015235 .0219172803256997 4.101860920359135 .00485038193
201376 4.05414626622615 .02151089257840825 4.38738995579858 .0046871511171011 4.
064961743805625 .0210367374105012 4.68942608083856 .00462342472776423 4.05850536
89848 .0206021501423733 4.96368157274235 .00466135824032866 4.03824845858296 .02
02164468434568 5.22415838820371 .00478245055584037 4.004608036463705 .0198809424
737552 5.48696198054971 .00499039222035291 3.9429556138571 .0195619496791612 5.8
2937096937791 .00539295633834802 3.84787098696266 .01940154996849935 6.239165158
18155 .00606514805016014 3.836612117700635 .0194 6.28318530717959 .0061486311423
9678 14 460 3727 463 ?430 277 464 6 431 -0 0 430 277 24 50 461 3596 0 465 431 46
6 0 +.00505 -.00463578643762691 .034001 .707106781186547 -.707106781186548 0 .70
7106781186549 .707106781186547 0 141 462 452 467 467 431 141 467 447 462 462 431
 14 465 3553 468 ?469 470 471 6 461 -0 0 469 470 24 50 466 3594 0 469 461 472 0
 +.00505 .00463578643762691 .034001 .707106781186547 .707106781186548 0 -.707106
781186549 .707106781186547 0 14 469 3561 473 ?474 465 475 6 466 -0 0 474 465 24
 50 472 3592 0 474 466 476 0 +-.00505 .00463578643762691 .034001 -.7071067811865
47 .707106781186548 0 -.707106781186549 -.707106781186547 0 14 474 3569 477 ?277
 469 478 6 472 -0 0 277 469 24 50 476 3590 0 277 472 479 0 +-.00505 -.0046357864
3762691 .034001 -.707106781186547 -.707106781186548 0 .707106781186549 -.7071067
81186547 0 14 277 3577 480 ?460 474 274 6 476 -0 0 460 474 24 50 479 3338 0 281
 476 481 0 +0 0 .032 0 0 1 1 0 0 14 281 3475 482 ?292 354 280 6 479 -0 0 292 354
 24 50 481 140 0 483 479 484 0 +-.00505 .00605 .034 0 -1 0 0 0 -1 14 483 207 485
 ?470 486 487 6 481 +0 0 470 486 24 50 484 139 0 486 481 488 0 +.00505 .00605 .0
34 -1 -716827882635044e-31 0 716827882635044e-31 -1 0 14 486 214 489 ?483 490 49
1 6 484 +0 0 483 490 24 50 488 138 0 490 484 492 0 +-.00505 -.00605 .034 0 1 0 0
 0 1 14 490 221 493 ?486 292 279 6 488 +0 0 486 292 24 50 492 137 0 292 488 494
 0 +-.00505 .00605 .034 1 -716827882635044e-31 0 716827882635044e-31 1 0 14 292
 225 495 ?490 281 287 6 492 +0 0 490 281 24 50 494 2 0 294 492 355 0 +0 0 .034 0
 0 1 1 0 0 14 294 25057 496 ?354 416 497 6 494 +0 0 354 416 24 50 355 22 0 470 4
94 312 0 +0 0 0 0 0 1 1 0 0 14 470 54 498 ?465 483 499 6 355 -0 0 465 483 24 81
 1 498 27948 393 470 500 0 496 501 502 15 499 25261 0 503 470 504 17 503 0 499 5
05 506 65 507 508 0 0 -15 504 17 0 299 470 0 17 299 0 504 299 299 0 296 263 0 0
 -17 505 0 499 509 503 101 67 510 0 0 -17 506 0 499 503 509 95 511 512 0 0 -17 5
07 0 513 134 514 95 503 508 0 506 +16 508 25357 0 ?507 512 510 515 0 0 1 16 512
 25359 0 ?511 320 508 516 0 0 1 16 510 25355 0 ?67 508 517 518 0 0 1 30 515 2547
8 0 508 516 518 0 +-.00515 369166359557048e-33 0 716827882635044e-31 1 0 30 516
 25479 0 512 519 515 0 +0 .00615 0 1 0 0 30 518 25477 0 510 515 520 0 +0 -.00615
 0 -1 0 0 30 520 25464 0 521 518 522 0 +.00515 -.00615 .0480430670384437 0 0 -1
 16 521 25328 0 ?103 523 176 520 0 0 1 30 522 25463 0 523 520 177 0 +.00515 .006
15 .0480430670384437 0 0 -1 16 523 25344 0 ?100 517 521 522 0 0 1 30 177 25462 0
 517 522 175 0 +-.00515 .00615 .0480430670384437 0 0 -1 16 517 25335 0 ?97 510 5
23 177 0 0 1 17 97 0 524 511 525 95 134 517 0 507 +15 524 25414 0 97 526 0 17 51
1 0 524 127 97 98 506 512 0 509 +17 525 0 524 97 127 132 527 528 0 529 -17 134 0
 513 530 507 132 97 517 0 525 -15 513 25396 0 514 531 532 17 530 0 513 514 134 1
29 529 533 0 534 -17 514 0 513 507 530 65 131 176 0 503 +17 529 0 282 527 534 13
2 530 533 0 0 +16 533 25743 0 ?529 528 535 536 0 0 1 17 534 0 282 529 537 129 53
8 535 0 0 +15 282 25827 0 527 281 0 17 537 0 282 534 527 128 539 540 0 0 +17 538
 0 541 103 131 128 534 535 0 537 -16 535 25741 0 ?534 533 540 542 0 0 1 16 540 2
5739 0 ?537 535 543 544 0 0 1 30 542 25889 0 535 536 545 0 +.00515 -.00615 .032
 -1 0 0 30 536 25890 0 533 546 542 0 +-.00515 -.00615 .032 1410344289412038e-31
 1 0 133 545 25876 0 284 542 547 0 +547 -.0036357864376269 -.00605 .032 .0036357
864376269 -.00605 .032 .0014142135623731 .0086857864376269 16 284 25711 0 ?118 5
48 528 545 0 0 1 30 547 25875 0 1 545 549 550 +-.00505 -.00605 .032 1 0 0 30 549
 25873 0 1 547 551 552 +-.00505 .00605 .032 -716827882635044e-31 -1 0 141 550 54
5 550 550 547 133 551 25870 0 548 549 553 0 +553 .00505 -.0046357864376269 .032
 .00505 .00463578643762691 .032 -.0106857864376269 -.001414213562373094 141 552
 290 552 552 549 133 290 25861 0 286 554 519 0 +549 -.00505 .00463578643762691 .
032 -.00505 -.00463578643762691 .032 .001414213562373094 .0106857864376269 30 55
4 25864 0 1 555 290 556 +-.00505 .00605 .032 -1 0 0 30 519 25480 0 320 290 516 0
 +.00515 369166359557048e-33 0 716827882635044e-31 -1 0 16 320 25361 0 ?557 317
 512 519 0 0 1 17 557 0 558 137 100 101 509 320 0 505 +15 558 25386 0 100 559 56
0 17 137 0 558 539 557 128 103 521 0 538 -17 100 0 558 557 539 98 127 523 0 511
 +17 509 0 499 506 505 98 557 320 0 0 -17 539 0 558 100 137 125 537 540 0 527 -1
7 127 0 524 525 511 125 100 523 0 539 -17 527 0 282 537 529 125 525 528 0 0 +16
 528 25745 0 ?527 284 533 546 0 0 1 30 546 25891 0 528 544 536 0 +-.00515 .00615
 .032 1 0 0 30 544 25892 0 540 561 546 0 +.00515 .00615 .032 705172144706019e-31
 -1 0 30 561 26031 0 543 562 544 0 +-.0147709144496077 .00313529684756806 .03683
65042905109 0 0 -1 16 543 26195 0 ?30 540 563 561 0 0 1 30 562 26032 0 563 564 5
61 0 +-.01333050690021386 .00709278406433967 .0368365042905109 0 0 -1 16 563 261
56 0 ?139 543 565 562 0 0 1 31 564 26034 0 565 566 562 0 -0 0 .032 0 0 1 1 0 0 .
0151 16 565 26001 0 ?43 563 167 564 0 0 1 31 566 26036 0 167 567 564 0 +0 0 .028
 0 0 -1 -1 0 0 .0151 16 167 25998 0 ?166 565 152 566 0 0 1 30 567 26120 0 152 15
4 566 0 +-.01553038313775785 .00806580433648414 .0368365042905109 0 0 -1 16 152
 26153 0 ?62 167 145 567 0 0 1 30 154 26121 0 145 568 567 0 +-.0170815627918361
 .00380397326338679 .0368365042905109 0 0 -1 31 568 26123 0 153 163 154 0 +0 0 .
032 0 0 1 1 0 0 .0175 16 153 26080 0 ?51 145 156 568 0 0 1 31 163 26125 0 156 56
9 568 0 +0 0 .028 0 0 1 -1 0 0 .0175 31 569 26906 0 570 571 163 0 +.010911920087
6839 -.0063 .039 0 0 1 1 0 0 .0036 16 570 26857 0 ?572 573 574 569 0 0 1 31 571
 26910 0 573 575 569 0 +-.010911920087684 -.0062999999999999 .039 0 0 1 1 0 0 .0
036 16 573 26826 0 ?576 162 570 571 0 0 1 31 575 26914 0 162 577 571 0 +0 .0126
 .039 0 0 1 1 0 0 .0036 16 162 26795 0 ?578 156 573 575 0 0 1 31 577 27063 0 579
 580 575 0 +.0109119200876839 -.0063 .043 0 0 1 1 0 0 .002 16 579 27030 0 ?581 5
82 0 577 0 0 1 31 580 27065 0 582 583 577 0 +0 .0126 .043 0 0 1 1 0 0 .002 16 58
2 27012 0 ?584 574 579 580 0 0 1 31 583 27067 0 574 0 580 0 +-.010911920087684 -
.0062999999999999 .043 0 0 1 1 0 0 .002 16 574 26994 0 ?585 570 582 583 0 0 1 17
 585 0 586 585 585 0 587 574 0 0 +15 586 27007 0 585 588 0 17 587 0 589 587 587
 0 585 574 0 0 -15 589 26971 0 587 405 0 14 405 26973 501 ?412 400 590 6 591 -0
 0 412 400 24 81 1 501 27949 393 405 592 0 498 593 594 15 590 27137 0 382 405 58
9 51 591 25150 0 405 595 407 0 --.010911920087684 -.0062999999999999 .052 0 0 -1
 .002 -1 0 0 51 595 25215 0 147 596 591 0 --.0153169897188103 .00557492833620836
 .028 0 0 1 .0025 1 0 0 51 407 25119 0 400 591 411 0 -.0109119200876839 -.0063 .
052 0 0 -1 .002 -1 0 0 51 411 25082 0 597 407 408 0 --.010911920087684 -.0062999
999999999 .0465 0 0 -1 .0036 -1 0 0 14 597 26780 593 ?419 410 598 6 411 -0 0 419
 410 24 81 1 593 27950 393 597 599 0 501 600 601 14 419 26065 600 ?416 597 602 6
 595 -147 147 416 597 24 14 410 26786 603 ?597 412 604 6 408 -0 0 597 412 24 15
 598 25073 0 171 597 605 17 171 0 598 171 171 0 606 168 0 0 +15 605 26778 0 607
 597 0 17 607 0 605 607 607 0 576 573 0 0 -17 576 0 608 576 576 0 607 573 0 0 +1
5 608 26846 0 576 609 0 14 609 26843 610 ?588 611 612 6 613 +0 0 588 611 24 81 1
 610 27953 393 609 614 0 603 615 616 14 588 27005 615 ?617 609 586 6 618 +0 0 61
7 609 24 14 611 26874 619 ?609 361 620 6 621 +0 0 609 361 24 15 612 27146 0 384
 609 608 50 613 26899 0 609 622 621 0 +-.010911920087684 -.0062999999999999 .039
 0 0 1 1 0 0 50 622 26903 0 361 623 613 0 +0 .0126 .039 0 0 1 1 0 0 50 621 26895
 0 611 613 340 0 +.0109119200876839 -.0063 .039 0 0 1 1 0 0 51 340 26116 0 157 6
21 331 624 -0 0 .0368365042905109 0 0 -1 .0175 -1 0 0 14 157 26105 625 ?348 345
 151 6 340 -0 0 348 345 24 141 624 330 626 626 340 141 626 339 624 624 340 81 1
 625 27956 393 157 627 0 619 628 629 14 345 26017 628 ?157 526 29 6 331 -0 0 157
 526 24 81 1 628 27957 393 345 630 0 625 631 632 14 526 25411 631 ?345 633 524 6
 634 -0 0 345 633 24 15 29 26020 0 31 345 0 17 31 0 29 27 337 52 43 565 0 324 -1
7 337 0 29 31 635 36 56 329 0 636 +17 43 0 420 327 324 36 31 565 0 337 +17 324 0
 420 43 51 52 39 306 0 32 +15 420 26133 0 43 416 303 17 51 0 420 324 327 49 48 1
53 0 40 +17 39 0 37 35 32 49 324 306 0 0 -17 32 0 37 39 38 52 27 33 0 0 -15 37 2
6439 0 32 352 0 17 38 0 37 32 35 12 42 150 0 0 -17 327 0 420 51 43 44 636 325 0
 637 +17 48 0 151 59 40 44 51 153 0 327 -17 40 0 151 48 144 49 35 41 0 39 +16 41
 26210 0 ?40 33 338 339 0 0 1 16 338 26206 0 ?59 41 329 330 0 0 1 17 59 0 151 62
 48 57 637 338 0 158 +17 637 0 353 636 638 44 59 338 0 0 -17 158 0 602 305 161 5
7 62 152 0 638 -15 602 26063 0 158 419 0 17 305 0 602 139 158 54 638 301 0 635 +
17 161 0 602 158 139 60 160 169 0 0 -17 638 0 353 637 56 57 305 301 0 0 -15 353
 26418 0 637 348 0 17 56 0 353 638 636 54 337 329 0 305 -17 636 0 353 56 637 36
 327 325 0 0 -17 139 0 602 161 305 135 635 563 0 160 +17 160 0 159 164 155 135 1
61 169 0 166 +17 166 0 29 635 30 135 164 167 0 0 +17 635 0 29 337 166 54 139 563
 0 0 -17 30 0 29 166 27 63 34 543 0 164 +17 34 0 142 42 143 12 30 543 0 38 -15 3
03 24878 0 300 416 639 15 639 25181 0 640 416 0 17 640 0 639 640 640 0 187 185 0
 0 -17 187 0 424 187 187 0 640 185 0 0 +15 424 24874 0 187 421 641 15 641 24875
 0 642 421 0 17 642 0 641 642 642 0 190 184 0 0 -17 190 0 643 190 190 0 642 184
 0 0 +15 643 24883 0 190 294 293 81 1 631 27958 393 526 644 0 628 645 646 14 633
 25403 645 ?526 531 541 6 647 -0 0 526 531 24 50 634 25452 0 526 346 648 0 +0 .0
0615 .0480430670384437 0 1 0 0 0 1 50 346 25453 0 531 331 634 0 +-.00515 3691663
59557048e-33 .0480430670384437 -1 716827882635045e-31 0 -716827882635045e-31 -1
 0 50 648 25451 0 559 634 647 0 +.00515 369166359557048e-33 .0480430670384437 1
 716827882635045e-31 0 -716827882635045e-31 1 0 14 559 25383 649 ?531 165 558 6
 648 -0 0 531 165 24 50 647 25450 0 633 648 596 0 +0 -.00615 .0480430670384437 0
 -1 0 0 0 -1 50 596 25217 0 165 647 595 0 +-.0153169897188103 .00557492833620836
 .028 0 0 -1 -1 0 0 14 165 25207 650 ?559 147 159 6 596 +0 0 559 147 24 81 1 650
 27961 393 165 651 0 649 652 653 14 147 25202 652 ?165 421 142 6 595 -419 419 16
5 421 24 81 1 652 27962 393 147 654 0 650 655 656 80 255 1 393 657 658 9000 1 1
 1 1 1 1 1 1 0 FFFFTFTFFFFFFF1 81 1 654 27795 659 147 0 652 660 651 661 81 1 655
 27963 393 428 662 0 652 663 664 82 255 1 656 -337313136 14 428 3975 655 ?423 43
0 665 6 313 -423 423 423 430 24 81 1 662 27792 659 428 0 655 666 667 668 81 1 66
3 27964 393 430 666 0 655 669 670 82 1 664 2050687626 14 430 3777 663 ?428 460 6
71 6 425 -0 0 428 460 24 81 1 666 27791 659 430 0 663 672 662 673 81 1 669 27965
 393 354 674 0 663 675 676 82 1 670 -1367735950 14 354 24854 669 ?281 294 298 6
 312 -0 0 281 294 24 81 1 674 27779 659 354 0 669 677 678 679 81 1 675 27966 393
 531 680 0 669 681 682 82 1 676 522387844 14 531 25393 675 ?633 559 513 6 346 -0
 0 633 559 24 81 1 680 27798 659 531 0 675 683 684 685 81 1 681 27967 393 361 68
6 0 675 687 688 82 1 682 -208665971 14 361 26812 681 ?611 352 689 6 622 +0 0 611
 352 24 81 1 686 27805 659 361 0 681 690 691 692 81 1 687 27968 393 617 693 0 68
1 694 695 82 1 688 -1497431398 14 617 27041 687 ?696 588 697 6 623 +0 0 696 588
 24 81 1 693 27809 659 617 0 687 698 699 700 81 1 694 27969 393 696 699 0 687 70
1 702 82 1 695 168428184 14 696 27023 694 ?362 617 703 6 704 +0 0 362 617 24 81
 1 699 27810 659 696 0 694 693 705 706 81 1 701 27970 393 362 705 0 694 0 707 82
 1 702 164496024 14 362 27176 701 ?391 696 708 6 357 -0 0 391 696 24 81 1 705 27
811 659 362 0 701 699 709 710 82 1 707 1810825882 80 1 659 0 711 8001 0 0 0 0 3
 5 0 0 0 FFFFTFTFFFFFFF2 81 1 709 27812 659 391 0 395 705 394 712 83 255 3 710 .
988235294117647 .737254901960784 .517647058823529 81 1 395 27930 393 391 709 0 3
90 399 713 81 1 394 27813 659 20 0 390 709 0 714 83 3 712 .988235294117647 .7372
54901960784 .517647058823529 83 3 714 .988235294117647 .737254901960784 .5176470
58823529 82 1 713 1812071066 79 255 15 711 SDL/TYSA_COLOUR15 708 27177 0 715 362
 716 17 715 0 708 715 715 0 379 377 0 0 -15 716 27178 0 717 362 0 17 717 0 716 7
17 717 0 376 374 0 0 -17 376 0 406 376 376 0 717 374 0 0 +15 406 27121 0 376 400
 718 15 718 26979 0 719 400 0 17 719 0 718 719 719 0 581 579 0 0 -17 581 0 697 5
81 581 0 719 579 0 0 +15 697 27043 0 581 617 0 17 379 0 620 379 379 0 715 377 0
 0 +15 620 27130 0 379 611 720 15 720 26877 0 572 611 0 17 572 0 720 572 572 0 7
21 570 0 0 +17 721 0 722 721 721 0 572 570 0 0 -15 722 26784 0 721 410 0 83 3 70
6 .988235294117647 .737254901960784 .517647058823529 15 703 27025 0 584 696 0 50
 704 27058 0 696 618 623 0 +0 .0126 .043 0 0 1 1 0 0 50 618 27061 0 588 0 704 0
 +-.010911920087684 -.0062999999999999 .043 0 0 1 1 0 0 50 623 27055 0 617 704 6
22 0 +.0109119200876839 -.0063 .043 0 0 1 1 0 0 17 584 0 703 584 584 0 723 582 0
 0 +17 723 0 388 723 723 0 584 582 0 0 -15 388 26987 0 723 18 0 81 1 698 27808 6
59 588 0 615 614 693 724 83 3 700 .988235294117647 .737254901960784 .51764705882
3529 81 1 615 27954 393 588 698 0 610 619 725 81 1 614 27807 659 609 0 610 691 6
98 726 83 3 724 .988235294117647 .737254901960784 .517647058823529 81 1 691 2780
6 659 611 0 619 686 614 727 83 3 726 .988235294117647 .737254901960784 .51764705
8823529 81 1 619 27955 393 611 691 0 615 625 728 83 3 727 .988235294117647 .7372
54901960784 .517647058823529 82 1 728 -1503198566 82 1 725 160498328 81 1 690 27
804 659 352 0 360 729 686 730 83 3 692 .988235294117647 .737254901960784 .517647
058823529 81 1 360 27928 393 352 690 0 351 390 731 81 1 729 27803 659 348 0 351
 627 690 732 83 3 730 .988235294117647 .737254901960784 .517647058823529 81 1 35
1 27927 393 348 729 0 0 360 733 81 1 627 27802 659 157 0 625 630 729 734 83 3 73
2 .988235294117647 .737254901960784 .517647058823529 81 1 630 27801 659 345 0 62
8 644 627 735 83 3 734 .988235294117647 .737254901960784 .517647058823529 81 1 6
44 27800 659 526 0 631 684 630 736 83 3 735 .988235294117647 .737254901960784 .5
17647058823529 81 1 684 27799 659 633 0 645 680 644 737 83 3 736 .98823529411764
7 .737254901960784 .517647058823529 81 1 645 27959 393 633 684 0 631 649 738 83
 3 737 .988235294117647 .737254901960784 .517647058823529 81 1 649 27960 393 559
 683 0 645 650 739 82 1 738 -228392307 81 1 683 27797 659 559 0 649 651 680 740
 82 1 739 -206962035 81 1 651 27796 659 165 0 650 654 683 741 83 3 740 .98823529
4117647 .737254901960784 .517647058823529 83 3 741 .988235294117647 .73725490196
0784 .517647058823529 82 1 733 -24051056 82 1 731 -22084976 15 689 27162 0 25 36
1 742 17 25 0 689 25 25 0 398 11 0 0 +15 742 26815 0 578 361 0 17 578 0 742 578
 578 0 743 162 0 0 +17 743 0 744 743 743 0 578 162 0 0 -15 744 26790 0 743 412 0
 17 398 0 392 398 398 0 25 11 0 0 -83 3 685 .988235294117647 .737254901960784 .5
17647058823529 81 1 677 27778 659 294 0 496 745 674 746 81 1 678 27780 659 281 0
 482 674 747 748 83 3 679 .988235294117647 .737254901960784 .517647058823529 81
 1 482 27942 393 281 678 0 480 485 749 81 1 747 27781 659 292 0 495 678 750 751
 83 3 748 .988235294117647 .737254901960784 .517647058823529 81 1 495 27946 393
 292 747 0 493 496 752 81 1 750 27782 659 490 0 493 747 753 754 83 3 751 .988235
294117647 .737254901960784 .517647058823529 81 1 493 27945 393 490 750 0 489 495
 755 81 1 753 27783 659 486 0 489 750 756 757 83 3 754 .988235294117647 .7372549
01960784 .517647058823529 81 1 489 27944 393 486 753 0 485 493 758 81 1 756 2778
4 659 483 0 485 753 500 759 83 3 757 .988235294117647 .737254901960784 .51764705
8823529 81 1 485 27943 393 483 756 0 482 489 760 81 1 500 27785 659 470 0 498 75
6 761 762 83 3 759 .988235294117647 .737254901960784 .517647058823529 81 1 761 2
7786 659 465 0 468 500 763 764 83 3 762 .988235294117647 .737254901960784 .51764
7058823529 81 1 468 27938 393 465 761 0 463 473 765 81 1 763 27787 659 469 0 473
 761 766 767 83 3 764 .988235294117647 .737254901960784 .517647058823529 81 1 47
3 27939 393 469 763 0 468 477 768 81 1 766 27788 659 474 0 477 763 769 770 83 3
 767 .988235294117647 .737254901960784 .517647058823529 81 1 477 27940 393 474 7
66 0 473 480 771 81 1 769 27789 659 277 0 480 766 672 772 83 3 770 .988235294117
647 .737254901960784 .517647058823529 81 1 480 27941 393 277 769 0 477 482 773 8
1 1 672 27790 659 460 0 463 769 666 774 83 3 772 .988235294117647 .7372549019607
84 .517647058823529 81 1 463 27937 393 460 672 0 427 468 775 83 3 774 .988235294
117647 .737254901960784 .517647058823529 81 1 427 27936 393 423 667 0 422 463 77
6 82 1 775 -1369898638 81 1 667 27793 659 423 0 427 662 660 777 81 1 422 27935 3
93 421 660 0 418 427 778 82 1 776 2027553418 81 1 660 27794 659 421 0 422 667 65
4 779 81 1 418 27934 393 416 745 0 414 422 780 82 1 778 2040857231 81 1 745 2777
7 659 416 0 418 781 677 782 81 1 414 27933 393 412 783 0 403 418 784 82 1 780 -3
34560624 81 1 783 27773 659 412 0 414 592 785 786 81 1 403 27932 393 400 787 0 3
99 414 788 82 1 784 139854486 81 1 787 27771 659 400 0 403 402 592 789 82 1 788
 -1511456102 81 1 402 27770 659 18 0 399 0 787 790 81 1 592 27772 659 405 0 501
 787 783 791 83 3 789 .988235294117647 .737254901960784 .517647058823529 83 3 79
1 .988235294117647 .737254901960784 .517647058823529 83 3 790 .988235294117647 .
737254901960784 .517647058823529 81 1 785 27774 659 410 0 603 783 599 792 83 3 7
86 .988235294117647 .737254901960784 .517647058823529 81 1 603 27952 393 410 785
 0 600 610 793 81 1 599 27775 659 597 0 593 785 781 794 83 3 792 .98823529411764
7 .737254901960784 .517647058823529 81 1 781 27776 659 419 0 600 599 745 795 83
 3 794 .988235294117647 .737254901960784 .517647058823529 81 1 600 27951 393 419
 781 0 593 603 796 83 3 795 .988235294117647 .737254901960784 .517647058823529 8
2 1 796 -29228400 82 1 793 139330198 83 3 782 .988235294117647 .737254901960784
 .517647058823529 83 3 779 .988235294117647 .737254901960784 .517647058823529 83
 3 777 .988235294117647 .737254901960784 .517647058823529 82 1 773 2028405389 82
 1 771 2028274317 82 1 768 2028143245 82 1 765 2028012173 82 1 760 2028667533 82
 1 758 2028798605 82 1 755 2028929677 81 1 496 27947 393 294 677 0 495 498 797 8
2 1 752 2029060749 82 1 797 -366214522 82 1 749 2028536461 83 3 746 .98823529411
7647 .737254901960784 .517647058823529 15 298 26 0 296 354 798 15 798 3707 0 799
 354 800 17 799 0 798 799 799 0 801 445 0 0 +15 800 3713 0 456 354 802 17 456 0
 800 456 456 0 803 195 0 0 +15 802 3757 0 451 354 804 17 451 0 802 451 451 0 805
 446 0 0 +15 804 3763 0 444 354 806 17 444 0 804 444 444 0 807 439 0 0 +15 806 3
925 0 438 354 808 17 438 0 806 438 438 0 809 188 0 0 +15 808 3932 0 810 354 811
 17 810 0 808 810 810 0 812 310 0 0 +15 811 24852 0 304 354 0 17 304 0 811 304 3
04 0 300 297 0 0 -17 812 0 813 812 812 0 810 310 0 0 -16 310 3957 0 ?810 446 188
 308 0 0 1 15 813 3974 0 812 423 0 17 809 0 814 809 809 0 438 188 0 0 -15 814 39
79 0 809 428 0 17 807 0 815 807 807 0 444 439 0 0 -15 815 3781 0 807 430 0 17 80
5 0 671 805 805 0 451 446 0 0 -15 671 3780 0 805 430 815 17 803 0 816 803 803 0
 456 195 0 0 -15 816 3731 0 803 460 0 17 801 0 464 801 801 0 799 445 0 0 -16 445
 3719 0 ?799 195 439 452 0 0 1 15 464 3730 0 801 460 816 83 3 673 .9882352941176
47 .737254901960784 .517647058823529 83 3 668 .988235294117647 .737254901960784
 .517647058823529 15 665 25254 0 321 428 814 17 321 0 665 321 321 0 817 174 0 0
 +17 817 0 560 817 817 0 321 174 0 0 -15 560 25387 0 817 559 0 83 3 661 .9882352
94117647 .737254901960784 .517647058823529 79 14 658 SWEntUnchanged82 1 653 -339
279217 15 541 25406 0 103 633 0 17 103 0 541 67 538 101 137 521 0 557 +17 67 0 5
41 131 103 65 505 510 0 514 +17 131 0 541 538 67 129 514 176 0 530 -16 176 25342
 0 ?514 521 286 175 0 0 1 82 1 646 -229637491 82 1 632 -56425840 82 1 629 -41876
848 17 384 0 612 384 384 0 818 383 0 0 +17 818 0 397 818 818 0 384 383 0 0 -15 3
97 27190 0 818 391 819 15 819 27191 0 820 391 0 17 820 0 819 820 820 0 382 380 0
 0 -17 382 0 590 382 382 0 820 380 0 0 +82 1 616 -1503395174 17 606 0 821 606 60
6 0 171 168 0 0 -15 821 25054 0 606 294 0 15 604 25039 0 180 410 722 17 180 0 60
4 180 180 0 822 172 0 0 +17 822 0 497 822 822 0 180 172 0 0 -15 497 25020 0 822
 294 643 82 1 601 138805910 82 1 594 -1510866278 133 555 25865 0 289 553 554 0 +
554 .0036357864376269 .00605 .032 -.0036357864376269 .00605 .032 -.0086857864376
269 -.0014142135623731 141 556 555 556 556 554 16 289 25713 0 ?73 286 548 555 0
 0 1 30 553 25869 0 1 551 555 823 +.00505 .00605 .032 -716827882635044e-31 1 0 1
41 823 551 823 823 553 17 73 0 280 285 824 71 109 289 0 241 +16 548 25712 0 ?112
 289 284 551 0 0 1 17 112 0 280 824 283 110 115 548 0 825 +17 824 0 280 73 112 1
07 251 239 0 0 -17 283 0 280 112 118 113 262 252 0 0 -17 115 0 491 826 825 113 1
12 548 0 266 -17 825 0 491 115 82 110 827 247 0 251 +15 491 25677 0 115 486 0 17
 82 0 491 825 826 80 206 204 0 827 -17 827 0 475 85 251 80 825 247 0 203 -16 247
 3500 0 ?825 264 242 250 0 0 1 17 251 0 475 827 246 110 824 239 0 0 +15 475 3564
 0 246 469 0 17 246 0 475 251 85 107 828 242 0 824 +17 85 0 475 246 827 83 203 2
01 0 828 -17 828 0 487 88 109 83 246 242 0 200 -15 487 25669 0 109 483 0 17 88 0
 487 241 828 86 200 198 0 829 -17 109 0 487 828 241 107 73 289 0 246 -17 200 0 2
93 203 197 83 88 198 0 0 +17 203 0 293 206 200 80 85 201 0 0 +17 197 0 293 200 1
93 86 91 194 0 0 +17 91 0 478 233 829 89 197 194 0 288 -15 478 3572 0 233 474 0
 17 233 0 478 238 91 104 288 228 0 285 +17 829 0 478 91 238 86 241 234 0 197 -17
 238 0 478 829 233 71 285 222 0 0 +17 241 0 487 109 88 71 829 234 0 238 +17 206
 0 293 209 203 77 82 204 0 0 +17 209 0 293 212 206 74 79 207 0 0 +17 79 0 471 26
6 830 77 209 207 0 826 -15 471 3556 0 266 465 0 17 266 0 471 262 79 113 826 264
 0 283 +17 830 0 471 79 262 74 271 267 0 209 -17 826 0 491 82 115 77 266 264 0 2
06 -17 262 0 471 830 266 116 283 252 0 0 +17 271 0 279 124 76 116 830 267 0 262
 +15 279 25685 0 124 490 0 17 124 0 279 275 271 122 118 284 0 273 -17 76 0 279 2
71 275 74 212 210 0 830 -15 532 25397 0 831 531 0 17 831 0 532 831 831 0 319 317
 0 0 -17 319 0 429 319 319 0 831 317 0 0 +15 429 25247 0 319 423 813 82 1 502 20
50949770 30 253 3669 0 1 250 452 832 +.00505 .00463578643762691 .034001 0 0 -1 4
0 21 457 0 1 21 .0002664164801785355 .3952407298757535 ??.00745 .006211883772254
59 .0146 .00674431748598301 .00697166993253867 .01443597081774346 .0063230979085
155 .00735584344853307 .0141358220266432 .00603736342851666 .00759211715083543 .
01375130414407734 .00587078264214023 .00772165210099141 .01325704578703882 .0058
6302521813487 .00772754393656319 .01279625741308178 .00597147625608961 .00764404
809789669 .01238847114647532 .00617842514354222 .0074777712418638 .0120288679881
5794 .00648282690777295 .00721546639406317 .01172541135668328 .00700798359815146
 .00670657631642555 .0114622674158044 .00772368427238479 .00586810883168639 .011
42358098240054 .0085214002955311 .00463419216296891 .01181168126887774 .00879379
279298575 .00409380120597372 .01213154106054484 .00899774373225896 .003623618043
971315 .0125944271467996 .00903727868619267 .0035238606595732 .01279863870193484
 .00904973789428021 .003491739401047685 .013028959792885 .0090336658087221 .0035
3311223375727 .01322804079960522 .00897732050381318 .003673923865816425 .0134767
515900675 .00881283398697032 .004052648161153505 .0138382622047776 .008297328056
29604 .00502437529710934 .0143572159610812 .00745 .00621188377225459 .0146 41 1
 458 H?.00745 .00621188377225459 .0146 204 84 459 4 2.44657318947895 .0194 0 .01
857239868690595 2.33962028222606 .01956402918225655 5.82641527970202 .0193321848
4719005 2.280838514204405 .0198641779733568 5.50172924564132 .01971635836318445
 2.242612605882095 .02024869585592265 5.20118710010283 .0199526320654868 2.22085
77767813 .0207429542129612 4.87374181625558 .02008216701564275 2.21985352732592
 .02120374258691825 4.58470318863232 .02008805885121455 2.233963872995435 .02161
152885352465 4.320207117359885 .02000456301254805 2.261333062420505 .02197113201
184205 4.06016232612236 .01983828615651515 2.30276140289615 .02227458864331675 3
.790709596771105 .01957598130871455 2.378168127805855 .0225377325841956 3.421493
39183685 .0190670912310769 2.49187743244069 .02257641901759945 2.969694666641625
 .01822862374633775 2.643498912030525 .02218831873112225 2.407888647368335 .0169
947070776203 2.705896785245055 .02186845893945515 2.14454806688547 .016454316120
6251 2.75873918565092 .0214055728532004 1.827075523121735 .0159841329586227 2.76
9801702206595 .02120136129806515 1.696981741573395 .01588437557422455 2.77335355
6611475 .020971040207115 1.55269546782708 .01585225431569905 2.768777785235525 .
02077195920039475 1.427783829704954 .01589362714840865 2.75314191046499 .0205232
484099325 1.268231249410054 .0160344387804678 2.710571498964105 .020161737795222
4 1.019356847956188 .01641316307580485 2.5971085847006 .0196427840389188 .558105
399040061 .0173848902117607 2.44657318947895 .0194 1626303258728245e-30 .0185723
9868690595 141 832 250 832 832 253 141 432 440 833 833 425 141 833 434 432 432 4
25 15 415 24952 0 183 412 744 17 183 0 415 183 183 0 834 181 0 0 +17 834 0 295 8
34 834 0 183 181 0 0 -15 295 24933 0 834 294 821 82 1 404 -1511587174 54 21 2719
6 0 391 357 7 0 +-.010911920087684 -.0062999999999999 .0393 0 0 1 .0023 3e-4 1 0
 0 82 1 396 1813316250 40 6 365 0 1 6 198185596159299e-19 .3489677265738005 ??-.
0170815627918361 .003803973263386795 .0317 -.01708497052713645 .0037886385532113
5 .03178827736383525 -.01709437499971125 .00374597695791733 .0318663213262107 -.
0171090504000927 .00367836844362968 .0319315850612179 -.01712932328221055 .00358
2776003815965 .0319803385448361 -.0171541576804814 .00346191771611928 .032 41 1
 366 L?-.0170815627918361 .003803973263386795 .0317 41 1 367 L?-.017154157680481
4 .00346191771611928 .032 204 24 368 4 .219119131049879 .00513650429051091 3.928
79592010079 -3.141592653589795 .2182214860355255 .00504822692667565 3.9321420321
96435 2.84291372707106 .21572514957958 .00497018296430023 3.941288590155015 2.55
394548587616 .2117718363985355 .00490491922929302 3.95531340146238 2.25968930303
207 .206187915134159 .00485616574567484 3.97422060036261 1.93484808294666 .19913
7418297078 .00483650429051091 3.996708070820705 1.5707963267949 141 356 452 835
 836 312 141 835 308 837 356 312 141 836 447 356 838 312 141 838 440 836 839 312
 141 839 434 838 837 312 141 837 311 839 835 312 141 347 328 840 840 331 141 840
 364 347 347 331 40 6 341 0 1 6 29929893085896e-18 .391302456198021 ??-.01536612
498119535 .00837449718265424 .032 -.01543734190535265 .00824247989971726 .031970
49744867385 -.01548938204141225 .00814426448337582 .0318985594899549 -.015516987
89585945 .00809154414433679 .0318188590860417 -.01552990384146645 .0080667271352
6409 .0317229429051877 -.01553038313775785 .00806580433648414 .0317 41 1 342 L?-
.01536612498119535 .00837449718265424 .032 41 1 343 L?-.01553038313775785 .00806
580433648414 .0317 204 24 344 4 .498994282500648 .00483650429051091 1.5883455355
61155 1.570796326794895 .490422748969482 .00486600684183704 1.615882849848605 2.
018003986155755 .484071278549714 .004937944800556 1.637791967970525 2.4182887443
14645 .480670668395079 .00501764520446922 1.65010073434761 2.73422153283258 .479
071989596756 .00511356138532321 1.656035238564045 3.06504155907136 .479012569747
847 .00513650429051091 1.65625768628107 -3.141592653589795 40 20 314 0 1 20 8593
96105724444e-19 .3410699229304705 ??-.0097 0 .0063 -.00968745463335138 -.0004931
76161993721 .00621660766383679 -.0096552467950291 -.000930703673077632 .00597634
632354584 -.00961690513601726 -.00126693946376485 .0056030344918839 -.0095892202
7574925 -.001461798379790988 .00513637107015979 -.00958474223362926 -.0014908776
99505742 .00463482226204338 -.00960492069957406 -.001354805652074732 .0041561819
78268425 -.00964094137776571 -.001068760660992418 .003747502660566285 -.00967753
984268885 -.000659714023778411 .00345286325607602 -.00969842169143758 -.00017497
6269970842 .003310240521108495 -.00969455580359239 .000324942719618653 .00333561
882388265 -.00966811048375568 .000785900549620348 .003522361425869415 -.00963009
205195028 .0011624659440018 .003852016387780885 -.00959678769901013 .00141126392
291724 .004291734183844475 -.00958332625879266 .001499952605096242 .004788075971
1091 -.00959536393481737 .001420912016419738 .0052806339996234 -.009627284544485
68 .00118549242912261 .00571902540796921 -.00966564960757982 .000815608768645881
 .00605888138301746 -.00969365042826032 .000350915053379587 .00625837533759715 -
.0097 266797867055093e-33 .0063 41 1 315 H?-.0097 266797867055093e-33 .0063 204
 80 316 4 0 .0277 1.570796326794895 .0222 6.23232047353678 .0277833923361632 1.2
357805093447 .0221874546333514 6.18708864129396 .02802365367645415 .901455579743
187 .0221552467950291 6.15219874599376 .0283969655081161 .564929567175591 .02211
690513601725 6.13190811200502 .0288636289298402 .226170679130729 .02208922027574
925 6.1288749051334 .02936517773795665 6.17284304098564 .02208474223362925 6.143
05647438395 .0298438180217316 5.83956514509919 .02210492069957405 6.172779635691
38 .0302524973394337 5.50545382219305 .0221409413777657 6.21512101019448 .030547
136743924 5.1677753582645 .02217753984268885 6.26514553802002 .0306897594788915
 4.82930601306682 .0221984216914376 .033505518086026 .03066438117611735 4.494029
36835798 .0221945558035924 .081109579431416 .0304776385741306 4.160926230153625
 .0221681104837557 .1201305826969232 .0301479836122191 3.825709810846205 .022130
0920519503 .1460093624832666 .02970826581615555 3.487280462665815 .0220967876990
1015 .1552572793923345 .0292119240288909 3.14954208990896 .02208332625879265 .14
70147831233106 .0287193660003766 2.815417007912195 .0220953639348174 .1225220272
461272 .0282809745920308 2.48214095584235 .0221272845444857 .0841827732130216 .0
2794111861698255 2.1456823981317 .0221656496075798 .0361847054140813 .0277416246
6240285 1.806927963301335 .02219365042826035 2750493474794775e-32 .0277 1.570796
326794895 .0222 141 224 223 224 224 219 141 217 235 217 217 214 19 19 30 0 1 0 1
0 6 S0 50 17 25243 0 1 841 4 0 +0 0 .0425 0 0 1 1 0 0 50 841 3283 0 1 842 17 0 +
0 0 .032 0 0 1 1 0 0 50 842 3280 0 1 843 841 0 +0 0 .032 0 0 1 1 0 0 50 843 3278
 0 1 844 842 0 +0 0 .032 0 0 1 1 0 0 50 844 3277 0 1 0 843 0 +0 0 .032 0 0 1 1 0
 0 74 4 CI16 index_map_offset0 0 1 dCCZ20 16 9 0 0 701 845 846 847 848 849 14 39
4 2 0 0 0 0 0 0 0 0 0 0 0 81 2 845 25224 850 1 0 846 0 0 0 851 81 2 846 25229 85
2 1 845 847 0 0 0 853 81 2 847 27113 854 1 846 848 0 0 0 855 81 1 848 27225 856
 1 847 849 0 0 857 81 2 849 27674 858 1 848 14 0 0 859 0 81 2 14 27768 860 1 849
 2 0 0 0 0 80 2 860 861 862 9000 0 0 0 0 3 5 0 0 0 FFTFFFFFFFFFFF9 1 79 16 862 B
ODY_RECIPE_200180 2 858 863 864 8004 0 0 0 0 3 5 0 0 0 FFTFFFFFFFFFFF2 3 83 1 85
9 1e3 79 16 864 SDL/TYSA_DENSITY80 1 856 865 866 9000 1 1 1 1 1 1 1 1 0 FFTFFFFF
FFFFFF1 82 1 857 2860239 79 10 866 BODY_MATCH80 2 854 867 868 9000 0 0 0 0 3 5 0
 0 0 FFTFFFFFFFFFFF9 1 82 1 855 1 79 24 868 BODY_IN_LIGHTWEIGHT_PERM80 2 852 869
 870 9000 0 0 0 0 3 5 0 0 0 FFTFFFFFFFFFFF9 1 82 1 853 391 79 30 870 LAST_BODY_M
ODIFYING_FEATURE_ID80 2 850 871 872 9000 0 0 0 0 3 5 0 0 0 FFTFFFFFFFFFFT9 1 82
 1 851 500 79 19 872 ENT_TIME_STAMP_200180 2 13 873 874 9000 0 0 0 0 3 5 0 0 0 F
FTFFFFFFFFFFF9 1 82 1 15 126 79 12 874 ATOM_ID_20011 0 
