**ABCDEFGHIJKLMNOPQRSTUVWXYZabcdefghijklmnopqrstuvwxyz**************************
**PARASOLID !"#$%&'()*+,-./:;<=>?@[\]^_`{|}~0123456789**************************
**PART1;
MC=AMD64;
MC_MODEL=Intel64 Family 6 Model 78 Stepping 3, GenuineIntel;
MC_ID=unknown;
OS=Windows_NT;
OS_RELEASE=unknown;
FRU=Parasolid Version 31.1, build 290,  3- 9-2020;
APPL=SOLIDWORKS 2020-2020128;
SITE=;
USER=unknown;
FORMAT=text;
GUISE=transmit;
KEY=Wrist Cover - short;
FILE=Wrist Cover - short.x_t;
DATE=Sun Nov 29 01:25:15 2020;
**PART2;
SCH=SCH_3101290_31100;
USFLD_SIZE=0;
**PART3;
**END_OF_HEADER*****************************************************************
T51 : TRANSMIT FILE created by modeller version 310129023 SCH_3101290_31100_1300
6222 0 12 34 CCCCCCI4 mesh1006 0 I8 polyline1008 0 CCCCCCCDI5 owner1040 0 CCCCCC
I13 boundary_mesh1006 0 I17 boundary_polyline1008 0 CCCA16 index_map_offset0 0 1
 dA9 index_map82 0 A17 node_id_index_map82 0 A20 schema_embedding_map82 0 A5 chi
ld12 0 A14 lowest_node_id0 0 1 dA16 mesh_offset_data206 0 Z1 1131 2 3 0 0 0 0 0
 0 1e3 1e-8 0 4 0 1 0 1 1 5 6 7 8 0 0 9 10 11 0 0 0 0 0 0 0 81 255 2 2 1115 12 1
 13 0 0 0 0 14 70 11 CI9 list_type0 0 1 uI10 notransmit0 0 1 lCCCDCCDI12 finger_
index0 0 1 dI12 finger_block1012 0 CZ3 0 4 T1 0 0 10 20 1 15 15 13 255 5 38 0 1
 0 16 0 0 17 0 51 255 6 727 0 18 19 0 0 +0 .00476410741974149 .02632234375 1 0 0
 .0025 0 0 -1 31 255 7 767 0 10 20 0 0 --.0025 0 0 -1 0 0 0 0 1 .00975 29 255 8
 546 0 11 21 0 0 -.002516886938731355 .02522689858490565 19 8 CCCCCCCA5 owner12
 0 Z9 42 0 1 17 0 22 V0 16 255 10 764 0 ?23 0 24 7 0 0 1 18 255 11 544 0 25 0 26
 8 ?1 17 255 25 0 27 28 29 11 30 31 0 32 -18 26 541 0 33 11 34 21 ?1 17 33 0 35
 36 37 26 38 24 0 39 +18 34 538 0 40 26 41 42 ?1 29 21 543 0 26 42 8 0 .00251688
6938731355 .02522689858490565 29 42 540 0 34 43 21 -.0025 -.002516886938731355 .
02522689858490565 29 43 537 0 41 44 42 -.0025 .002516886938731355 .0252268985849
0565 18 41 535 0 45 34 46 43 ?1 29 44 524 0 46 47 43 -.0025 -.004318863735653505
 -.0238623116238318 18 46 522 0 48 41 49 44 ?1 29 47 521 0 49 50 44 -.0025 -.004
318863735653505 .0238623116238318 18 49 519 0 51 46 52 47 ?1 29 50 518 0 52 53 4
7 0 -.004318863735653505 -.0238623116238318 18 52 516 0 54 49 55 50 ?1 29 53 515
 0 55 56 50 0 -.004318863735653505 .0238623116238318 18 55 513 0 30 52 57 53 ?1
 29 56 502 0 57 58 53 0 .004318863735653505 .0238623116238318 18 57 500 0 59 55
 60 56 ?1 29 58 499 0 60 61 56 0 .004318863735653505 -.0238623116238318 18 60 49
7 0 62 57 63 58 ?1 29 61 496 0 63 64 58 -.0025 .004318863735653505 .023862311623
8318 18 63 494 0 65 60 66 61 ?1 29 64 493 0 66 67 61 -.0025 .004318863735653505
 -.0238623116238318 18 66 491 0 68 63 69 64 ?1 29 67 480 0 69 70 64 0 .002516886
938731355 -.02522689858490565 18 69 478 0 71 66 72 67 ?1 29 70 477 0 72 73 67 0
 -.002516886938731355 -.02522689858490565 18 72 475 0 74 69 75 70 ?1 29 73 474 0
 75 76 70 -.0025 .002516886938731355 -.02522689858490565 18 75 472 0 77 72 78 73
 ?1 29 76 471 0 78 0 73 -.0025 -.002516886938731355 -.02522689858490565 18 78 46
9 0 79 75 0 76 ?1 17 79 0 80 81 82 78 48 83 0 84 -15 255 80 674 0 85 86 0 17 81
 0 80 85 79 72 84 87 0 0 -17 82 0 80 79 85 46 54 88 0 0 -17 48 0 89 90 91 46 79
 83 0 92 +16 83 570 0 ?48 93 94 95 0 0 1 17 84 0 96 97 98 78 81 87 0 91 +15 96 3
97 0 97 99 0 17 97 0 96 100 84 75 91 101 0 102 +17 98 0 96 84 100 72 103 104 0 8
1 -16 87 481 0 ?84 105 106 107 0 0 1 17 91 0 89 48 77 78 97 101 0 0 -15 89 337 0
 108 109 0 17 77 0 89 91 108 75 110 94 0 97 +16 101 470 0 ?97 111 112 113 0 0 1
 16 111 359 0 ?114 104 101 115 0 0 1 16 112 783 0 ?116 101 117 118 0 0 1 31 113
 418 0 101 119 120 0 --.0025 0 -.024 -1 0 0 0 0 1 .0028 31 119 419 0 121 115 113
 0 --.0025 0 -.024 -1 0 0 0 0 1 .0011 31 120 243 0 122 113 123 0 +0 0 .024 1 0 0
 0 0 -1 .0028 16 122 542 0 ?36 124 125 120 0 0 1 31 123 242 0 125 120 126 0 +0 0
 .024 1 0 0 0 0 -1 .0011 16 125 181 0 ?127 122 128 123 0 0 1 31 126 241 0 124 12
3 129 0 --.0025 0 .024 -1 0 0 0 0 1 .0011 16 124 189 0 ?130 131 122 126 0 0 1 31
 129 240 0 128 126 132 0 --.0025 0 .024 -1 0 0 0 0 1 .0028 16 128 536 0 ?133 125
 121 129 0 0 1 31 132 73 0 134 129 135 0 +-.0025 0 0 1 0 0 0 0 -1 .02425 16 134
 520 0 ?92 136 131 132 131 131 1 31 135 74 0 106 132 107 0 +0 0 0 1 0 0 0 0 -1 .
02425 16 106 514 0 ?137 87 136 135 136 136 1 30 255 107 483 0 87 135 138 0 --.01
041959594928932 -.002516886938731355 -.02522689858490565 1 0 0 30 138 488 0 105
 107 139 0 +-.01041959594928932 .002516886938731355 -.02522689858490565 1 0 0 16
 105 486 0 ?100 140 87 138 0 0 1 30 139 505 0 140 138 141 0 +0 .0043188637356535
05 .0238623116238318 1 0 0 16 140 503 0 ?59 142 105 139 0 0 1 30 141 510 0 142 1
39 143 0 -0 .004318863735653505 -.0238623116238318 1 0 0 16 142 508 0 ?68 144 14
0 141 0 0 1 30 143 527 0 144 141 145 0 -0 -.004318863735653505 .0238623116238318
 1 0 0 16 144 525 0 ?51 88 142 143 0 0 1 30 145 532 0 88 143 146 0 +0 -.00431886
3735653505 -.0238623116238318 1 0 0 16 88 530 0 ?54 147 144 145 0 0 1 30 146 549
 0 147 145 148 0 --.01041959594928932 .002516886938731355 .02522689858490565 1 0
 0 16 147 547 0 ?149 150 88 146 0 0 1 30 148 554 0 150 146 151 0 +-.010419595949
28932 -.002516886938731355 .02522689858490565 1 0 0 16 150 552 0 ?32 152 147 148
 0 0 1 31 151 609 0 152 148 153 0 -0 .00476410741974149 -.02632234375 1 0 0 0 0
 -1 .0025 16 152 557 0 ?62 94 150 151 0 0 1 31 153 610 0 94 151 95 0 --.0025 .00
476410741974149 -.02632234375 -1 0 0 0 0 1 .0025 16 94 563 0 ?77 83 152 153 0 0
 1 31 95 611 0 83 153 154 0 --.0025 -.00476410741974149 -.02632234375 -1 0 0 0 0
 1 .0025 31 154 612 0 93 95 155 0 -0 -.00476410741974149 -.02632234375 1 0 0 0 0
 -1 .0025 16 93 577 0 ?74 31 83 154 0 0 1 31 155 613 0 31 154 156 0 -0 -.0047641
0741974149 .02632234375 1 0 0 0 0 -1 .0025 16 31 583 0 ?30 157 93 155 0 0 1 31 1
56 614 0 157 155 158 0 --.0025 -.00476410741974149 .02632234375 -1 0 0 0 0 1 .00
25 16 157 589 0 ?40 159 31 156 0 0 1 31 158 615 0 159 156 20 0 --.0025 .00476410
741974149 .02632234375 -1 0 0 0 0 1 .0025 16 159 596 0 ?65 24 157 158 0 0 1 31 2
0 616 0 24 158 7 0 -0 .00476410741974149 .02632234375 1 0 0 0 0 -1 .0025 16 24 6
03 0 ?33 10 159 20 0 0 1 17 65 0 89 108 160 63 45 159 0 161 +17 108 0 89 77 65 6
6 161 131 0 110 -17 160 0 89 65 40 41 133 128 0 0 -17 45 0 162 163 164 41 65 159
 0 149 -17 161 0 165 59 68 63 108 131 0 164 +15 165 311 0 166 16 0 17 59 0 165 1
66 161 57 164 140 0 37 +17 68 0 165 161 166 66 167 142 0 108 +16 131 492 0 ?161
 134 124 132 134 134 1 17 164 0 162 45 38 63 59 140 0 0 -15 162 716 0 38 18 0 17
 38 0 162 164 163 57 33 24 0 0 -17 163 0 162 38 45 26 149 147 0 0 -17 149 0 168
 133 39 41 163 147 0 160 +15 168 219 0 133 169 0 17 133 0 168 32 149 34 160 128
 0 28 +17 39 0 168 149 32 26 36 122 0 163 -17 32 0 168 39 133 11 28 150 0 36 +17
 36 0 35 30 33 11 39 122 0 0 +15 35 322 0 36 170 0 17 30 0 35 137 36 55 25 31 0
 171 +17 137 0 35 74 30 52 171 106 0 85 +17 171 0 172 51 54 55 137 106 0 29 -15
 172 306 0 92 173 0 17 51 0 172 92 171 49 29 144 0 90 +17 54 0 172 171 92 52 82
 88 0 137 +17 29 0 27 25 174 55 51 144 0 0 -15 27 695 0 174 175 0 17 174 0 27 29
 28 49 40 157 0 0 -17 28 0 27 174 25 34 32 150 0 0 -17 40 0 89 160 90 34 174 157
 0 133 +17 90 0 89 40 48 49 92 134 0 174 -17 92 0 172 54 51 46 90 134 0 82 +14 2
55 175 694 176 ?18 86 27 5 19 -0 0 18 86 22 81 1 176 1116 177 175 178 0 0 179 18
0 14 18 715 179 ?181 175 162 5 6 -0 0 181 175 22 14 86 673 182 ?175 183 80 5 184
 -0 0 175 183 22 51 19 706 0 175 184 6 0 +0 -.00476410741974149 .02632234375 -1
 0 0 .0025 0 0 1 13 22 41 0 0 0 0 0 0 9 16 14 16 298 185 ?109 0 165 5 186 +173 1
73 109 0 22 81 1 185 1119 177 16 187 0 182 188 189 14 109 66 188 ?170 16 190 5 1
91 +192 192 170 16 22 51 186 70 0 173 193 194 0 +0 0 0 1 0 0 .02425 0 0 -1 14 17
3 50 195 ?169 170 172 5 186 +16 16 169 170 22 81 1 195 1121 177 173 196 0 188 19
7 198 14 169 216 197 ?199 173 168 5 200 +0 0 199 173 22 14 170 56 201 ?173 109 2
02 5 194 +0 0 173 109 22 81 1 201 1123 177 170 203 0 197 204 205 15 202 864 0 20
6 170 207 50 255 194 71 0 170 186 191 0 +0 0 0 1 0 0 0 0 -1 50 191 72 0 109 194
 208 0 +-.0025 -2853163611803955e-34 0 -1 0 0 0 0 1 51 208 664 0 183 191 184 0 +
0 .00476410741974149 -.02632234375 -1 0 0 .0025 0 0 1 14 183 652 204 ?86 209 210
 5 208 -0 0 86 209 22 51 184 685 0 86 208 19 0 +0 -.00476410741974149 -.02632234
375 1 0 0 .0025 0 0 -1 81 1 204 1124 177 183 211 0 201 212 213 14 209 398 212 ?1
83 99 214 5 215 -0 0 183 99 22 15 210 653 0 110 183 0 17 110 0 210 167 102 66 77
 94 0 0 -17 167 0 210 71 110 60 68 142 0 0 -17 102 0 210 110 71 75 100 105 0 0 -
17 71 0 210 102 167 69 62 152 0 100 -17 100 0 96 98 97 69 102 105 0 103 +17 103
 0 35 62 74 69 98 104 0 0 +17 62 0 35 37 103 60 71 152 0 166 +17 74 0 35 103 137
 72 85 93 0 98 +16 104 476 0 ?103 121 111 216 0 0 1 16 121 368 0 ?217 128 104 11
9 0 0 1 31 216 421 0 104 218 115 0 +0 0 -.024 1 0 0 0 0 -1 .0028 31 218 819 0 11
7 118 216 0 +-.0025 0 0 -1 0 0 0 0 1 .01725 31 115 420 0 111 216 119 0 +0 0 -.02
4 1 0 0 0 0 1 .0011 16 117 789 0 ?219 112 220 218 0 0 1 31 118 820 0 112 221 218
 0 +-.003 0 0 -1 0 0 0 0 1 .01725 31 221 822 0 220 0 118 0 +-.003 0 0 -1 0 0 0 0
 1 .00975 16 220 792 0 ?222 117 0 221 0 0 1 17 222 0 223 222 222 0 224 220 0 0 +
15 223 811 0 222 225 226 17 224 0 227 224 224 0 222 220 0 0 -15 227 798 0 224 18
1 0 14 181 795 228 ?229 18 230 5 231 +0 0 229 18 22 81 1 228 1126 177 181 232 0
 212 233 234 14 229 803 233 ?225 181 235 5 236 -0 0 225 181 22 15 230 797 0 116
 181 227 50 231 817 0 181 237 236 0 +-.003 0 0 -1 0 0 0 0 1 51 237 818 0 225 0 2
31 0 --.003 0 0 1 0 0 .00975 0 0 -1 51 236 815 0 229 231 238 0 --.003 0 0 1 0 0
 .01725 0 0 -1 51 238 414 0 99 236 215 0 +-.01041959594928932 0 -.024 1 0 0 .002
8 0 0 -1 14 99 394 239 ?209 199 96 5 238 +0 0 209 199 22 51 215 413 0 209 238 20
0 0 +-.01041959594928932 0 -.024 1 0 0 .0011 0 0 -1 51 200 236 0 169 215 193 0 +
-.01041959594928932 0 .024 1 0 0 .0028 0 0 -1 51 193 235 0 199 200 186 0 +-.0104
1959594928932 0 .024 1 0 0 .0011 0 0 -1 14 199 220 240 ?99 169 241 5 193 -0 0 99
 169 22 81 1 240 1129 177 199 242 0 239 243 244 15 241 998 0 127 199 245 17 127
 0 241 127 127 0 206 125 0 0 +15 245 223 0 246 199 0 17 246 0 245 246 246 0 130
 124 0 0 -17 130 0 190 130 130 0 246 124 0 0 +15 190 878 0 130 109 247 15 247 87
1 0 217 109 248 17 217 0 247 217 217 0 249 121 0 0 +15 248 774 0 250 109 89 17 2
50 0 248 250 250 0 219 117 0 0 -17 219 0 251 219 219 0 250 117 0 0 +15 251 807 0
 219 229 0 17 249 0 252 249 249 0 217 121 0 0 -15 252 401 0 249 209 0 17 206 0 2
02 206 206 0 127 125 0 0 -80 255 1 177 253 254 9000 1 1 1 1 1 1 1 1 0 FFFFTFTFFF
FFFF1 81 1 242 1061 255 199 0 240 256 257 258 81 1 239 1128 177 99 257 0 233 240
 259 81 1 243 1130 177 225 260 0 240 261 262 82 255 1 244 2033123770 14 225 808
 243 ?192 229 223 5 237 +0 0 192 229 22 81 1 260 1070 255 225 0 243 263 264 265
 81 1 261 1131 177 192 264 0 243 0 266 82 1 262 2126840248 14 192 768 261 ?0 225
 267 5 191 +109 109 0 225 22 81 1 264 1071 255 192 0 261 260 0 268 82 1 266 2134
770104 80 1 255 0 269 8001 0 0 0 0 3 5 0 0 0 FFFFTFTFFFFFFF2 83 255 3 268 1 .501
960784313726 1 79 255 15 269 SDL/TYSA_COLOUR15 267 766 0 270 192 0 17 270 0 267
 270 270 0 23 10 0 0 -17 23 0 226 23 23 0 270 10 0 0 +15 226 812 0 23 225 0 81 1
 263 1069 255 229 0 233 232 260 271 83 3 265 1 .501960784313726 1 81 1 233 1127
 177 229 263 0 228 239 272 81 1 232 1068 255 181 0 228 273 263 274 83 3 271 1 .5
01960784313726 1 81 1 273 1067 255 18 0 179 178 232 275 83 3 274 1 .501960784313
726 1 81 1 179 1117 177 18 273 0 176 182 276 81 1 178 1066 255 175 0 176 277 273
 278 83 3 275 1 .501960784313726 1 81 1 277 1065 255 86 0 182 211 178 279 83 3 2
78 1 .501960784313726 1 81 1 182 1118 177 86 277 0 179 185 280 81 1 211 1064 255
 183 0 204 281 277 282 83 3 279 1 .501960784313726 1 81 1 281 1063 255 209 0 212
 257 211 283 83 3 282 1 .501960784313726 1 81 1 212 1125 177 209 281 0 204 228 2
84 81 1 257 1062 255 99 0 239 242 281 285 83 3 283 1 .501960784313726 1 83 3 285
 1 .501960784313726 1 82 1 284 2046493114 82 1 280 2085159350 82 1 276 208909151
0 82 1 272 2130969016 82 1 259 2047869366 81 1 256 1060 255 169 0 197 196 242 28
6 83 3 258 1 .501960784313726 1 81 1 197 1122 177 169 256 0 195 201 287 81 1 196
 1059 255 173 0 195 203 256 288 83 3 286 1 .501960784313726 1 81 1 203 1058 255
 170 0 201 289 196 290 83 3 288 1 .501960784313726 1 81 1 289 1057 255 109 0 188
 187 203 291 83 3 290 1 .501960784313726 1 81 1 188 1120 177 109 289 0 185 195 2
92 81 1 187 1056 255 16 0 185 0 289 293 83 3 291 1 .501960784313726 1 83 3 293 1
 .501960784313726 1 82 1 292 1418789306 82 1 287 2034500022 79 14 254 SWEntUncha
nged17 116 0 230 116 116 0 294 112 0 0 +17 294 0 235 294 294 0 116 112 0 0 -15 2
35 806 0 294 229 251 82 1 234 2133197240 17 85 0 80 82 81 52 74 93 0 0 -17 37 0
 35 33 62 57 166 136 0 38 +17 166 0 165 68 59 60 37 136 0 167 -16 136 498 0 ?37
 106 134 135 106 106 1 15 214 1000 0 114 209 252 17 114 0 214 114 114 0 295 111
 0 0 +17 295 0 207 295 295 0 114 111 0 0 -15 207 857 0 295 170 35 82 1 213 20831
93270 82 1 205 1419116986 82 1 198 1418920374 82 1 189 2068513206 82 1 180 20871
25430 19 17 37 0 1 0 9 5 S0 74 4 CI16 index_map_offset0 0 1 dCCZ20 15 10 0 0 296
 261 297 298 299 300 301 13 264 2 0 0 0 0 0 0 0 0 0 0 81 5 296 36 302 1 0 297 0
 0 303 0 0 0 0 81 2 297 831 304 1 296 298 0 0 0 305 81 2 298 836 306 1 297 299 0
 0 0 307 81 1 299 1011 308 1 298 300 0 0 309 81 2 300 1031 310 1 299 301 0 0 0 3
11 81 2 301 1053 312 1 300 13 0 0 0 0 81 3 13 1055 313 1 301 2 0 0 314 315 316 8
0 3 313 317 318 9000 0 1 0 0 1 1 1 1 0 FFTFFFFFFFFFFF1 1 1 82 1 314 1571253 82 1
 315 243 82 8 316 1571405 1571409 1571411 1571456 1571452 1571421 1571446 157148
4 79 13 318 TempAxisFaces80 2 312 319 320 9000 0 0 0 0 3 5 0 0 0 FFTFFFFFFFFFFF9
 1 79 16 320 BODY_RECIPE_200180 2 310 321 322 9000 0 0 0 0 3 5 0 0 0 FFTFFFFFFFF
FFF9 1 82 1 311 1 79 24 322 BODY_IN_LIGHTWEIGHT_PERM80 1 308 323 324 9000 1 1 1
 1 1 1 1 1 0 FFTFFFFFFFFFFF1 82 1 309 21494 79 10 324 BODY_MATCH80 2 306 325 326
 9000 0 0 0 0 3 5 0 0 0 FFTFFFFFFFFFFF9 1 82 1 307 231 79 30 326 LAST_BODY_MODIF
YING_FEATURE_ID80 2 304 327 328 9000 0 0 0 0 3 5 0 0 0 FFTFFFFFFFFFFT9 1 82 1 30
5 243 79 19 328 ENT_TIME_STAMP_200180 5 302 329 330 9000 0 0 0 0 3 6 0 0 0 FFTTT
TTTFTTFTT2 2 2 2 2 83 1 303 1 79 19 330 BODY_SCALING_FACTOR80 2 12 331 332 9000
 0 0 0 0 3 5 0 0 0 FFTFFFFFFFFFFF9 1 82 1 14 109 79 12 332 ATOM_ID_20011 0 
