**ABCDEFGHIJKLMNOPQRSTUVWXYZabcdefghijklmnopqrstuvwxyz**************************
**PARASOLID !"#$%&'()*+,-./:;<=>?@[\]^_`{|}~0123456789**************************
**PART1;
MC=AMD64;
MC_MODEL=Intel64 Family 6 Model 78 Stepping 3, GenuineIntel;
MC_ID=unknown;
OS=Windows_NT;
OS_RELEASE=unknown;
FRU=Parasolid Version 31.1, build 290,  3- 9-2020;
APPL=SOLIDWORKS 2020-2020128;
SITE=;
USER=unknown;
FORMAT=text;
GUISE=transmit;
KEY=MAGNET;
FILE=MAGNET.x_t;
DATE=Sun Nov 29 01:22:08 2020;
**PART2;
SCH=SCH_3101290_31100;
USFLD_SIZE=0;
**PART3;
**END_OF_HEADER*****************************************************************
T51 : TRANSMIT FILE created by modeller version 310129023 SCH_3101290_31100_1300
6222 0 12 34 CCCCCCI4 mesh1006 0 I8 polyline1008 0 CCCCCCCDI5 owner1040 0 CCCCCC
I13 boundary_mesh1006 0 I17 boundary_polyline1008 0 CCCA16 index_map_offset0 0 1
 dA9 index_map82 0 A17 node_id_index_map82 0 A20 schema_embedding_map82 0 A5 chi
ld12 0 A14 lowest_node_id0 0 1 dA16 mesh_offset_data206 0 Z1 171 2 3 0 0 0 0 0 0
 1e3 1e-8 0 4 0 1 0 1 1 5 6 7 0 0 0 8 9 0 0 0 0 0 0 0 0 81 255 2 2 166 10 1 11 0
 0 0 0 12 70 11 CI9 list_type0 0 1 uI10 notransmit0 0 1 lCCCDCCDI12 finger_index
0 0 1 dI12 finger_block1012 0 CZ3 0 4 T1 0 0 8 20 1 13 13 13 255 5 29 0 1 0 14 0
 0 15 0 54 255 6 105 0 16 17 0 0 +.0038 0 0 1 0 0 .0028 2e-4 0 0 -1 31 255 7 75
 0 9 18 0 0 +.004 0 0 1 0 0 0 0 -1 .0028 19 8 CCCCCCCA5 owner12 0 Z8 7 0 1 15 0
 19 V0 16 255 9 72 0 ?20 0 21 7 0 0 1 17 255 20 0 22 20 20 0 23 9 0 0 +16 21 66
 0 ?24 9 25 18 0 0 1 17 24 0 26 24 24 0 27 21 0 0 +16 25 60 0 ?28 21 29 30 0 0 1
 31 18 69 0 21 30 7 0 -0 0 0 1 0 0 0 0 -1 .0028 31 30 63 0 25 31 18 0 +2e-4 0 0
 1 0 0 0 0 -1 .003 31 31 57 0 29 0 30 0 -.0038 0 0 1 0 0 0 0 -1 .003 16 29 54 0
 ?32 25 0 31 0 0 1 17 32 0 33 32 32 0 34 29 0 0 +15 255 33 55 0 32 14 0 17 34 0
 35 34 34 0 32 29 0 0 -15 35 99 0 34 16 36 14 255 16 98 37 ?0 38 35 5 6 +0 0 0 3
8 19 15 36 100 0 23 16 0 17 23 0 36 23 23 0 20 9 0 0 -81 1 37 167 39 16 40 0 0 4
1 42 14 38 85 41 ?16 43 44 5 17 +0 0 16 43 19 13 19 8 0 0 0 0 0 0 8 14 14 14 25
 45 ?46 0 47 5 48 -0 0 46 0 19 81 1 45 169 39 14 49 0 41 50 51 14 46 1 50 ?43 14
 22 5 52 +0 0 43 14 19 15 47 61 0 28 14 33 51 255 48 28 0 14 53 17 0 -.004 0 0 -
1 0 0 .003 0 0 1 50 255 53 22 0 43 52 48 0 +0 0 0 1 0 0 0 0 -1 54 17 92 0 38 48
 6 0 +2e-4 0 0 1 0 0 .0028 2e-4 0 0 -1 14 43 16 54 ?38 46 26 5 53 -0 0 38 46 19
 50 52 2 0 46 0 53 0 +.004 0 0 1 0 0 0 0 -1 81 1 54 171 39 43 55 0 50 0 56 15 26
 67 0 24 43 0 80 255 1 39 57 58 9000 1 1 1 1 1 1 1 1 0 FFFFTFTFFFFFFF1 81 1 55 1
52 59 43 0 54 60 61 62 81 1 50 170 39 46 60 0 45 54 63 82 255 1 56 152568095 81
 1 60 151 59 46 0 50 49 55 64 82 1 63 150864159 80 1 59 0 65 8001 0 0 0 0 3 5 0
 0 0 FFFFTFTFFFFFFF2 81 1 49 150 59 14 0 45 0 60 66 83 255 3 64 1 0 0 83 3 66 1
 0 0 79 255 15 65 SDL/TYSA_COLOUR81 1 61 153 59 38 0 41 55 40 67 83 3 62 1 0 0 8
1 1 41 168 39 38 61 0 37 45 68 81 1 40 154 59 16 0 37 61 0 69 83 3 67 .752941176
470588 0 0 83 3 69 .752941176470588 0 0 82 1 68 1482686751 79 14 58 SWEntUnchang
ed17 28 0 47 28 28 0 70 25 0 0 +17 70 0 71 70 70 0 28 25 0 0 -15 71 87 0 70 38 0
 15 22 73 0 20 46 0 82 1 51 152830239 15 44 86 0 27 38 71 17 27 0 44 27 27 0 24
 21 0 0 -82 1 42 1483931935 19 15 30 0 1 0 8 5 S0 74 4 CI16 index_map_offset0 0
 1 dCCZ20 13 8 0 0 72 73 54 74 75 11 40 2 0 0 0 0 0 0 0 0 0 0 0 0 81 2 72 42 76
 1 0 73 0 0 0 77 81 2 73 46 78 1 72 74 0 0 0 79 81 1 74 115 80 1 73 75 0 0 81 81
 2 75 121 82 1 74 11 0 0 0 83 81 2 11 148 84 1 75 2 0 0 0 0 80 2 84 85 86 9000 0
 0 0 0 3 5 0 0 0 FFTFFFFFFFFFFF9 1 79 16 86 BODY_RECIPE_200180 2 82 87 88 9000 0
 0 0 0 3 5 0 0 0 FFTFFFFFFFFFFF9 1 82 1 83 1 79 24 88 BODY_IN_LIGHTWEIGHT_PERM80
 1 80 89 90 9000 1 1 1 1 1 1 1 1 0 FFTFFFFFFFFFFF1 82 1 81 854267 79 10 90 BODY_
MATCH80 2 78 91 92 9000 0 0 0 0 3 5 0 0 0 FFTFFFFFFFFFFF9 1 82 1 79 31 79 30 92
 LAST_BODY_MODIFYING_FEATURE_ID80 2 76 93 94 9000 0 0 0 0 3 5 0 0 0 FFTFFFFFFFFF
FT9 1 82 1 77 105 79 19 94 ENT_TIME_STAMP_200180 2 10 95 96 9000 0 0 0 0 3 5 0 0
 0 FFTFFFFFFFFFFF9 1 82 1 12 101 79 12 96 ATOM_ID_20011 0 
