**ABCDEFGHIJKLMNOPQRSTUVWXYZabcdefghijklmnopqrstuvwxyz**************************
**PARASOLID !"#$%&'()*+,-./:;<=>?@[\]^_`{|}~0123456789**************************
**PART1;
MC=AMD64;
MC_MODEL=Intel64 Family 6 Model 78 Stepping 3, GenuineIntel;
MC_ID=unknown;
OS=Windows_NT;
OS_RELEASE=unknown;
FRU=Parasolid Version 31.1, build 290,  3- 9-2020;
APPL=SOLIDWORKS 2020-2020128;
SITE=;
USER=unknown;
FORMAT=text;
GUISE=transmit;
KEY=MOTOR SHAFT;
FILE=MOTOR SHAFT.x_t;
DATE=Sun Nov 29 01:19:59 2020;
**PART2;
SCH=SCH_3101290_31100;
USFLD_SIZE=0;
**PART3;
**END_OF_HEADER*****************************************************************
T51 : TRANSMIT FILE created by modeller version 310129023 SCH_3101290_31100_1300
6222 0 12 34 CCCCCCI4 mesh1006 0 I8 polyline1008 0 CCCCCCCDI5 owner1040 0 CCCCCC
I13 boundary_mesh1006 0 I17 boundary_polyline1008 0 CCCA16 index_map_offset0 0 1
 dA9 index_map82 0 A17 node_id_index_map82 0 A20 schema_embedding_map82 0 A5 chi
ld12 0 A14 lowest_node_id0 0 1 dA16 mesh_offset_data206 0 Z1 904 2 3 0 0 0 0 0 0
 1e3 1e-8 0 4 0 1 0 1 1 5 6 7 8 0 0 9 10 11 0 0 0 0 0 0 0 81 255 2 2 900 12 1 13
 0 0 0 0 14 70 11 CI9 list_type0 0 1 uI10 notransmit0 0 1 lCCCDCCDI12 finger_ind
ex0 0 1 dI12 finger_block1012 0 CZ3 0 4 T1 0 0 8 20 1 15 15 13 255 5 54 0 1 0 16
 0 0 17 0 51 255 6 53 0 16 18 0 0 -0 0 .009 0 0 -1 .0015 -1 0 0 30 255 7 51 0 10
 19 0 0 +.001118033988749894 .001 .009 0 0 -1 29 255 8 42 0 20 21 0 -.0011180339
88749894 .001 0 19 8 CCCCCCCA5 owner12 0 Z9 16 0 1 17 0 22 V0 16 255 10 45 0 ?23
 0 24 7 0 0 1 18 255 11 13 0 25 0 26 27 ?1 17 255 25 0 28 29 29 11 30 31 0 32 +1
8 26 10 0 30 11 20 33 ?1 29 27 15 0 11 33 21 -.001118033988749894 .001 .009 29 3
3 12 0 26 0 27 .001118033988749894 .001 .009 29 21 43 0 34 27 8 .001118033988749
894 .001 0 18 34 38 0 35 20 0 21 ?1 17 35 0 36 37 37 34 38 39 0 23 -18 20 37 0 3
8 26 34 8 ?1 17 38 0 40 32 23 20 35 39 0 41 +15 255 40 46 0 38 42 0 17 32 0 40 3
0 38 11 41 24 0 43 -17 23 0 40 38 30 34 44 10 0 45 +16 39 29 0 ?38 46 47 48 0 0
 1 17 41 0 49 45 43 20 32 24 0 37 +15 49 48 0 45 16 0 17 45 0 49 44 41 34 37 47
 0 0 +17 43 0 49 41 44 11 29 46 0 0 -16 24 44 0 ?41 10 31 19 0 0 1 17 37 0 36 35
 35 20 45 47 0 0 -15 36 28 0 37 50 0 16 47 33 0 ?45 39 0 51 0 0 1 31 255 51 41 0
 47 52 48 0 +0 0 0 0 0 1 1 0 0 .0015 30 52 8 0 31 53 51 0 +-.001118033988749894
 .001 .009 -1 0 0 30 48 40 0 39 51 19 0 +-.001118033988749894 .001 0 -1 0 0 30 1
9 50 0 24 48 7 0 +-.001118033988749894 .001 .009 0 0 -1 16 31 7 0 ?25 24 46 52 0
 0 1 31 53 5 0 46 0 52 0 +0 0 .009 0 0 1 1 0 0 .0015 16 46 4 0 ?29 31 39 53 0 0
 1 17 29 0 28 25 25 26 43 46 0 44 +15 28 3 0 29 54 0 17 44 0 49 43 45 26 23 10 0
 0 -14 255 54 1 55 ?50 42 28 5 56 +0 0 50 42 22 81 1 55 901 57 54 58 0 0 59 60 1
4 50 27 59 ?0 54 36 5 61 -0 0 0 54 22 14 42 47 62 ?54 16 40 5 18 -0 0 54 16 22 5
0 255 56 2 0 54 0 61 0 +0 0 .009 0 0 1 1 0 0 13 22 17 0 0 0 0 0 0 9 16 14 16 49
 63 ?42 0 49 5 6 -0 0 42 0 22 81 1 63 904 57 16 64 0 62 0 65 80 255 1 57 66 67 9
000 1 1 1 1 1 1 1 1 0 FFFFTFTFFFFFFF1 81 1 64 887 68 16 0 63 0 69 70 81 1 62 903
 57 42 69 0 59 63 71 82 255 1 65 2088763504 81 1 69 888 68 42 0 62 64 58 72 81 1
 59 902 57 50 73 0 55 62 74 82 1 71 2088501360 81 1 73 890 68 50 0 59 58 0 75 82
 1 74 2087977072 80 1 68 0 76 8001 0 0 0 0 3 5 0 0 0 FFFFTFTFFFFFFF2 81 1 58 889
 68 54 0 55 69 73 77 83 255 3 75 0 0 1 83 3 77 0 0 1 79 255 15 76 SDL/TYSA_COLOU
R83 3 72 0 0 1 83 3 70 0 0 1 79 14 67 SWEntUnchanged50 61 39 0 50 56 18 0 +0 0 0
 0 0 1 1 0 0 50 18 52 0 42 61 6 0 +-.001118033988749894 .001 .009 0 -1 0 0 0 -1
 82 1 60 2084700272 17 30 0 40 23 32 26 25 31 0 29 -19 17 55 0 1 0 9 5 S0 74 4 C
I16 index_map_offset0 0 1 dCCZ20 15 8 0 0 78 79 63 80 81 13 73 2 0 0 0 0 0 0 0 0
 0 0 0 0 81 2 78 71 82 1 0 79 0 0 0 83 81 2 79 75 84 1 78 80 0 0 0 85 81 1 80 80
 86 1 79 81 0 0 87 81 2 81 861 88 1 80 13 0 0 0 89 81 2 13 885 90 1 81 2 0 0 0 0
 80 2 90 91 92 9000 0 0 0 0 3 5 0 0 0 FFTFFFFFFFFFFF9 1 79 16 92 BODY_RECIPE_200
180 2 88 93 94 9000 0 0 0 0 3 5 0 0 0 FFTFFFFFFFFFFF9 1 82 1 89 1 79 24 94 BODY_
IN_LIGHTWEIGHT_PERM80 1 86 95 96 9000 1 1 1 1 1 1 1 1 0 FFTFFFFFFFFFFF1 82 1 87
 16022591 79 10 96 BODY_MATCH80 2 84 97 98 9000 0 0 0 0 3 5 0 0 0 FFTFFFFFFFFFFF
9 1 82 1 85 34 79 30 98 LAST_BODY_MODIFYING_FEATURE_ID80 2 82 99 100 9000 0 0 0
 0 3 5 0 0 0 FFTFFFFFFFFFFT9 1 82 1 83 110 79 19 100 ENT_TIME_STAMP_200180 2 12
 101 102 9000 0 0 0 0 3 5 0 0 0 FFTFFFFFFFFFFF9 1 82 1 14 101 79 12 102 ATOM_ID_
20011 0 
