**ABCDEFGHIJKLMNOPQRSTUVWXYZabcdefghijklmnopqrstuvwxyz**************************
**PARASOLID !"#$%&'()*+,-./:;<=>?@[\]^_`{|}~0123456789**************************
**PART1;
MC=AMD64;
MC_MODEL=Intel64 Family 6 Model 78 Stepping 3, GenuineIntel;
MC_ID=unknown;
OS=Windows_NT;
OS_RELEASE=unknown;
FRU=Parasolid Version 31.1, build 290,  3- 9-2020;
APPL=SOLIDWORKS 2020-2020128;
SITE=;
USER=unknown;
FORMAT=text;
GUISE=transmit;
KEY=MOTOR;
FILE=MOTOR.x_t;
DATE=Sun Nov 29 01:19:18 2020;
**PART2;
SCH=SCH_3101290_31100;
USFLD_SIZE=0;
**PART3;
**END_OF_HEADER*****************************************************************
T51 : TRANSMIT FILE created by modeller version 310129023 SCH_3101290_31100_1300
6222 0 10 20 CCCCCCCI4 mesh1006 0 I8 polyline1008 0 CCCCCCCCCCA16 mesh_offset_da
ta206 0 Z1 7 2 3 0 0 0 0 0 0 0 1e3 1e-8 0 0 0 1 0 1 4 0 81 255 2 2 7 5 1 0 0 0 0
 0 0 70 11 CI9 list_type0 0 1 uI10 notransmit0 0 1 lCCCDCCDI12 finger_index0 0 1
 dI12 finger_block1012 0 CZ3 0 4 T1 0 0 1 20 1 6 6 11 255 4 5 0 1 7 8 1 9 0 0 0
 12 34 CCCCCCI4 mesh1006 0 I8 polyline1008 0 CCCCCCCDI5 owner1040 0 CCCCCCI13 bo
undary_mesh1006 0 I17 boundary_polyline1008 0 CCCA16 index_map_offset0 0 1 dA9 i
ndex_map82 0 A17 node_id_index_map82 0 A20 schema_embedding_map82 0 A5 child12 0
 A14 lowest_node_id0 0 1 dA16 mesh_offset_data206 0 Z7 51785 10 11 0 0 0 0 0 0 1
e3 1e-8 4 12 0 1 0 1 1 13 14 15 16 0 0 17 18 19 0 0 0 0 0 0 0 100 255 8 6 4 0 0
 1 0 0 0 1 0 0 0 1 0 0 0 1 0 ?11 9 3 0 1 12 20 1 21 4 0 0 12 12 45892 22 23 0 0
 0 0 0 0 1e3 1e-8 9 24 7 1 0 1 1 25 26 27 28 0 0 29 30 31 0 0 0 0 0 0 0 100 20 4
 9 0 0 1 0 0 0 1 0 0 0 1 0 0 0 1 0 ?11 21 1 0 1 24 32 1 0 9 0 0 12 24 45885 33 3
4 0 0 0 0 0 0 1e3 1e-8 21 35 12 1 0 1 1 36 37 38 39 0 0 40 41 42 0 0 0 0 0 0 0 1
00 32 2 21 0 0 1 0 0 0 1 0 0 0 1 0 0 0 1 0 ?81 1 33 45885 43 24 44 0 0 0 0 70 34
 0 4 T24 0 0 4 20 1 45 45 13 255 36 94 0 24 0 46 0 0 47 0 50 255 37 93 0 46 48 0
 0 +-.00381 775e-6 .01669 1 2797941090285175e-31 0 -2797941090285175e-31 1 0 30
 255 38 89 0 41 49 0 0 +-.00381 -775e-6 .01669 0 0 -1 29 255 39 70 0 50 51 0 -.0
0381 775e-6 .01515 19 8 CCCCCCCA5 owner12 0 Z40 28 0 24 47 0 52 V0 16 255 41 77
 0 ?53 0 54 38 0 0 24 18 255 42 25 0 55 0 56 57 ?24 17 255 55 0 58 59 60 42 61 6
2 0 63 +18 56 22 0 60 42 64 65 ?24 29 57 27 0 42 65 66 -.00381 775e-6 .01669 29
 65 24 0 56 67 57 -.00351 775e-6 .01669 29 66 73 0 68 57 69 -.00381 -775e-6 .015
15 18 68 64 0 70 71 0 66 ?24 29 69 72 0 71 66 51 -.00351 -775e-6 .01515 18 71 63
 0 72 73 68 69 ?24 29 51 71 0 73 69 39 -.00351 775e-6 .01515 18 73 62 0 74 50 71
 51 ?24 17 74 0 75 76 77 73 78 79 0 80 +18 50 61 0 81 82 73 39 ?24 17 81 0 83 63
 80 50 84 85 0 86 +18 82 16 0 87 64 50 88 ?24 17 87 0 89 53 90 82 91 92 0 59 -18
 64 19 0 91 56 82 67 ?24 29 88 18 0 82 0 67 -.00381 -775e-6 .01669 29 67 21 0 64
 88 65 -.00351 -775e-6 .01669 17 91 0 58 60 59 64 87 92 0 90 +15 255 58 3 0 59 9
3 0 17 60 0 58 55 91 56 94 95 0 76 +17 59 0 58 91 55 82 96 97 0 98 +16 92 7 0 ?9
1 95 97 99 0 0 24 17 90 0 89 87 72 64 77 54 0 94 -15 89 82 0 72 100 0 17 72 0 89
 90 53 71 70 101 0 77 +17 77 0 75 74 94 71 90 54 0 78 +16 54 76 0 ?77 41 102 49
 0 0 24 17 94 0 75 77 76 64 60 95 0 0 -15 75 80 0 74 103 0 17 76 0 75 94 74 56 8
0 102 0 61 -16 95 10 0 ?60 62 92 104 0 0 24 16 62 13 0 ?55 105 95 106 0 0 24 30
 104 11 0 95 99 106 0 +-.00351 775e-6 .01669 -2797941090285175e-31 1 0 30 99 8 0
 92 107 104 0 +-.00381 -775e-6 .01669 1 72280144832367e-29 0 30 106 14 0 62 104
 108 0 +-.00381 775e-6 .01669 -1 72280144832367e-29 0 30 108 69 0 109 106 110 0
 +-.00381 775e-6 .01515 2797941090285175e-31 -1 0 16 109 57 0 ?111 101 112 108 0
 0 24 30 110 68 0 101 108 113 0 +-.00381 -775e-6 .01515 1 72280144832367e-29 0 1
6 101 53 0 ?72 79 109 110 0 0 24 30 113 67 0 79 110 114 0 +-.00351 775e-6 .01515
 -2797941090285175e-31 1 0 16 79 49 0 ?74 85 101 113 0 0 24 30 114 66 0 85 113 1
15 0 +-.00381 775e-6 .01515 -1 72280144832367e-29 0 16 85 45 0 ?81 97 79 114 0 0
 24 30 115 86 0 105 114 116 0 +-.00381 775e-6 .01669 0 0 -1 16 105 74 0 ?86 102
 62 115 0 0 24 30 116 87 0 102 115 49 0 +-.00351 775e-6 .01669 0 0 -1 16 102 75
 0 ?80 54 105 116 0 0 24 30 49 88 0 54 116 38 0 +-.00351 -775e-6 .01669 0 0 -1 1
7 80 0 83 81 61 73 76 102 0 84 +15 83 78 0 81 117 0 17 61 0 83 80 63 56 55 62 0
 0 -17 84 0 118 78 119 73 81 85 0 0 -15 118 44 0 119 120 0 17 78 0 118 70 84 71
 74 79 0 0 -17 119 0 118 84 70 50 111 109 0 0 -17 70 0 118 119 78 68 72 101 0 53
 -17 111 0 121 98 86 68 119 109 0 0 +15 121 84 0 111 46 0 17 98 0 121 96 111 82
 53 41 0 0 -17 86 0 121 111 96 50 63 105 0 119 +17 96 0 121 86 98 42 59 97 0 0 -
17 63 0 83 61 81 42 86 105 0 96 -16 97 4 0 ?59 92 85 107 0 0 24 30 107 5 0 97 12
2 99 0 +-.00381 775e-6 .01669 2797941090285175e-31 -1 0 31 255 122 175 0 112 123
 107 0 --.00351 -242731793935436e-33 .01592 -1 -2797941090285175e-31 0 279794109
0285175e-31 -1 0 4e-4 16 112 158 0 ?124 109 125 122 0 0 24 31 123 176 0 125 0 12
2 0 +-.00381 -326670026643991e-33 .01592 -1 -2797941090285175e-31 0 279794109028
5175e-31 -1 0 4e-4 16 125 155 0 ?126 112 0 123 0 0 24 17 126 0 127 126 126 0 128
 125 0 0 +15 127 162 0 126 129 130 17 128 0 131 128 128 0 126 125 0 0 -15 131 14
9 0 128 46 121 14 255 46 85 132 ?100 0 131 36 37 -0 0 100 0 52 81 1 132 45878 13
3 46 134 0 0 135 136 14 100 83 135 ?103 46 89 36 48 -0 0 103 46 52 13 52 29 0 0
 0 0 0 0 40 46 81 1 135 45879 133 100 137 0 132 138 139 14 103 81 138 ?117 100 1
40 36 141 -0 0 117 100 52 50 48 92 0 100 141 37 0 +-.00381 -775e-6 .01669 -72280
144832367e-29 1 0 -1 -72280144832367e-29 0 50 141 91 0 103 142 48 0 +-.00351 775
e-6 .01669 -1 -2797941090285175e-31 0 2797941090285175e-31 -1 0 50 142 90 0 117
 143 141 0 +-.00381 775e-6 .01669 -72280144832367e-29 -1 0 1 -72280144832367e-29
 0 14 117 79 144 ?93 103 83 36 142 -0 0 93 103 52 50 143 65 0 120 145 142 0 +0 0
 .01515 0 0 1 1 0 0 14 120 43 146 ?129 93 118 36 143 -0 0 129 93 52 50 145 2 0 9
3 147 143 0 +0 0 .01669 0 0 1 1 0 0 14 93 1 148 ?120 117 58 36 145 +0 0 120 117
 52 51 255 147 172 0 129 0 145 0 +.006001025 241839697188752e-32 .01592 -1 -2797
941090285175e-31 0 4e-4 2797941090285175e-31 -1 0 14 129 159 149 ?0 120 127 36 1
47 -0 0 0 120 52 81 1 149 45884 133 129 150 0 148 0 151 80 255 1 133 152 153 900
0 1 1 1 1 1 1 1 1 0 FFFFTFTFFFFFFF1 81 1 150 45861 154 129 0 149 155 0 156 81 1
 148 45883 133 93 157 0 146 149 158 82 255 1 151 1488847005 81 1 157 45859 154 9
3 0 148 159 155 160 81 1 146 45882 133 120 155 0 144 148 161 82 1 158 1915551889
 81 1 155 45860 154 120 0 146 157 150 162 81 1 144 45881 133 117 159 0 138 146 1
63 82 1 161 1921187985 81 1 159 45858 154 117 0 144 164 157 165 81 1 138 45880 1
33 103 164 0 135 144 166 82 1 163 1922105489 81 1 164 45857 154 103 0 138 137 15
9 167 82 1 166 1922367645 80 1 154 0 168 8001 0 0 0 0 3 5 0 0 0 FFFFTFTFFFFFFF2
 81 1 137 45856 154 100 0 135 134 164 169 83 255 3 167 1 1 1 81 1 134 45855 154
 46 0 132 0 137 170 83 3 169 1 1 1 83 3 170 1 1 1 79 255 15 168 SDL/TYSA_COLOUR8
3 3 165 1 1 1 83 3 162 1 0 0 83 3 160 1 1 1 83 3 156 1 0 0 79 14 153 SWEntUnchan
ged15 140 143 0 171 103 75 17 171 0 140 171 171 0 124 112 0 0 -17 124 0 130 124
 124 0 171 112 0 0 +15 130 163 0 124 129 0 82 1 139 1922629777 82 1 136 19228919
33 17 53 0 89 72 87 68 98 41 0 111 +19 47 95 0 24 0 40 36 S0 74 4 CI16 index_map
_offset0 0 1 dCCZ20 45 4 0 0 149 44 150 33 0 0 0 0 0 0 0 0 0 0 0 0 0 0 0 0 81 3
 44 45854 172 24 0 33 0 0 173 174 175 80 3 172 176 177 9000 0 1 0 0 1 1 1 1 0 FF
TFFFFFFFFFFF1 1 1 82 1 173 1540491 82 1 174 141 82 1 175 1540716 79 13 177 TempA
xisFaces80 1 43 178 179 8017 0 0 0 0 0 0 0 0 0 TTTTTTTTTTTTTF3 79 13 179 SDL/TYS
A_NAME81 1 22 45892 43 12 180 0 0 0 0 70 23 0 4 T12 0 0 4 20 1 181 181 13 25 94
 0 12 0 182 0 0 183 0 50 26 93 0 182 184 0 0 +.00381 775e-6 .01669 7228014483236
7e-29 -1 0 1 72280144832367e-29 0 30 27 89 0 30 185 0 0 +.00351 775e-6 .01669 0
 0 -1 29 28 70 0 186 187 0 .00381 775e-6 .01515 19 29 28 0 12 183 0 188 V0 16 30
 77 0 ?189 0 190 27 0 0 12 18 31 25 0 191 0 192 193 ?12 17 191 0 194 195 196 31
 197 198 0 199 +18 192 22 0 196 31 200 201 ?12 29 193 27 0 31 201 202 .00381 775
e-6 .01669 29 201 24 0 192 203 193 .00381 -775e-6 .01669 29 202 73 0 204 193 205
 .00351 775e-6 .01515 18 204 64 0 206 207 0 202 ?12 29 205 72 0 207 202 187 .003
51 -775e-6 .01515 18 207 63 0 208 209 204 205 ?12 29 187 71 0 209 205 28 .00381
 -775e-6 .01515 18 209 62 0 210 186 207 187 ?12 17 210 0 211 212 213 209 214 215
 0 216 +18 186 61 0 217 218 209 28 ?12 17 217 0 219 199 216 186 220 221 0 222 +1
8 218 16 0 223 200 186 224 ?12 17 223 0 225 189 226 218 227 228 0 195 -18 200 19
 0 227 192 218 203 ?12 29 224 18 0 218 0 203 .00351 775e-6 .01669 29 203 21 0 20
0 224 201 .00351 -775e-6 .01669 17 227 0 194 196 195 200 223 228 0 226 +15 194 3
 0 195 229 0 17 196 0 194 191 227 192 230 231 0 212 +17 195 0 194 227 191 218 23
2 233 0 234 +16 228 7 0 ?227 231 233 235 0 0 12 17 226 0 225 223 208 200 213 190
 0 230 -15 225 82 0 208 236 0 17 208 0 225 226 189 207 206 237 0 213 +17 213 0 2
11 210 230 207 226 190 0 214 +16 190 76 0 ?213 30 238 185 0 0 12 17 230 0 211 21
3 212 200 196 231 0 0 -15 211 80 0 210 239 0 17 212 0 211 230 210 192 216 238 0
 197 -16 231 10 0 ?196 198 228 240 0 0 12 16 198 13 0 ?191 241 231 242 0 0 12 30
 240 11 0 231 235 242 0 +.00381 -775e-6 .01669 1 -72280144832367e-29 0 30 235 8
 0 228 243 240 0 +.00351 775e-6 .01669 279794109028517e-30 -1 0 30 242 14 0 198
 240 244 0 +.00381 775e-6 .01669 -279794109028517e-30 1 0 30 244 69 0 245 242 24
6 0 +.00381 775e-6 .01515 -1 -72280144832367e-29 0 16 245 57 0 ?247 237 248 244
 0 0 12 30 246 68 0 237 244 249 0 +.00351 775e-6 .01515 279794109028517e-30 -1 0
 16 237 53 0 ?208 215 245 246 0 0 12 30 249 67 0 215 246 250 0 +.00381 -775e-6 .
01515 1 -72280144832367e-29 0 16 215 49 0 ?210 221 237 249 0 0 12 30 250 66 0 22
1 249 251 0 +.00381 775e-6 .01515 -279794109028517e-30 1 0 16 221 45 0 ?217 233
 215 250 0 0 12 30 251 86 0 241 250 252 0 +.00381 775e-6 .01669 0 0 -1 16 241 74
 0 ?222 238 198 251 0 0 12 30 252 87 0 238 251 185 0 +.00381 -775e-6 .01669 0 0
 -1 16 238 75 0 ?216 190 241 252 0 0 12 30 185 88 0 190 252 27 0 +.00351 -775e-6
 .01669 0 0 -1 17 216 0 219 217 197 209 212 238 0 220 +15 219 78 0 217 253 0 17
 197 0 219 216 199 192 191 198 0 0 -17 220 0 254 214 255 209 217 221 0 0 -15 254
 44 0 255 256 0 17 214 0 254 206 220 207 210 215 0 0 -17 255 0 254 220 206 186 2
47 245 0 0 -17 206 0 254 255 214 204 208 237 0 189 -17 247 0 257 234 222 204 255
 245 0 0 +15 257 84 0 247 182 0 17 234 0 257 232 247 218 189 30 0 0 -17 222 0 25
7 247 232 186 199 241 0 255 +17 232 0 257 222 234 31 195 233 0 0 -17 199 0 219 1
97 217 31 222 241 0 232 -16 233 4 0 ?195 228 221 243 0 0 12 30 243 5 0 233 258 2
35 0 +.00381 775e-6 .01669 -1 -72280144832367e-29 0 31 258 182 0 248 259 243 0 -
.00381 180536108415331e-32 .01592 -1 -279794109028517e-30 0 279794109028517e-30
 -1 0 4e-4 16 248 162 0 ?260 245 261 258 0 0 12 31 259 183 0 261 0 258 0 +.00351
 1721422851444755e-33 .01592 -1 -279794109028517e-30 0 279794109028517e-30 -1 0
 4e-4 16 261 159 0 ?262 248 0 259 0 0 12 17 262 0 263 262 262 0 264 261 0 0 +15
 263 167 0 262 265 266 17 264 0 267 264 264 0 262 261 0 0 -15 267 153 0 264 236
 225 14 236 83 268 ?239 182 267 25 184 -0 0 239 182 188 81 1 268 45885 133 236 2
69 0 0 270 271 14 239 81 270 ?253 236 211 25 272 -0 0 253 236 188 14 182 85 273
 ?236 0 257 25 26 -0 0 236 0 188 50 184 92 0 236 272 26 0 +.00351 775e-6 .01669
 1 279794109028517e-30 0 -279794109028517e-30 1 0 13 188 29 0 0 0 0 0 0 29 182 5
0 272 91 0 239 274 184 0 +.00381 -775e-6 .01669 72280144832367e-29 1 0 -1 722801
44832367e-29 0 50 274 90 0 253 275 272 0 +.00381 775e-6 .01669 -1 -2797941090285
17e-30 0 279794109028517e-30 -1 0 14 253 79 276 ?229 239 277 25 274 -0 0 229 239
 188 50 275 65 0 256 278 274 0 +0 0 .01515 0 0 1 1 0 0 14 256 43 279 ?265 229 25
4 25 275 -0 0 265 229 188 50 278 2 0 229 280 275 0 +0 0 .01669 0 0 1 1 0 0 14 22
9 1 281 ?256 253 194 25 278 +0 0 256 253 188 51 280 179 0 265 0 278 0 +.00600102
5 2418396971887515e-33 .01592 -1 -279794109028517e-30 0 4e-4 279794109028517e-30
 -1 0 14 265 163 282 ?0 256 263 25 280 -0 0 0 256 188 81 1 282 45891 133 265 283
 0 281 0 284 81 1 283 45868 154 265 0 282 285 0 286 81 1 281 45890 133 229 287 0
 279 282 288 82 1 284 1121910944 81 1 287 45866 154 229 0 281 289 285 290 81 1 2
79 45889 133 256 285 0 276 281 291 82 1 288 1927282833 81 1 285 45867 154 256 0
 279 287 283 292 81 1 276 45888 133 253 289 0 273 279 293 82 1 291 1932918929 81
 1 289 45865 154 253 0 276 294 287 295 81 1 273 45887 133 182 296 0 270 276 297
 82 1 293 1933836448 81 1 296 45862 154 182 0 273 0 269 298 81 1 270 45886 133 2
39 294 0 268 273 299 82 1 297 1934622865 81 1 294 45864 154 239 0 270 269 289 30
0 82 1 299 1934098577 81 1 269 45863 154 236 0 268 296 294 301 83 3 300 1 1 1 83
 3 301 1 1 1 83 3 298 1 1 1 83 3 295 1 1 1 83 3 292 1 0 0 83 3 290 1 1 1 83 3 28
6 1 0 0 15 277 147 0 302 253 219 17 302 0 277 302 302 0 260 248 0 0 -17 260 0 26
6 260 260 0 302 248 0 0 +15 266 168 0 260 265 0 82 1 271 1934360736 17 189 0 225
 208 223 204 234 30 0 247 +19 183 95 0 12 0 29 25 S0 74 20 181 4 0 0 282 180 283
 22 0 0 0 0 0 0 0 0 0 0 0 0 0 0 0 0 81 3 180 45861 172 12 0 22 0 0 303 304 305 8
2 1 303 1540478 82 1 304 144 82 1 305 1540586 81 1 10 51785 43 7 306 0 0 0 0 70
 11 0 4 T7 0 0 4 20 1 307 307 13 13 94 0 7 0 308 0 0 309 0 51 14 93 0 310 311 0
 0 -0 0 .01515 0 0 -1 .006 -1 0 0 30 15 303 0 7 312 0 313 +.003316624790355405 -
.005 .01515 0 0 -1 29 16 71 0 314 315 0 -.003316624790355405 -.005 0 19 17 28 0
 7 309 0 316 V0 16 18 77 0 ?317 0 318 319 0 0 7 18 19 25 0 320 0 321 315 ?7 17 3
20 0 322 323 324 19 325 326 0 327 +18 321 22 0 324 19 328 329 ?7 29 315 27 0 19
 329 16 .003316624790355405 -.005 .01515 29 329 24 0 321 330 315 -.0033166247903
55405 -.005 .01515 29 330 21 0 328 331 329 -.003316624790355405 .005 .01515 18 3
28 19 0 332 321 333 330 ?7 29 331 18 0 333 334 330 .003316624790355405 .005 .015
15 18 333 16 0 335 328 314 331 ?7 29 334 272 0 336 337 331 .003316624790355415 -
.005 0 18 336 197 0 338 314 339 334 1e-8 7 29 337 273 0 339 340 334 -.006 867361
737988404e-33 0 18 339 195 0 341 336 342 337 ?7 29 340 274 0 342 343 337 .003316
6247903554 .005 0 18 342 194 0 344 339 345 340 1e-8 7 29 343 275 0 345 346 340 -
.0033166247903554 .005 0 18 345 198 0 347 342 348 343 1e-8 7 29 346 276 0 348 34
9 343 .006 -867361737988404e-33 0 18 348 193 0 350 345 351 346 ?7 29 349 277 0 3
52 353 346 .006 .005 0 18 352 203 0 354 355 356 349 ?7 29 353 278 0 356 357 349
 -.006 .005 0 18 356 202 0 358 352 359 353 ?7 29 357 279 0 359 360 353 -.006 -.0
05 0 18 359 200 0 361 356 362 357 ?7 29 360 280 0 362 363 357 .006 -.005 0 18 36
2 199 0 364 359 0 360 ?7 29 363 281 0 351 365 360 .006 .005 -.0092 18 351 206 0
 366 348 367 363 ?7 29 365 282 0 367 368 363 -.006 .005 -.0092 18 367 205 0 369
 351 370 365 ?7 29 368 283 0 370 371 365 -.006 -.005 -.0092 18 370 204 0 372 367
 355 368 ?7 29 371 284 0 355 0 368 .006 -.005 -.0092 18 355 201 0 373 370 352 37
1 ?7 17 373 0 374 375 376 355 372 377 0 378 -15 374 78 0 379 380 0 17 375 0 374
 381 373 362 382 383 0 0 +17 376 0 374 373 361 370 384 385 0 386 -17 372 0 387 3
69 378 370 373 377 0 376 +16 377 184 0 ?372 388 389 390 0 0 7 17 378 0 387 372 3
66 355 391 389 0 382 +15 387 237 0 378 308 392 17 366 0 387 378 369 351 393 394
 0 395 +17 391 0 396 397 382 351 378 389 0 0 -16 389 181 0 ?378 377 398 399 0 0
 7 17 382 0 396 391 364 355 375 383 0 0 -15 396 222 0 400 401 0 17 364 0 396 382
 400 362 402 403 0 404 +16 383 163 0 ?375 405 385 406 0 0 7 16 405 137 0 ?407 40
8 383 409 0 0 7 16 385 170 0 ?384 383 410 411 0 0 7 30 406 259 0 383 411 412 0 +
.006 -.005 -.0092 0 0 1 30 411 260 0 385 413 406 0 +-.006 -.005 -.0092 0 0 1 133
 255 412 257 0 398 406 414 0 +415 -.006 .005 0 -.0033166247903554 .005 0 -.012 -
.0093166247903554 16 398 171 0 ?416 389 417 412 0 0 7 133 414 256 0 417 412 418
 0 +415 .0033166247903554 .005 0 .006 .005 0 -.002683375209644605 0 30 415 263 0
 7 419 420 421 +.006 .005 0 1 0 0 30 419 264 0 422 423 415 0 +-.006 .005 0 86736
1737988404e-31 1 0 30 420 262 0 424 415 413 0 +.006 .005 -.0092 0 0 1 141 255 42
1 414 425 425 415 141 425 412 421 421 415 16 424 153 0 ?397 410 394 420 0 0 7 30
 413 261 0 410 420 411 0 +-.006 .005 -.0092 0 0 1 16 410 180 0 ?426 385 424 413
 0 0 7 17 426 0 427 416 393 356 428 410 0 429 +15 427 82 0 317 430 0 17 416 0 42
7 431 426 345 429 398 0 432 +17 393 0 427 426 395 367 366 394 0 0 -17 428 0 433
 386 358 367 426 410 0 393 -17 429 0 434 435 347 356 416 398 0 0 -15 434 218 0 3
47 436 0 17 435 0 434 347 429 339 358 437 0 438 -17 347 0 434 429 435 345 439 44
0 0 416 -17 439 0 441 442 432 339 347 440 0 0 +16 440 49 0 ?439 443 444 445 0 0
 7 16 443 4 0 ?323 446 440 447 0 0 7 16 444 140 0 ?442 440 408 448 0 0 7 133 445
 291 0 440 449 450 0 +451 -.0033166247903554 .005 0 -.006 867361737988404e-33 0
 2.156481870252045 3.141592653589795 30 449 288 0 7 452 445 453 +-.0033166247903
55405 -.005 .01515 0 0 -1 133 450 294 0 318 445 454 0 +454 -.003316624790355405
 .005 .01515 -.003316624790355405 .005 3469446951953615e-33 0 .01515 31 451 67 0
 7 455 448 456 +0 0 0 0 0 1 1 0 0 .006 31 455 69 0 7 457 451 458 +0 0 0 0 0 1 1
 0 0 .006 133 448 286 0 444 451 452 0 +451 -.006 520417042793043e-33 0 -.0033166
2479035541 -.005 0 3.141592653589795 4.126703436927535 141 456 448 459 459 451 1
41 459 445 456 456 451 133 452 287 0 460 448 449 0 +449 -.003316624790355405 -.0
05 .01515 -.003316624790355405 -.005 3469446951953615e-33 0 .01515 16 460 75 0 ?
379 318 461 452 0 0 7 17 379 0 374 361 325 314 462 460 0 0 +16 318 76 0 ?432 18
 460 450 0 0 7 16 461 74 0 ?463 460 326 312 0 0 7 17 463 0 464 465 466 336 327 4
61 0 0 +16 326 13 0 ?320 461 467 457 0 0 7 133 312 302 0 461 468 15 0 +15 .00331
6624790355405 -.005 .01515 .003316624790355405 -.005 3469446951953615e-33 0 .015
15 133 468 301 0 408 469 312 0 +455 .003316624790355415 -.005 0 .006 -8673617379
88404e-33 0 5.29807452384184 6.28318530717959 16 408 57 0 ?465 444 405 468 0 0 7
 30 469 300 0 7 319 468 470 +.003316624790355405 .005 .01515 0 0 -1 133 319 299
 0 18 409 469 0 +469 .003316624790355405 .005 .01515 .003316624790355405 .005 34
69446951953615e-33 0 .01515 141 470 319 470 470 469 133 409 298 0 405 454 319 0
 +455 .006 -520417042793043e-33 0 .0033166247903554 .005 0 0 .985110783337746 30
 454 295 0 7 450 409 471 +-.003316624790355405 .005 .01515 0 0 -1 141 471 450 47
1 471 454 17 465 0 464 407 463 348 338 408 0 0 +15 464 84 0 465 310 0 17 407 0 4
64 472 465 342 350 405 0 317 +17 338 0 473 404 402 336 465 408 0 381 -15 473 212
 0 338 474 0 17 404 0 473 402 338 362 381 475 0 375 -17 402 0 473 338 404 348 36
4 403 0 400 -17 381 0 374 327 375 336 404 475 0 463 +17 327 0 374 325 381 19 463
 461 0 466 -16 475 154 0 ?381 437 476 418 0 0 7 16 437 167 0 ?358 422 475 419 42
2 422 7 16 476 160 0 ?361 475 477 478 0 0 7 133 418 254 0 475 414 478 0 +423 .00
6 -.005 0 .003316624790355415 -.005 0 0 .00268337520964459 133 478 253 0 476 418
 447 0 +423 -.003316624790355415 -.005 0 -.006 -.005 0 .00931662479035542 .012 3
0 423 265 0 7 479 419 480 +.006 -.005 0 -1 0 0 30 479 266 0 477 481 423 0 +.006
 .005 0 -867361737988404e-31 -1 0 141 480 478 482 482 423 141 482 418 480 480 42
3 16 477 147 0 ?400 476 403 479 403 403 7 30 481 267 0 394 483 479 0 +.006 .005
 -.0092 1 0 0 16 394 190 0 ?366 424 388 481 0 0 7 30 483 268 0 388 390 481 0 +-.
006 .005 -.0092 867361737988404e-31 1 0 16 388 187 0 ?369 394 377 483 0 0 7 30 3
90 269 0 377 399 483 0 +.006 -.005 -.0092 -1 0 0 30 399 270 0 389 484 390 0 +.00
6 .005 -.0092 -867361737988404e-31 -1 0 31 484 5900 0 485 486 399 0 +0 0 .01515
 0 0 1 1 0 0 .0025 16 485 5878 0 ?487 488 489 484 0 0 7 31 486 5901 0 488 490 48
4 0 +0 0 .01645 0 0 1 1 0 0 .0025 16 488 5881 0 ?491 403 485 486 0 0 7 31 490 71
91 0 492 493 486 0 +0 0 -.0092 0 0 -1 -1 0 0 .002 16 492 7169 0 ?494 489 0 490 0
 0 7 31 493 7192 0 489 0 490 0 +0 0 -.0099 0 0 -1 -1 0 0 .002 16 489 7172 0 ?495
 485 492 493 0 0 7 17 495 0 496 495 495 0 497 489 0 0 +15 496 7182 0 495 498 0 1
7 497 0 499 497 497 0 495 489 0 0 -15 499 7178 0 497 500 501 14 500 7175 502 ?49
8 503 499 13 504 -0 0 498 503 316 15 501 7179 0 494 500 0 17 494 0 501 494 494 0
 505 492 0 0 +17 505 0 392 505 505 0 494 492 0 0 -15 392 7162 0 505 308 0 14 308
 7165 506 ?507 0 387 13 508 +0 0 507 0 316 81 1 506 51770 133 308 509 0 502 510
 511 14 507 5874 510 ?310 308 322 13 512 +0 0 310 308 316 50 508 248 0 308 513 5
14 0 +0 0 -.0092 0 0 -1 -1 0 0 13 316 29 0 0 0 0 0 0 17 308 51 513 5897 0 515 51
6 508 0 -0 0 .01645 0 0 -1 .0025 -1 0 0 50 514 247 0 517 508 518 0 +0 0 0 0 0 -1
 -1 0 0 14 517 238 519 ?515 520 521 13 514 -474 436 515 520 316 50 518 245 0 520
 514 522 0 +-.006 .005 -.0092 1 -867361737988404e-31 0 867361737988404e-31 1 0 1
4 520 227 523 ?517 401 433 13 518 -0 0 517 401 316 50 522 243 0 401 518 512 0 +.
006 .005 -.0092 -1 867361737988404e-31 0 -867361737988404e-31 -1 0 14 401 219 52
4 ?520 436 396 13 522 -0 0 520 436 316 50 512 2 0 507 522 525 0 +0 0 .01515 0 0
 1 1 0 0 50 525 90 0 380 512 526 0 +.003316624790355405 -.005 .01515 0 1 0 0 0 1
 14 380 79 527 ?474 528 374 13 525 -0 0 474 528 316 51 526 91 0 528 525 311 0 -0
 0 .01515 0 0 -1 .006 -1 0 0 14 528 81 529 ?380 430 441 13 526 -0 0 380 430 316
 50 311 92 0 430 526 14 0 +.003316624790355405 .005 .01515 0 -1 0 0 0 -1 14 430
 83 530 ?528 310 427 13 311 -0 0 528 310 316 81 1 530 51777 133 430 531 0 529 53
2 533 14 310 85 532 ?430 507 464 13 14 -0 0 430 507 316 81 1 532 51778 133 310 5
34 0 530 535 536 81 1 534 51719 154 310 0 532 537 531 538 81 1 535 51779 133 515
 539 0 532 540 541 82 1 536 1362296968 14 515 5884 535 ?503 517 542 13 513 -0 0
 503 517 316 81 1 539 51729 154 515 0 535 543 544 545 81 1 540 51780 133 503 544
 0 535 546 547 82 1 541 -1040383861 14 503 5889 540 ?500 515 548 13 516 +0 0 500
 515 316 81 1 544 51730 154 503 0 540 539 549 550 81 1 546 51781 133 498 551 0 5
40 552 553 82 1 547 -1042349941 14 498 7180 546 ?0 500 496 13 554 +0 0 0 500 316
 81 1 551 51732 154 498 0 546 549 0 555 81 1 552 51782 133 436 556 0 546 557 558
 82 1 553 11665571 14 436 216 552 ?401 559 434 13 514 -517 559 401 559 316 81 1
 556 51725 154 436 0 552 560 561 562 81 1 557 51783 133 559 560 0 552 563 564 82
 1 558 1175847048 14 559 213 557 ?436 474 565 13 514 -436 474 436 474 316 81 1 5
60 51724 154 559 0 557 566 556 567 81 1 563 51784 133 474 566 0 557 0 568 82 1 5
64 1176305800 14 474 210 563 ?559 380 473 13 514 -559 517 559 380 316 81 1 566 5
1723 154 474 0 563 569 560 570 82 1 568 1176764552 81 1 569 51722 154 380 0 527
 571 566 572 83 3 570 1 0 0 81 1 527 51775 133 380 569 0 524 529 573 81 1 571 51
721 154 528 0 529 531 569 574 83 3 572 1 0 0 81 1 529 51776 133 528 571 0 527 53
0 575 81 1 531 51720 154 430 0 530 534 571 576 83 3 574 1 0 0 83 3 576 1 0 0 82
 1 575 1361772680 81 1 524 51774 133 401 561 0 523 527 577 82 1 573 1361510536 8
1 1 561 51726 154 401 0 524 556 578 579 81 1 523 51773 133 520 578 0 519 524 580
 82 1 577 1168572552 81 1 578 51727 154 520 0 523 561 543 581 81 1 519 51772 133
 517 543 0 510 523 582 82 1 580 1168048264 81 1 543 51728 154 517 0 519 578 539
 583 81 1 510 51771 133 507 537 0 506 519 584 82 1 582 1166868616 81 1 537 51718
 154 507 0 510 509 534 585 82 1 584 -1037959029 81 1 509 51717 154 308 0 506 0 5
37 586 83 3 585 1 0 0 83 3 586 1 0 0 83 3 583 1 0 0 83 3 581 1 0 0 83 3 579 1 0
 0 83 3 567 1 0 0 15 565 215 0 350 559 0 17 350 0 565 587 344 348 407 405 0 402
 -17 587 0 565 344 350 352 400 477 0 0 -17 344 0 565 350 587 342 354 417 0 407 -
17 354 0 427 395 317 352 344 417 0 397 +16 417 177 0 ?354 398 422 414 0 0 7 16 4
22 164 0 ?438 417 437 419 437 437 7 17 438 0 433 358 384 339 588 422 0 439 +15 4
33 230 0 438 520 0 17 358 0 433 428 438 356 435 437 0 426 +17 384 0 433 438 386
 359 376 385 0 588 +17 588 0 521 589 341 359 438 422 0 0 -15 521 240 0 341 517 0
 17 589 0 521 341 588 314 361 476 0 442 -17 341 0 521 588 589 339 442 444 0 435
 -17 442 0 441 462 439 314 341 444 0 379 +15 441 80 0 439 528 0 17 462 0 441 590
 442 321 379 460 0 325 -18 314 62 0 589 333 336 16 1e-8 7 17 590 0 441 432 462 3
28 324 467 0 0 -17 325 0 374 379 327 321 320 326 0 0 -17 432 0 441 439 590 345 4
31 318 0 0 +17 324 0 322 320 332 321 590 467 0 462 +16 467 10 0 ?324 326 446 591
 0 0 7 16 446 7 0 ?332 467 443 592 0 0 7 31 591 11 0 467 592 457 0 +0 0 .01515 0
 0 1 1 0 0 .006 30 592 8 0 446 447 591 0 +.003316624790355405 .005 .01515 -1 0 0
 30 457 14 0 326 591 455 0 +.003316624790355405 -.005 .01515 1 0 0 31 447 5 0 44
3 478 592 0 +0 0 .01515 0 0 1 1 0 0 .006 17 332 0 322 324 323 328 335 446 0 431
 +15 322 3 0 323 507 593 17 323 0 322 332 320 333 466 443 0 472 +17 335 0 427 31
7 431 333 332 446 0 323 -17 431 0 427 335 416 328 432 318 0 590 -17 317 0 427 35
4 335 342 472 18 0 0 +17 472 0 464 466 407 333 317 18 0 0 -17 466 0 464 463 472
 19 323 443 0 0 -15 593 5871 0 594 507 0 17 594 0 593 594 594 0 487 485 0 0 -17
 487 0 595 487 487 0 594 485 0 0 +15 595 5888 0 487 515 0 17 361 0 374 376 379 3
59 589 476 0 384 +17 386 0 433 384 428 370 369 388 0 0 -17 369 0 387 366 372 367
 386 388 0 428 +17 395 0 427 393 354 351 397 424 0 391 -17 397 0 396 400 391 352
 395 424 0 587 +17 400 0 396 364 397 348 587 477 0 465 +83 3 562 1 0 0 81 1 549
 51731 154 500 0 502 544 551 596 83 3 555 1 0 0 81 1 502 51769 133 500 549 0 0 5
06 597 83 3 596 1 0 0 82 1 597 13631651 50 554 7190 0 498 0 504 0 +0 0 -.0099 0
 0 -1 -1 0 0 51 504 7188 0 500 554 516 0 -0 0 -.0099 0 0 1 .002 1 0 0 50 516 589
9 0 503 504 513 0 +0 0 .01645 0 0 1 1 0 0 83 3 550 1 0 0 15 548 5891 0 491 503 0
 17 491 0 548 491 491 0 598 488 0 0 +17 598 0 542 598 598 0 491 488 0 0 -15 542
 5887 0 598 515 595 83 3 545 1 0 0 83 3 538 1 0 0 82 1 533 1362034824 82 1 511 1
6056483 16 403 150 0 ?364 477 488 479 477 477 7 141 458 409 599 599 455 141 599
 468 458 458 455 141 453 452 453 453 449 19 309 95 0 7 0 17 13 S0 141 313 312 31
3 313 15 74 20 307 4 0 0 563 306 551 10 0 0 0 0 0 0 0 0 0 0 0 0 0 0 0 0 81 3 306
 51716 172 7 0 10 0 0 600 601 602 82 1 600 1540620 82 1 601 146 82 4 602 1540911
 1540907 1540919 1540886 74 20 6 1 0 0 2 0 0 0 0 0 0 0 0 0 0 0 0 0 0 0 0 0 0 0 8
0 2 5 603 604 9000 0 0 0 0 3 5 0 0 0 TFFFFFFFFFFFFF9 1 79 18 604 MULTI_BODY_ID_2
0011 0 
